<svg width="448" height="806" viewBox="0 0 448 806" fill="none" xmlns="http://www.w3.org/2000/svg">
<path d="M369.62 0H77.4706C57.6735 0.0197529 38.6936 7.0152 24.6949 19.4516C10.6963 31.888 2.82204 48.7497 2.7998 66.3374V739.663C2.82204 757.25 10.6963 774.112 24.6949 786.548C38.6936 798.985 57.6735 805.98 77.4706 806H369.62C389.417 805.98 408.397 798.985 422.396 786.548C436.395 774.112 444.269 757.25 444.291 739.663V66.3374C444.269 48.7497 436.395 31.888 422.396 19.4516C408.397 7.0152 389.417 0.0197529 369.62 0V0ZM422.823 740.417C422.828 752.961 417.227 764.993 407.251 773.87C397.275 782.747 383.74 787.742 369.62 787.757H77.5639C63.4444 787.742 49.9094 782.747 39.9332 773.87C29.9571 764.993 24.356 752.961 24.361 740.417V67.2413C24.356 54.6975 29.9571 42.6651 39.9332 33.7883C49.9094 24.9115 63.4444 19.9166 77.5639 19.9012H369.62C383.74 19.9166 397.275 24.9115 407.251 33.7883C417.227 42.6651 422.828 54.6975 422.823 67.2413V740.417Z" fill="#272727"/>
<path d="M447.092 174.136H441.491V264.521H447.092V174.136Z" fill="#272727"/>
<path d="M5.60031 112.774H0V138.48H5.60031V112.774Z" fill="#272727"/>
<path d="M5.60031 169.161H0V219.743H5.60031V169.161Z" fill="#272727"/>
<path d="M5.60031 237.986H0V289.397H5.60031V237.986Z" fill="#272727"/>
<path d="M146 18.8003H301.875V26.967C301.877 29.8172 301.211 32.6398 299.917 35.2733C298.622 37.9068 296.724 40.2997 294.331 42.3151C291.938 44.3306 289.097 45.9291 285.97 47.0192C282.843 48.1094 279.491 48.6699 276.107 48.6686H171.768C168.384 48.6699 165.032 48.1094 161.905 47.0192C158.778 45.9291 155.937 44.3306 153.544 42.3151C151.151 40.2997 149.253 37.9068 147.958 35.2733C146.664 32.6398 145.999 29.8172 146 26.967V18.8003Z" fill="black"/>
<path d="M178.78 33.7346C180.055 33.7366 181.303 33.3597 182.364 32.6518C183.153 32.1203 183.815 31.4203 184.301 30.6022C184.787 29.7842 185.085 28.8684 185.174 27.9211C185.264 26.9738 185.142 26.0185 184.817 25.124C184.493 24.2295 183.973 23.4182 183.297 22.7486C182.399 21.846 181.252 21.2318 180.003 20.9845C179.069 20.7981 178.106 20.821 177.183 21.0518C176.26 21.2825 175.399 21.7153 174.664 22.3189C173.928 22.9225 173.335 23.6819 172.929 24.5423C172.522 25.4026 172.311 26.3425 172.312 27.2942C172.312 29.0007 172.989 30.6374 174.195 31.8449C175.4 33.0525 177.036 33.7321 178.743 33.7346H178.78Z" fill="#2B2B29"/>
<path d="M184.269 27.3686C184.269 28.4502 183.949 29.5076 183.349 30.4073C182.748 31.3069 181.895 32.0084 180.896 32.423C179.897 32.8376 178.797 32.9466 177.736 32.7365C176.675 32.5263 175.701 32.0062 174.935 31.2421C174.166 30.4789 173.643 29.5035 173.432 28.441C173.22 27.3784 173.331 26.277 173.75 25.2778C174.161 24.277 174.861 23.4213 175.76 22.8196C176.659 22.2179 177.717 21.8974 178.799 21.8989C180.251 21.9054 181.642 22.4819 182.673 23.5043C183.181 24.0111 183.584 24.6135 183.858 25.2768C184.132 25.94 184.271 26.651 184.269 27.3686V27.3686Z" fill="#1C1D22"/>
<path d="M181.468 27.3689C181.468 27.7719 181.378 28.1697 181.205 28.5339C181.033 28.8981 180.782 29.2197 180.471 29.4756C180.159 29.7316 179.795 29.9156 179.405 30.0145C179.014 30.1134 178.606 30.1248 178.211 30.0477C177.685 29.9374 177.202 29.6781 176.82 29.301C176.437 28.9194 176.177 28.4318 176.073 27.9009C175.971 27.374 176.026 26.8287 176.232 26.3329C176.434 25.8339 176.782 25.4077 177.231 25.1101C177.754 24.7552 178.385 24.5945 179.014 24.6559C179.643 24.7172 180.23 24.9968 180.675 25.4461C180.927 25.6988 181.127 25.9987 181.263 26.3286C181.399 26.6585 181.469 27.012 181.468 27.3689V27.3689Z" fill="#25295F"/>
<path d="M205.093 16C204.296 16.0436 203.547 16.3906 202.999 16.9696C202.451 17.5485 202.146 18.3156 202.146 19.1128C202.146 19.9101 202.451 20.6771 202.999 21.2561C203.547 21.8351 204.296 22.1821 205.093 22.2257H242.381C243.177 22.1821 243.926 21.8351 244.475 21.2561C245.023 20.6771 245.328 19.9101 245.328 19.1128C245.328 18.3156 245.023 17.5485 244.475 16.9696C243.926 16.3906 243.177 16.0436 242.381 16H205.093Z" fill="#2B2B29"/>
</svg>
