<svg width="71" height="75" viewBox="0 0 71 75" fill="none" xmlns="http://www.w3.org/2000/svg">
<path d="M47.6839 49.1244C47.338 49.3109 46.9125 49.3495 46.4687 49.18C45.6108 48.8522 45.0646 47.8388 45.2625 46.942L49.0435 29.8098L32.6543 23.5485C31.7964 23.2208 31.2502 22.2073 31.4481 21.3105C31.646 20.4137 32.5198 19.9428 33.3778 20.2705L51.3348 27.1308C52.1928 27.4585 52.739 28.4719 52.541 29.3688L48.3984 48.14C48.296 48.6038 48.0298 48.938 47.6839 49.1244Z" fill="#2AB199"/>
<path d="M51.5183 30.52L20.8808 47.0325C20.1344 47.4348 19.1286 47.0505 18.662 46.1849C18.1955 45.3192 18.4275 44.2678 19.1739 43.8655L49.8114 27.353C50.5577 26.9508 51.5636 27.335 52.0301 28.2007C52.4967 29.0663 52.2646 30.1178 51.5183 30.52Z" fill="#2AB199"/>
</svg>
