<svg width="93" height="92" viewBox="0 0 93 92" fill="none" xmlns="http://www.w3.org/2000/svg">
<path fill-rule="evenodd" clip-rule="evenodd" d="M19.1183 56.9578L12.0118 49.023L33.7643 41.1182L37.1501 50.4056L19.1183 56.9578Z" fill="#F89920"/>
<path fill-rule="evenodd" clip-rule="evenodd" d="M40.1066 33.8396L33.0001 25.9049L54.7526 18L58.1384 27.2874L40.1066 33.8396Z" fill="#F89920"/>
<path fill-rule="evenodd" clip-rule="evenodd" d="M19.0693 56.8144L18.7345 67.4538L40.487 59.5489L37.1011 50.2622L19.0693 56.8144Z" fill="#FFBE22"/>
<path fill-rule="evenodd" clip-rule="evenodd" d="M49.3349 62.5522L49.0001 73.1916L70.7526 65.2867L67.3668 56L49.3349 62.5522Z" fill="#FFBE22"/>
<path fill-rule="evenodd" clip-rule="evenodd" d="M79.5177 35.0259C82.6215 44.0032 72.6207 55.7997 57.0643 61.453C41.5065 67.1055 26.2507 64.4869 22.8478 55.6177L79.5177 35.0259Z" fill="#F0670A"/>
<path fill-rule="evenodd" clip-rule="evenodd" d="M79.519 35.0256C76.1382 26.1336 60.866 23.5044 45.2925 29.1626C29.7183 34.8215 19.7125 46.6372 22.8483 55.6189L79.519 35.0256Z" fill="#FFD00E"/>
<path fill-rule="evenodd" clip-rule="evenodd" d="M79.5142 35.0278C81.4489 41.0345 70.5912 50.3895 55.0825 56.0243C39.5732 61.6605 25.2327 61.4621 22.8478 55.6189L79.5142 35.0278Z" fill="#F89920"/>
<path fill-rule="evenodd" clip-rule="evenodd" d="M79.5146 35.0262C77.1652 29.1553 62.8028 28.9469 47.2684 34.5924C31.7341 40.2371 20.8664 49.6127 22.8461 55.618L79.5146 35.0262Z" fill="#FFBE22"/>
</svg>
