<svg width="87" height="87" viewBox="0 0 87 87" fill="none" xmlns="http://www.w3.org/2000/svg">
<path d="M71.7654 70.0467C71.496 69.5073 44.8386 16.1687 44.183 14.8425C44.0973 14.6567 43.9629 14.4975 43.7941 14.3819C43.6253 14.2662 43.4283 14.1983 43.2241 14.1854L43.1788 14.1846C42.9453 14.1966 42.7187 14.2679 42.5204 14.3918C42.3221 14.5156 42.1586 14.688 42.0454 14.8925L42.0441 14.8938C34.8182 26.3407 33.9994 40.1618 39.8546 51.8654L49.5012 71.1576C49.6033 71.3705 49.7635 71.5503 49.9633 71.6763C50.1631 71.8022 50.3944 71.8691 50.6306 71.8694H70.639C70.8538 71.8695 71.065 71.8148 71.2526 71.7103C71.4402 71.6058 71.598 71.455 71.7109 71.2724C71.8238 71.0897 71.888 70.8811 71.8976 70.6666C71.9071 70.4521 71.8616 70.2386 71.7654 70.0467Z" fill="url(#paint0_linear_268_1662)"/>
<ellipse cx="29.3153" cy="60.9946" rx="10.4022" ry="10.875" fill="#2684FF"/>
<defs>
<linearGradient id="paint0_linear_268_1662" x1="53.939" y1="14.1846" x2="53.939" y2="71.8694" gradientUnits="userSpaceOnUse">
<stop stop-color="#2684FF"/>
<stop offset="1" stop-color="#2684FF"/>
</linearGradient>
</defs>
</svg>
