<svg width="1077" height="410" viewBox="0 0 1077 410" fill="none" xmlns="http://www.w3.org/2000/svg">
<g filter="url(#filter0_d_87_1691)">
<rect width="1075" height="408" rx="12" transform="matrix(-1 0 0 1 1075 0)" fill="url(#paint0_linear_87_1691)" shape-rendering="crispEdges"/>
</g>
<g clip-path="url(#clip0_87_1691)">
<path d="M58.032 48.44C59.2267 48.44 60.1653 48.728 60.848 49.304C61.5307 49.88 61.872 50.6533 61.872 51.624C61.872 52.6587 61.5307 53.4533 60.848 54.008C60.1653 54.552 59.232 54.824 58.048 54.824L57.824 54.952H55.552V59H53.376V48.44H58.032ZM57.776 53.272C58.3947 53.272 58.8533 53.1493 59.152 52.904C59.4613 52.648 59.616 52.2587 59.616 51.736C59.616 51.2133 59.4613 50.8293 59.152 50.584C58.8533 50.328 58.3947 50.2 57.776 50.2H55.552V53.272H57.776ZM59.072 53.736L62.496 59H60.016L57.184 54.376L59.072 53.736ZM67.5828 59.16C66.7401 59.16 66.0041 58.9947 65.3748 58.664C64.7561 58.3333 64.2761 57.8587 63.9348 57.24C63.5934 56.6213 63.4228 55.8747 63.4228 55C63.4228 54.1253 63.5934 53.3787 63.9348 52.76C64.2761 52.1413 64.7508 51.6667 65.3588 51.336C65.9774 51.0053 66.6814 50.84 67.4708 50.84C68.2814 50.84 68.9694 51.0053 69.5348 51.336C70.1001 51.656 70.5321 52.0987 70.8308 52.664C71.1294 53.2187 71.2788 53.8533 71.2788 54.568C71.2788 54.7813 71.2734 54.984 71.2628 55.176C71.2521 55.368 71.2361 55.5387 71.2148 55.688H64.8307V54.168H70.2548L69.1988 54.552C69.1988 53.88 69.0441 53.3627 68.7348 53C68.4361 52.6373 68.0094 52.456 67.4548 52.456C67.0494 52.456 66.6974 52.552 66.3988 52.744C66.1108 52.936 65.8921 53.224 65.7428 53.608C65.5934 53.9813 65.5188 54.456 65.5188 55.032C65.5188 55.5973 65.5988 56.0667 65.7588 56.44C65.9294 56.8027 66.1641 57.0747 66.4628 57.256C66.7721 57.4373 67.1401 57.528 67.5668 57.528C68.0361 57.528 68.4148 57.4373 68.7028 57.256C68.9908 57.0747 69.2148 56.824 69.3748 56.504L71.1188 57.176C70.9481 57.592 70.6868 57.9493 70.3348 58.248C69.9934 58.5467 69.5828 58.776 69.1028 58.936C68.6334 59.0853 68.1268 59.16 67.5828 59.16ZM73.1364 62.36V51H75.1044L75.2484 53.544L74.9764 53.256C75.0724 52.7867 75.2484 52.3707 75.5044 52.008C75.771 51.6453 76.107 51.3627 76.5124 51.16C76.9177 50.9467 77.371 50.84 77.8724 50.84C78.523 50.84 79.1044 51.0053 79.6164 51.336C80.1284 51.6667 80.5284 52.1413 80.8164 52.76C81.115 53.368 81.2644 54.1093 81.2644 54.984C81.2644 55.8587 81.115 56.6107 80.8164 57.24C80.5177 57.8587 80.107 58.3333 79.5844 58.664C79.0724 58.9947 78.4857 59.16 77.8244 59.16C77.1204 59.16 76.5337 58.9627 76.0644 58.568C75.6057 58.1733 75.291 57.6773 75.1204 57.08L75.3284 56.744V62.36H73.1364ZM77.1844 57.48C77.771 57.48 78.2297 57.272 78.5604 56.856C78.9017 56.4293 79.0724 55.8107 79.0724 55C79.0724 54.1893 78.907 53.576 78.5764 53.16C78.2564 52.7333 77.803 52.52 77.2164 52.52C76.843 52.52 76.5124 52.6213 76.2244 52.824C75.947 53.016 75.7284 53.2987 75.5684 53.672C75.4084 54.0347 75.3284 54.4773 75.3284 55C75.3284 55.512 75.403 55.9547 75.5524 56.328C75.7017 56.7013 75.915 56.9893 76.1924 57.192C76.4804 57.384 76.811 57.48 77.1844 57.48ZM86.8156 50.84C87.6263 50.84 88.3356 51.0053 88.9436 51.336C89.5623 51.6667 90.0423 52.1413 90.3836 52.76C90.7356 53.3787 90.9116 54.1253 90.9116 55C90.9116 55.864 90.7356 56.6107 90.3836 57.24C90.0423 57.8587 89.5623 58.3333 88.9436 58.664C88.3356 58.9947 87.6263 59.16 86.8156 59.16C86.0156 59.16 85.3063 58.9947 84.6876 58.664C84.069 58.3333 83.5836 57.8587 83.2316 57.24C82.8903 56.6107 82.7196 55.864 82.7196 55C82.7196 54.1253 82.8903 53.3787 83.2316 52.76C83.5836 52.1413 84.069 51.6667 84.6876 51.336C85.3063 51.0053 86.0156 50.84 86.8156 50.84ZM86.8156 52.472C86.4103 52.472 86.0636 52.568 85.7756 52.76C85.4983 52.9413 85.285 53.2187 85.1356 53.592C84.9863 53.9653 84.9116 54.4347 84.9116 55C84.9116 55.5653 84.9863 56.0347 85.1356 56.408C85.285 56.7813 85.4983 57.064 85.7756 57.256C86.0636 57.4373 86.4103 57.528 86.8156 57.528C87.2103 57.528 87.5463 57.4373 87.8236 57.256C88.1116 57.064 88.3303 56.7813 88.4796 56.408C88.629 56.0347 88.7036 55.5653 88.7036 55C88.7036 54.4347 88.629 53.9653 88.4796 53.592C88.3303 53.2187 88.1116 52.9413 87.8236 52.76C87.5463 52.568 87.2103 52.472 86.8156 52.472ZM92.7458 59V51H94.6498L94.7938 52.568C95.0071 52.0133 95.3164 51.5867 95.7218 51.288C96.1378 50.9893 96.6551 50.84 97.2738 50.84C97.4551 50.84 97.6204 50.856 97.7698 50.888C97.9191 50.92 98.0418 50.9627 98.1378 51.016L97.8818 52.856C97.7751 52.8133 97.6418 52.7813 97.4818 52.76C97.3324 52.7387 97.1351 52.728 96.8898 52.728C96.5698 52.728 96.2604 52.808 95.9618 52.968C95.6631 53.1173 95.4178 53.352 95.2258 53.672C95.0338 53.9813 94.9378 54.376 94.9378 54.856V59H92.7458ZM102.031 48.552V56.392C102.031 56.776 102.127 57.0587 102.319 57.24C102.522 57.4107 102.794 57.496 103.135 57.496C103.402 57.496 103.636 57.4587 103.839 57.384C104.042 57.2987 104.223 57.1867 104.383 57.048L104.735 58.504C104.479 58.7067 104.159 58.8667 103.775 58.984C103.391 59.1013 102.986 59.16 102.559 59.16C102.026 59.16 101.551 59.08 101.135 58.92C100.73 58.76 100.41 58.504 100.175 58.152C99.9509 57.8 99.8389 57.3307 99.8389 56.744V49.16L102.031 48.552ZM104.591 51V52.632H98.3669V51H104.591ZM109.274 59.16C108.463 59.16 107.722 59.016 107.05 58.728C106.389 58.44 105.85 58.0347 105.434 57.512L106.698 56.232C106.954 56.616 107.295 56.9307 107.722 57.176C108.149 57.4213 108.655 57.544 109.242 57.544C109.658 57.544 109.989 57.4853 110.234 57.368C110.49 57.24 110.618 57.0427 110.618 56.776C110.618 56.6053 110.559 56.4613 110.442 56.344C110.325 56.216 110.09 56.1147 109.738 56.04L108.33 55.752C107.402 55.56 106.741 55.272 106.346 54.888C105.962 54.4933 105.77 53.9867 105.77 53.368C105.77 52.9307 105.898 52.52 106.154 52.136C106.421 51.752 106.815 51.4427 107.338 51.208C107.861 50.9627 108.511 50.84 109.29 50.84C110.09 50.84 110.783 50.968 111.37 51.224C111.967 51.4693 112.437 51.8373 112.778 52.328L111.466 53.608C111.231 53.2347 110.922 52.952 110.538 52.76C110.165 52.5573 109.77 52.456 109.354 52.456C109.055 52.456 108.799 52.488 108.586 52.552C108.373 52.616 108.213 52.7067 108.106 52.824C107.999 52.9307 107.946 53.0693 107.946 53.24C107.946 53.4107 108.021 53.56 108.17 53.688C108.319 53.8053 108.591 53.9067 108.986 53.992L110.618 54.328C111.407 54.488 111.973 54.76 112.314 55.144C112.655 55.5173 112.826 55.9707 112.826 56.504C112.826 57.016 112.687 57.4747 112.41 57.88C112.143 58.2747 111.743 58.5893 111.21 58.824C110.687 59.048 110.042 59.16 109.274 59.16Z" fill="white"/>
</g>
<line x1="786" y1="57" x2="770" y2="57" stroke="#263149" stroke-width="4" stroke-linecap="round" stroke-linejoin="round"/>
<path d="M802.268 57.896H805.088V59H800.9V50.66H802.268V57.896ZM805.776 55.664C805.776 55 805.912 54.412 806.184 53.9C806.464 53.388 806.84 52.992 807.312 52.712C807.792 52.424 808.32 52.28 808.896 52.28C809.416 52.28 809.868 52.384 810.252 52.592C810.644 52.792 810.956 53.044 811.188 53.348V52.388H812.568V59H811.188V58.016C810.956 58.328 810.64 58.588 810.24 58.796C809.84 59.004 809.384 59.108 808.872 59.108C808.304 59.108 807.784 58.964 807.312 58.676C806.84 58.38 806.464 57.972 806.184 57.452C805.912 56.924 805.776 56.328 805.776 55.664ZM811.188 55.688C811.188 55.232 811.092 54.836 810.9 54.5C810.716 54.164 810.472 53.908 810.168 53.732C809.864 53.556 809.536 53.468 809.184 53.468C808.832 53.468 808.504 53.556 808.2 53.732C807.896 53.9 807.648 54.152 807.456 54.488C807.272 54.816 807.18 55.208 807.18 55.664C807.18 56.12 807.272 56.52 807.456 56.864C807.648 57.208 807.896 57.472 808.2 57.656C808.512 57.832 808.84 57.92 809.184 57.92C809.536 57.92 809.864 57.832 810.168 57.656C810.472 57.48 810.716 57.224 810.9 56.888C811.092 56.544 811.188 56.144 811.188 55.688ZM816.765 59.108C816.245 59.108 815.777 59.016 815.361 58.832C814.953 58.64 814.629 58.384 814.389 58.064C814.149 57.736 814.021 57.372 814.005 56.972H815.421C815.445 57.252 815.577 57.488 815.817 57.68C816.065 57.864 816.373 57.956 816.741 57.956C817.125 57.956 817.421 57.884 817.629 57.74C817.845 57.588 817.953 57.396 817.953 57.164C817.953 56.916 817.833 56.732 817.593 56.612C817.361 56.492 816.989 56.36 816.477 56.216C815.981 56.08 815.577 55.948 815.265 55.82C814.953 55.692 814.681 55.496 814.449 55.232C814.225 54.968 814.113 54.62 814.113 54.188C814.113 53.836 814.217 53.516 814.425 53.228C814.633 52.932 814.929 52.7 815.313 52.532C815.705 52.364 816.153 52.28 816.657 52.28C817.409 52.28 818.013 52.472 818.469 52.856C818.933 53.232 819.181 53.748 819.213 54.404H817.845C817.821 54.108 817.701 53.872 817.485 53.696C817.269 53.52 816.977 53.432 816.609 53.432C816.249 53.432 815.973 53.5 815.781 53.636C815.589 53.772 815.493 53.952 815.493 54.176C815.493 54.352 815.557 54.5 815.685 54.62C815.813 54.74 815.969 54.836 816.153 54.908C816.337 54.972 816.609 55.056 816.969 55.16C817.449 55.288 817.841 55.42 818.145 55.556C818.457 55.684 818.725 55.876 818.949 56.132C819.173 56.388 819.289 56.728 819.297 57.152C819.297 57.528 819.193 57.864 818.985 58.16C818.777 58.456 818.481 58.688 818.097 58.856C817.721 59.024 817.277 59.108 816.765 59.108ZM822.371 53.504V57.164C822.371 57.412 822.427 57.592 822.539 57.704C822.659 57.808 822.859 57.86 823.139 57.86H823.979V59H822.899C822.283 59 821.811 58.856 821.483 58.568C821.155 58.28 820.991 57.812 820.991 57.164V53.504H820.211V52.388H820.991V50.744H822.371V52.388H823.979V53.504H822.371ZM839.217 50.66L836.745 59H835.197L833.445 52.688L831.585 59L830.049 59.012L827.685 50.66H829.137L830.865 57.452L832.737 50.66H834.273L836.013 57.416L837.753 50.66H839.217ZM846.405 55.532C846.405 55.78 846.389 56.004 846.357 56.204H841.305C841.345 56.732 841.541 57.156 841.893 57.476C842.245 57.796 842.677 57.956 843.189 57.956C843.925 57.956 844.445 57.648 844.749 57.032H846.225C846.025 57.64 845.661 58.14 845.133 58.532C844.613 58.916 843.965 59.108 843.189 59.108C842.557 59.108 841.989 58.968 841.485 58.688C840.989 58.4 840.597 58 840.309 57.488C840.029 56.968 839.889 56.368 839.889 55.688C839.889 55.008 840.025 54.412 840.297 53.9C840.577 53.38 840.965 52.98 841.461 52.7C841.965 52.42 842.541 52.28 843.189 52.28C843.813 52.28 844.369 52.416 844.857 52.688C845.345 52.96 845.725 53.344 845.997 53.84C846.269 54.328 846.405 54.892 846.405 55.532ZM844.977 55.1C844.969 54.596 844.789 54.192 844.437 53.888C844.085 53.584 843.649 53.432 843.129 53.432C842.657 53.432 842.253 53.584 841.917 53.888C841.581 54.184 841.381 54.588 841.317 55.1H844.977ZM853.812 55.532C853.812 55.78 853.796 56.004 853.764 56.204H848.712C848.752 56.732 848.948 57.156 849.3 57.476C849.652 57.796 850.084 57.956 850.596 57.956C851.332 57.956 851.852 57.648 852.156 57.032H853.632C853.432 57.64 853.068 58.14 852.54 58.532C852.02 58.916 851.372 59.108 850.596 59.108C849.964 59.108 849.396 58.968 848.892 58.688C848.396 58.4 848.004 58 847.716 57.488C847.436 56.968 847.296 56.368 847.296 55.688C847.296 55.008 847.432 54.412 847.704 53.9C847.984 53.38 848.372 52.98 848.868 52.7C849.372 52.42 849.948 52.28 850.596 52.28C851.22 52.28 851.776 52.416 852.264 52.688C852.752 52.96 853.132 53.344 853.404 53.84C853.676 54.328 853.812 54.892 853.812 55.532ZM852.384 55.1C852.376 54.596 852.196 54.192 851.844 53.888C851.492 53.584 851.056 53.432 850.536 53.432C850.064 53.432 849.66 53.584 849.324 53.888C848.988 54.184 848.788 54.588 848.724 55.1H852.384ZM857.774 55.7L860.822 59H858.974L856.526 56.156V59H855.158V50.12H856.526V55.28L858.926 52.388H860.822L857.774 55.7Z" fill="#EBEBF5" fill-opacity="0.3"/>
<rect x="873.5" y="40.5" width="107" height="29" rx="3.5" stroke="#304069"/>
<path d="M889.357 57.985H885.405L884.677 60H883.429L886.705 50.991H888.07L891.333 60H890.085L889.357 57.985ZM889.019 57.023L887.381 52.447L885.743 57.023H889.019ZM893.944 54.189C894.178 53.7817 894.524 53.4437 894.984 53.175C895.452 52.8977 895.993 52.759 896.609 52.759C897.241 52.759 897.813 52.9107 898.325 53.214C898.845 53.5173 899.252 53.9463 899.547 54.501C899.841 55.047 899.989 55.684 899.989 56.412C899.989 57.1313 899.841 57.7727 899.547 58.336C899.252 58.8993 898.845 59.337 898.325 59.649C897.813 59.961 897.241 60.117 896.609 60.117C896.002 60.117 895.465 59.9827 894.997 59.714C894.537 59.4367 894.186 59.0943 893.944 58.687V63.38H892.761V52.876H893.944V54.189ZM898.78 56.412C898.78 55.8747 898.671 55.4067 898.455 55.008C898.238 54.6093 897.943 54.306 897.571 54.098C897.207 53.89 896.804 53.786 896.362 53.786C895.928 53.786 895.525 53.8943 895.153 54.111C894.789 54.319 894.494 54.6267 894.269 55.034C894.052 55.4327 893.944 55.8963 893.944 56.425C893.944 56.9623 894.052 57.4347 894.269 57.842C894.494 58.2407 894.789 58.5483 895.153 58.765C895.525 58.973 895.928 59.077 896.362 59.077C896.804 59.077 897.207 58.973 897.571 58.765C897.943 58.5483 898.238 58.2407 898.455 57.842C898.671 57.4347 898.78 56.958 898.78 56.412ZM902.729 54.033C902.937 53.6257 903.232 53.3093 903.613 53.084C904.003 52.8587 904.475 52.746 905.03 52.746V53.968H904.718C903.392 53.968 902.729 54.6873 902.729 56.126V60H901.546V52.876H902.729V54.033ZM907.007 51.719C906.781 51.719 906.591 51.641 906.435 51.485C906.279 51.329 906.201 51.1383 906.201 50.913C906.201 50.6877 906.279 50.497 906.435 50.341C906.591 50.185 906.781 50.107 907.007 50.107C907.223 50.107 907.405 50.185 907.553 50.341C907.709 50.497 907.787 50.6877 907.787 50.913C907.787 51.1383 907.709 51.329 907.553 51.485C907.405 51.641 907.223 51.719 907.007 51.719ZM907.579 52.876V60H906.396V52.876H907.579ZM910.778 50.38V60H909.595V50.38H910.778ZM915.922 59.051C917.022 58.167 917.885 57.4433 918.509 56.88C919.133 56.308 919.657 55.7143 920.082 55.099C920.515 54.475 920.732 53.864 920.732 53.266C920.732 52.7027 920.593 52.2607 920.316 51.94C920.047 51.6107 919.609 51.446 919.003 51.446C918.413 51.446 917.954 51.6323 917.625 52.005C917.304 52.369 917.131 52.8587 917.105 53.474H915.961C915.995 52.5033 916.29 51.7537 916.845 51.225C917.399 50.6963 918.114 50.432 918.99 50.432C919.882 50.432 920.589 50.679 921.109 51.173C921.637 51.667 921.902 52.3473 921.902 53.214C921.902 53.9333 921.685 54.6353 921.252 55.32C920.827 55.996 920.342 56.594 919.796 57.114C919.25 57.6253 918.552 58.2233 917.703 58.908H922.175V59.896H915.922V59.051ZM923.542 55.203C923.542 53.7123 923.785 52.551 924.27 51.719C924.756 50.8783 925.605 50.458 926.818 50.458C928.023 50.458 928.868 50.8783 929.353 51.719C929.839 52.551 930.081 53.7123 930.081 55.203C930.081 56.7197 929.839 57.8983 929.353 58.739C928.868 59.5797 928.023 60 926.818 60C925.605 60 924.756 59.5797 924.27 58.739C923.785 57.8983 923.542 56.7197 923.542 55.203ZM928.911 55.203C928.911 54.449 928.859 53.812 928.755 53.292C928.66 52.7633 928.456 52.3387 928.144 52.018C927.841 51.6973 927.399 51.537 926.818 51.537C926.229 51.537 925.778 51.6973 925.466 52.018C925.163 52.3387 924.959 52.7633 924.855 53.292C924.76 53.812 924.712 54.449 924.712 55.203C924.712 55.983 924.76 56.6373 924.855 57.166C924.959 57.6947 925.163 58.1193 925.466 58.44C925.778 58.7607 926.229 58.921 926.818 58.921C927.399 58.921 927.841 58.7607 928.144 58.44C928.456 58.1193 928.66 57.6947 928.755 57.166C928.859 56.6373 928.911 55.983 928.911 55.203ZM931.562 59.051C932.663 58.167 933.525 57.4433 934.149 56.88C934.773 56.308 935.298 55.7143 935.722 55.099C936.156 54.475 936.372 53.864 936.372 53.266C936.372 52.7027 936.234 52.2607 935.956 51.94C935.688 51.6107 935.25 51.446 934.643 51.446C934.054 51.446 933.595 51.6323 933.265 52.005C932.945 52.369 932.771 52.8587 932.745 53.474H931.601C931.636 52.5033 931.931 51.7537 932.485 51.225C933.04 50.6963 933.755 50.432 934.63 50.432C935.523 50.432 936.229 50.679 936.749 51.173C937.278 51.667 937.542 52.3473 937.542 53.214C937.542 53.9333 937.326 54.6353 936.892 55.32C936.468 55.996 935.982 56.594 935.436 57.114C934.89 57.6253 934.193 58.2233 933.343 58.908H937.815V59.896H931.562V59.051ZM939.157 52.967C939.218 52.1697 939.525 51.5457 940.08 51.095C940.635 50.6443 941.354 50.419 942.238 50.419C942.827 50.419 943.334 50.5273 943.759 50.744C944.192 50.952 944.517 51.238 944.734 51.602C944.959 51.966 945.072 52.3777 945.072 52.837C945.072 53.3743 944.916 53.838 944.604 54.228C944.301 54.618 943.902 54.8693 943.408 54.982V55.047C943.971 55.1857 944.418 55.4587 944.747 55.866C945.076 56.2733 945.241 56.8063 945.241 57.465C945.241 57.959 945.128 58.4053 944.903 58.804C944.678 59.194 944.34 59.5017 943.889 59.727C943.438 59.9523 942.897 60.065 942.264 60.065C941.345 60.065 940.591 59.8267 940.002 59.35C939.413 58.8647 939.083 58.18 939.014 57.296H940.158C940.219 57.816 940.431 58.2407 940.795 58.57C941.159 58.8993 941.644 59.064 942.251 59.064C942.858 59.064 943.317 58.908 943.629 58.596C943.95 58.2753 944.11 57.8637 944.11 57.361C944.11 56.711 943.893 56.243 943.46 55.957C943.027 55.671 942.372 55.528 941.497 55.528H941.198V54.54H941.51C942.307 54.5313 942.91 54.4013 943.317 54.15C943.724 53.89 943.928 53.4913 943.928 52.954C943.928 52.4947 943.776 52.1263 943.473 51.849C943.178 51.5717 942.754 51.433 942.199 51.433C941.662 51.433 941.228 51.5717 940.899 51.849C940.57 52.1263 940.375 52.499 940.314 52.967H939.157Z" fill="#E3E8F3"/>
<path fill-rule="evenodd" clip-rule="evenodd" d="M958.75 51.5C958.75 50.8557 959.272 50.3334 959.917 50.3334H968.083C968.728 50.3334 969.25 50.8557 969.25 51.5V59.6667C969.25 60.311 968.728 60.8334 968.083 60.8334H959.917C959.272 60.8334 958.75 60.311 958.75 59.6667V51.5Z" stroke="#00F6FF" stroke-width="1.16667" stroke-linecap="round" stroke-linejoin="round"/>
<path d="M966.333 49.1666V51.5" stroke="#00F6FF" stroke-width="1.16667" stroke-linecap="round" stroke-linejoin="round"/>
<path d="M961.667 49.1666V51.5" stroke="#00F6FF" stroke-width="1.16667" stroke-linecap="round" stroke-linejoin="round"/>
<path d="M958.75 53.8334H969.25" stroke="#00F6FF" stroke-width="1.16667" stroke-linecap="round" stroke-linejoin="round"/>
<rect x="993.5" y="40.5" width="29" height="29" rx="3.5" stroke="#304069"/>
<path fill-rule="evenodd" clip-rule="evenodd" d="M1009.17 55C1009.17 54.3556 1008.64 53.8333 1008 53.8333C1007.36 53.8333 1006.83 54.3556 1006.83 55C1006.83 55.6443 1007.36 56.1666 1008 56.1666C1008.64 56.1666 1009.17 55.6443 1009.17 55Z" stroke="#00F6FF" stroke-width="1.16667" stroke-linecap="round" stroke-linejoin="round"/>
<path fill-rule="evenodd" clip-rule="evenodd" d="M1009.17 50.3333C1009.17 49.689 1008.64 49.1667 1008 49.1667C1007.36 49.1667 1006.83 49.689 1006.83 50.3333C1006.83 50.9777 1007.36 51.5 1008 51.5C1008.64 51.5 1009.17 50.9777 1009.17 50.3333Z" stroke="#00F6FF" stroke-width="1.16667" stroke-linecap="round" stroke-linejoin="round"/>
<path fill-rule="evenodd" clip-rule="evenodd" d="M1009.17 59.6667C1009.17 59.0224 1008.64 58.5 1008 58.5C1007.36 58.5 1006.83 59.0224 1006.83 59.6667C1006.83 60.311 1007.36 60.8334 1008 60.8334C1008.64 60.8334 1009.17 60.311 1009.17 59.6667Z" stroke="#00F6FF" stroke-width="1.16667" stroke-linecap="round" stroke-linejoin="round"/>
<path d="M1023 243.543C970.946 236.564 974.417 278.024 905.879 284.073C837.342 290.122 818.255 247.78 787.023 235.682C755.791 223.585 741.91 168.458 689.856 172.18C637.802 175.902 611.775 213.199 568.397 217.852C525.019 222.505 516.344 253.363 475.568 276.163C434.793 298.962 397.488 301.754 346.301 297.101C295.115 292.448 281.234 245.404 256.942 243.543C232.651 241.682 210.962 264.115 190.14 269.234C169.319 274.352 163.246 297.101 119 297.101" stroke="#262F46" stroke-width="4" stroke-linecap="round" stroke-linejoin="round"/>
<path d="M75.532 105.04V103.878H78.164V114H76.876V105.04H75.532ZM80.3524 108.834C80.3524 107.229 80.6137 105.978 81.1364 105.082C81.659 104.177 82.5737 103.724 83.8804 103.724C85.1777 103.724 86.0877 104.177 86.6104 105.082C87.133 105.978 87.3944 107.229 87.3944 108.834C87.3944 110.467 87.133 111.737 86.6104 112.642C86.0877 113.547 85.1777 114 83.8804 114C82.5737 114 81.659 113.547 81.1364 112.642C80.6137 111.737 80.3524 110.467 80.3524 108.834ZM86.1344 108.834C86.1344 108.022 86.0784 107.336 85.9664 106.776C85.8637 106.207 85.6444 105.749 85.3084 105.404C84.9817 105.059 84.5057 104.886 83.8804 104.886C83.2457 104.886 82.7604 105.059 82.4244 105.404C82.0977 105.749 81.8784 106.207 81.7664 106.776C81.6637 107.336 81.6124 108.022 81.6124 108.834C81.6124 109.674 81.6637 110.379 81.7664 110.948C81.8784 111.517 82.0977 111.975 82.4244 112.32C82.7604 112.665 83.2457 112.838 83.8804 112.838C84.5057 112.838 84.9817 112.665 85.3084 112.32C85.6444 111.975 85.8637 111.517 85.9664 110.948C86.0784 110.379 86.1344 109.674 86.1344 108.834ZM89.1434 108.834C89.1434 107.229 89.4047 105.978 89.9274 105.082C90.4501 104.177 91.3647 103.724 92.6714 103.724C93.9687 103.724 94.8787 104.177 95.4014 105.082C95.9241 105.978 96.1854 107.229 96.1854 108.834C96.1854 110.467 95.9241 111.737 95.4014 112.642C94.8787 113.547 93.9687 114 92.6714 114C91.3647 114 90.4501 113.547 89.9274 112.642C89.4047 111.737 89.1434 110.467 89.1434 108.834ZM94.9254 108.834C94.9254 108.022 94.8694 107.336 94.7574 106.776C94.6547 106.207 94.4354 105.749 94.0994 105.404C93.7727 105.059 93.2967 104.886 92.6714 104.886C92.0367 104.886 91.5514 105.059 91.2154 105.404C90.8887 105.749 90.6694 106.207 90.5574 106.776C90.4547 107.336 90.4034 108.022 90.4034 108.834C90.4034 109.674 90.4547 110.379 90.5574 110.948C90.6694 111.517 90.8887 111.975 91.2154 112.32C91.5514 112.665 92.0367 112.838 92.6714 112.838C93.2967 112.838 93.7727 112.665 94.0994 112.32C94.4354 111.975 94.6547 111.517 94.7574 110.948C94.8694 110.379 94.9254 109.674 94.9254 108.834Z" fill="#E3E8F3" fill-opacity="0.3"/>
<path d="M77.716 180.736C77.1933 180.531 76.792 180.232 76.512 179.84C76.232 179.448 76.092 178.972 76.092 178.412C76.092 177.908 76.218 177.455 76.47 177.054C76.722 176.643 77.0953 176.321 77.59 176.088C78.094 175.845 78.7007 175.724 79.41 175.724C80.1193 175.724 80.7213 175.845 81.216 176.088C81.72 176.321 82.098 176.643 82.35 177.054C82.6113 177.455 82.742 177.908 82.742 178.412C82.742 178.953 82.5973 179.429 82.308 179.84C82.0187 180.241 81.622 180.54 81.118 180.736C81.6967 180.913 82.154 181.226 82.49 181.674C82.8353 182.113 83.008 182.645 83.008 183.27C83.008 183.877 82.8587 184.409 82.56 184.866C82.2613 185.314 81.8367 185.664 81.286 185.916C80.7447 186.159 80.1193 186.28 79.41 186.28C78.7007 186.28 78.0753 186.159 77.534 185.916C77.002 185.664 76.5867 185.314 76.288 184.866C75.9893 184.409 75.84 183.877 75.84 183.27C75.84 182.645 76.008 182.108 76.344 181.66C76.68 181.212 77.1373 180.904 77.716 180.736ZM81.51 178.566C81.51 177.997 81.3233 177.558 80.95 177.25C80.5767 176.942 80.0633 176.788 79.41 176.788C78.766 176.788 78.2573 176.942 77.884 177.25C77.5107 177.558 77.324 178.001 77.324 178.58C77.324 179.103 77.5153 179.523 77.898 179.84C78.29 180.157 78.794 180.316 79.41 180.316C80.0353 180.316 80.5393 180.157 80.922 179.84C81.314 179.513 81.51 179.089 81.51 178.566ZM79.41 181.296C78.7193 181.296 78.1547 181.459 77.716 181.786C77.2773 182.103 77.058 182.584 77.058 183.228C77.058 183.825 77.268 184.306 77.688 184.67C78.1173 185.034 78.6913 185.216 79.41 185.216C80.1287 185.216 80.698 185.034 81.118 184.67C81.538 184.306 81.748 183.825 81.748 183.228C81.748 182.603 81.5333 182.127 81.104 181.8C80.6747 181.464 80.11 181.296 79.41 181.296ZM84.7 180.834C84.7 179.229 84.9614 177.978 85.484 177.082C86.0067 176.177 86.9214 175.724 88.228 175.724C89.5254 175.724 90.4354 176.177 90.958 177.082C91.4807 177.978 91.742 179.229 91.742 180.834C91.742 182.467 91.4807 183.737 90.958 184.642C90.4354 185.547 89.5254 186 88.228 186C86.9214 186 86.0067 185.547 85.484 184.642C84.9614 183.737 84.7 182.467 84.7 180.834ZM90.482 180.834C90.482 180.022 90.426 179.336 90.314 178.776C90.2114 178.207 89.992 177.749 89.656 177.404C89.3294 177.059 88.8534 176.886 88.228 176.886C87.5934 176.886 87.108 177.059 86.772 177.404C86.4454 177.749 86.226 178.207 86.114 178.776C86.0114 179.336 85.96 180.022 85.96 180.834C85.96 181.674 86.0114 182.379 86.114 182.948C86.226 183.517 86.4454 183.975 86.772 184.32C87.108 184.665 87.5934 184.838 88.228 184.838C88.8534 184.838 89.3294 184.665 89.656 184.32C89.992 183.975 90.2114 183.517 90.314 182.948C90.426 182.379 90.482 181.674 90.482 180.834Z" fill="#E3E8F3" fill-opacity="0.3"/>
<path d="M75.56 255.746V254.78L80.474 247.976H82V254.64H83.4V255.746H82V258H80.74V255.746H75.56ZM80.796 249.306L77.03 254.64H80.796V249.306ZM84.6727 252.834C84.6727 251.229 84.934 249.978 85.4567 249.082C85.9794 248.177 86.894 247.724 88.2007 247.724C89.498 247.724 90.408 248.177 90.9307 249.082C91.4534 249.978 91.7147 251.229 91.7147 252.834C91.7147 254.467 91.4534 255.737 90.9307 256.642C90.408 257.547 89.498 258 88.2007 258C86.894 258 85.9794 257.547 85.4567 256.642C84.934 255.737 84.6727 254.467 84.6727 252.834ZM90.4547 252.834C90.4547 252.022 90.3987 251.336 90.2867 250.776C90.184 250.207 89.9647 249.749 89.6287 249.404C89.302 249.059 88.826 248.886 88.2007 248.886C87.566 248.886 87.0807 249.059 86.7447 249.404C86.418 249.749 86.1987 250.207 86.0867 250.776C85.984 251.336 85.9327 252.022 85.9327 252.834C85.9327 253.674 85.984 254.379 86.0867 254.948C86.1987 255.517 86.418 255.975 86.7447 256.32C87.0807 256.665 87.566 256.838 88.2007 256.838C88.826 256.838 89.302 256.665 89.6287 256.32C89.9647 255.975 90.184 255.517 90.2867 254.948C90.3987 254.379 90.4547 253.674 90.4547 252.834Z" fill="#E3E8F3" fill-opacity="0.3"/>
<path d="M75.868 324.834C75.868 323.229 76.1293 321.978 76.652 321.082C77.1747 320.177 78.0893 319.724 79.396 319.724C80.6933 319.724 81.6033 320.177 82.126 321.082C82.6487 321.978 82.91 323.229 82.91 324.834C82.91 326.467 82.6487 327.737 82.126 328.642C81.6033 329.547 80.6933 330 79.396 330C78.0893 330 77.1747 329.547 76.652 328.642C76.1293 327.737 75.868 326.467 75.868 324.834ZM81.65 324.834C81.65 324.022 81.594 323.336 81.482 322.776C81.3793 322.207 81.16 321.749 80.824 321.404C80.4973 321.059 80.0213 320.886 79.396 320.886C78.7613 320.886 78.276 321.059 77.94 321.404C77.6133 321.749 77.394 322.207 77.282 322.776C77.1793 323.336 77.128 324.022 77.128 324.834C77.128 325.674 77.1793 326.379 77.282 326.948C77.394 327.517 77.6133 327.975 77.94 328.32C78.276 328.665 78.7613 328.838 79.396 328.838C80.0213 328.838 80.4973 328.665 80.824 328.32C81.16 327.975 81.3793 327.517 81.482 326.948C81.594 326.379 81.65 325.674 81.65 324.834Z" fill="#E3E8F3" fill-opacity="0.3"/>
<line x1="118" y1="108.5" x2="1024" y2="108.5" stroke="#1F283E"/>
<line x1="118" y1="180.5" x2="1024" y2="180.5" stroke="#1F283E"/>
<line x1="118" y1="252.5" x2="1024" y2="252.5" stroke="#1F283E"/>
<line x1="118" y1="324.5" x2="1024" y2="324.5" stroke="#1F283E"/>
<path d="M118 308.794C157.805 302.629 190.538 265.034 238.033 258.715C263.348 255.347 283.627 261.902 306.254 272.088C328.88 282.273 324.451 286.671 375.338 294.524C417.331 301.004 428.315 231.14 469.465 233.825C510.614 236.509 529.646 152.512 573.091 159.524C616.535 166.535 625.216 148.407 666.054 182.764C706.892 217.122 744.622 137.037 795.886 130.025C847.151 123.013 860.503 197.435 884.832 194.63C909.161 191.825 931.066 244.855 951.92 252.568C972.773 260.281 978.686 232.263 1023 232.263" stroke="#00F6FF" stroke-width="4" stroke-linecap="round" stroke-linejoin="round"/>
<path d="M238.033 258.715C190.538 265.034 157.805 302.629 118 308.794V324H1023V232.263C978.686 232.263 972.773 260.281 951.919 252.568C931.066 244.855 909.161 191.825 884.832 194.63C860.503 197.435 847.151 123.013 795.886 130.025C744.622 137.037 706.892 217.122 666.054 182.764C625.216 148.407 616.535 166.535 573.091 159.524C529.646 152.512 510.614 236.509 469.465 233.825C428.315 231.14 417.331 301.004 375.338 294.524C324.451 286.671 328.88 282.273 306.254 272.088C283.627 261.902 263.348 255.347 238.033 258.715Z" fill="url(#paint1_linear_87_1691)"/>
<path d="M118.532 352.04V350.878H121.164V361H119.876V352.04H118.532ZM123.352 355.834C123.352 354.229 123.614 352.978 124.136 352.082C124.659 351.177 125.574 350.724 126.88 350.724C128.178 350.724 129.088 351.177 129.61 352.082C130.133 352.978 130.394 354.229 130.394 355.834C130.394 357.467 130.133 358.737 129.61 359.642C129.088 360.547 128.178 361 126.88 361C125.574 361 124.659 360.547 124.136 359.642C123.614 358.737 123.352 357.467 123.352 355.834ZM129.134 355.834C129.134 355.022 129.078 354.336 128.966 353.776C128.864 353.207 128.644 352.749 128.308 352.404C127.982 352.059 127.506 351.886 126.88 351.886C126.246 351.886 125.76 352.059 125.424 352.404C125.098 352.749 124.878 353.207 124.766 353.776C124.664 354.336 124.612 355.022 124.612 355.834C124.612 356.674 124.664 357.379 124.766 357.948C124.878 358.517 125.098 358.975 125.424 359.32C125.76 359.665 126.246 359.838 126.88 359.838C127.506 359.838 127.982 359.665 128.308 359.32C128.644 358.975 128.864 358.517 128.966 357.948C129.078 357.379 129.134 356.674 129.134 355.834ZM141.854 358.83H137.598L136.814 361H135.47L138.998 351.298H140.468L143.982 361H142.638L141.854 358.83ZM141.49 357.794L139.726 352.866L137.962 357.794H141.49ZM154.745 353.188C155.343 353.188 155.875 353.314 156.341 353.566C156.808 353.809 157.177 354.177 157.447 354.672C157.718 355.167 157.853 355.769 157.853 356.478V361H156.593V356.66C156.593 355.895 156.402 355.311 156.019 354.91C155.646 354.499 155.137 354.294 154.493 354.294C153.831 354.294 153.303 354.509 152.911 354.938C152.519 355.358 152.323 355.969 152.323 356.772V361H151.063V356.66C151.063 355.895 150.872 355.311 150.489 354.91C150.116 354.499 149.607 354.294 148.963 354.294C148.301 354.294 147.773 354.509 147.381 354.938C146.989 355.358 146.793 355.969 146.793 356.772V361H145.519V353.328H146.793V354.434C147.045 354.033 147.381 353.725 147.801 353.51C148.231 353.295 148.702 353.188 149.215 353.188C149.859 353.188 150.429 353.333 150.923 353.622C151.418 353.911 151.787 354.336 152.029 354.896C152.244 354.355 152.599 353.935 153.093 353.636C153.588 353.337 154.139 353.188 154.745 353.188Z" fill="#E3E8F3" fill-opacity="0.3"/>
<path d="M250.753 352.04V350.878H253.385V361H252.097V352.04H250.753ZM255.237 352.04V350.878H257.869V361H256.581V352.04H255.237ZM269.768 358.83H265.512L264.728 361H263.384L266.912 351.298H268.382L271.896 361H270.552L269.768 358.83ZM269.404 357.794L267.64 352.866L265.876 357.794H269.404ZM282.659 353.188C283.257 353.188 283.789 353.314 284.255 353.566C284.722 353.809 285.091 354.177 285.361 354.672C285.632 355.167 285.767 355.769 285.767 356.478V361H284.507V356.66C284.507 355.895 284.316 355.311 283.933 354.91C283.56 354.499 283.051 354.294 282.407 354.294C281.745 354.294 281.217 354.509 280.825 354.938C280.433 355.358 280.237 355.969 280.237 356.772V361H278.977V356.66C278.977 355.895 278.786 355.311 278.403 354.91C278.03 354.499 277.521 354.294 276.877 354.294C276.215 354.294 275.687 354.509 275.295 354.938C274.903 355.358 274.707 355.969 274.707 356.772V361H273.433V353.328H274.707V354.434C274.959 354.033 275.295 353.725 275.715 353.51C276.145 353.295 276.616 353.188 277.129 353.188C277.773 353.188 278.343 353.333 278.837 353.622C279.332 353.911 279.701 354.336 279.943 354.896C280.158 354.355 280.513 353.935 281.007 353.636C281.502 353.337 282.053 353.188 282.659 353.188Z" fill="#E3E8F3" fill-opacity="0.3"/>
<path d="M398.969 352.04V350.878H401.601V361H400.313V352.04H398.969ZM403.635 359.978C404.82 359.026 405.749 358.247 406.421 357.64C407.093 357.024 407.658 356.385 408.115 355.722C408.582 355.05 408.815 354.392 408.815 353.748C408.815 353.141 408.666 352.665 408.367 352.32C408.078 351.965 407.606 351.788 406.953 351.788C406.318 351.788 405.824 351.989 405.469 352.39C405.124 352.782 404.937 353.309 404.909 353.972H403.677C403.714 352.927 404.032 352.119 404.629 351.55C405.226 350.981 405.996 350.696 406.939 350.696C407.9 350.696 408.661 350.962 409.221 351.494C409.79 352.026 410.075 352.759 410.075 353.692C410.075 354.467 409.842 355.223 409.375 355.96C408.918 356.688 408.395 357.332 407.807 357.892C407.219 358.443 406.468 359.087 405.553 359.824H410.369V360.888H403.635V359.978ZM421.552 358.83H417.296L416.512 361H415.168L418.696 351.298H420.166L423.68 361H422.336L421.552 358.83ZM421.188 357.794L419.424 352.866L417.66 357.794H421.188ZM434.444 353.188C435.041 353.188 435.573 353.314 436.04 353.566C436.506 353.809 436.875 354.177 437.146 354.672C437.416 355.167 437.552 355.769 437.552 356.478V361H436.292V356.66C436.292 355.895 436.1 355.311 435.718 354.91C435.344 354.499 434.836 354.294 434.192 354.294C433.529 354.294 433.002 354.509 432.61 354.938C432.218 355.358 432.022 355.969 432.022 356.772V361H430.762V356.66C430.762 355.895 430.57 355.311 430.188 354.91C429.814 354.499 429.306 354.294 428.662 354.294C427.999 354.294 427.472 354.509 427.08 354.938C426.688 355.358 426.492 355.969 426.492 356.772V361H425.218V353.328H426.492V354.434C426.744 354.033 427.08 353.725 427.5 353.51C427.929 353.295 428.4 353.188 428.914 353.188C429.558 353.188 430.127 353.333 430.622 353.622C431.116 353.911 431.485 354.336 431.728 354.896C431.942 354.355 432.297 353.935 432.792 353.636C433.286 353.337 433.837 353.188 434.444 353.188Z" fill="#E3E8F3" fill-opacity="0.3"/>
<path d="M552.995 352.04V350.878H555.627V361H554.339V352.04H552.995ZM567.526 358.83H563.27L562.486 361H561.142L564.67 351.298H566.14L569.654 361H568.31L567.526 358.83ZM567.162 357.794L565.398 352.866L563.634 357.794H567.162ZM580.417 353.188C581.015 353.188 581.547 353.314 582.013 353.566C582.48 353.809 582.849 354.177 583.119 354.672C583.39 355.167 583.525 355.769 583.525 356.478V361H582.265V356.66C582.265 355.895 582.074 355.311 581.691 354.91C581.318 354.499 580.809 354.294 580.165 354.294C579.503 354.294 578.975 354.509 578.583 354.938C578.191 355.358 577.995 355.969 577.995 356.772V361H576.735V356.66C576.735 355.895 576.544 355.311 576.161 354.91C575.788 354.499 575.279 354.294 574.635 354.294C573.973 354.294 573.445 354.509 573.053 354.938C572.661 355.358 572.465 355.969 572.465 356.772V361H571.191V353.328H572.465V354.434C572.717 354.033 573.053 353.725 573.473 353.51C573.903 353.295 574.374 353.188 574.887 353.188C575.531 353.188 576.101 353.333 576.595 353.622C577.09 353.911 577.459 354.336 577.701 354.896C577.916 354.355 578.271 353.935 578.765 353.636C579.26 353.337 579.811 353.188 580.417 353.188Z" fill="#E3E8F3" fill-opacity="0.3"/>
<path d="M700.923 353.426C700.988 352.567 701.32 351.895 701.917 351.41C702.514 350.925 703.289 350.682 704.241 350.682C704.876 350.682 705.422 350.799 705.879 351.032C706.346 351.256 706.696 351.564 706.929 351.956C707.172 352.348 707.293 352.791 707.293 353.286C707.293 353.865 707.125 354.364 706.789 354.784C706.462 355.204 706.033 355.475 705.501 355.596V355.666C706.108 355.815 706.588 356.109 706.943 356.548C707.298 356.987 707.475 357.561 707.475 358.27C707.475 358.802 707.354 359.283 707.111 359.712C706.868 360.132 706.504 360.463 706.019 360.706C705.534 360.949 704.95 361.07 704.269 361.07C703.28 361.07 702.468 360.813 701.833 360.3C701.198 359.777 700.844 359.04 700.769 358.088H702.001C702.066 358.648 702.295 359.105 702.687 359.46C703.079 359.815 703.602 359.992 704.255 359.992C704.908 359.992 705.403 359.824 705.739 359.488C706.084 359.143 706.257 358.699 706.257 358.158C706.257 357.458 706.024 356.954 705.557 356.646C705.09 356.338 704.386 356.184 703.443 356.184H703.121V355.12H703.457C704.316 355.111 704.964 354.971 705.403 354.7C705.842 354.42 706.061 353.991 706.061 353.412C706.061 352.917 705.898 352.521 705.571 352.222C705.254 351.923 704.796 351.774 704.199 351.774C703.62 351.774 703.154 351.923 702.799 352.222C702.444 352.521 702.234 352.922 702.169 353.426H700.923ZM718.906 358.83H714.65L713.866 361H712.522L716.05 351.298H717.52L721.034 361H719.69L718.906 358.83ZM718.542 357.794L716.778 352.866L715.014 357.794H718.542ZM731.797 353.188C732.394 353.188 732.926 353.314 733.393 353.566C733.86 353.809 734.228 354.177 734.499 354.672C734.77 355.167 734.905 355.769 734.905 356.478V361H733.645V356.66C733.645 355.895 733.454 355.311 733.071 354.91C732.698 354.499 732.189 354.294 731.545 354.294C730.882 354.294 730.355 354.509 729.963 354.938C729.571 355.358 729.375 355.969 729.375 356.772V361H728.115V356.66C728.115 355.895 727.924 355.311 727.541 354.91C727.168 354.499 726.659 354.294 726.015 354.294C725.352 354.294 724.825 354.509 724.433 354.938C724.041 355.358 723.845 355.969 723.845 356.772V361H722.571V353.328H723.845V354.434C724.097 354.033 724.433 353.725 724.853 353.51C725.282 353.295 725.754 353.188 726.267 353.188C726.911 353.188 727.48 353.333 727.975 353.622C728.47 353.911 728.838 354.336 729.081 354.896C729.296 354.355 729.65 353.935 730.145 353.636C730.64 353.337 731.19 353.188 731.797 353.188Z" fill="#E3E8F3" fill-opacity="0.3"/>
<path d="M857.632 351.984H852.718V355.176C852.932 354.877 853.25 354.635 853.67 354.448C854.09 354.252 854.542 354.154 855.028 354.154C855.802 354.154 856.432 354.317 856.918 354.644C857.403 354.961 857.748 355.377 857.954 355.89C858.168 356.394 858.276 356.931 858.276 357.5C858.276 358.172 858.15 358.774 857.898 359.306C857.646 359.838 857.258 360.258 856.736 360.566C856.222 360.874 855.583 361.028 854.818 361.028C853.838 361.028 853.044 360.776 852.438 360.272C851.831 359.768 851.462 359.096 851.332 358.256H852.578C852.699 358.788 852.956 359.203 853.348 359.502C853.74 359.801 854.234 359.95 854.832 359.95C855.569 359.95 856.124 359.731 856.498 359.292C856.871 358.844 857.058 358.256 857.058 357.528C857.058 356.8 856.871 356.24 856.498 355.848C856.124 355.447 855.574 355.246 854.846 355.246C854.351 355.246 853.917 355.367 853.544 355.61C853.18 355.843 852.914 356.165 852.746 356.576H851.542V350.864H857.632V351.984ZM869.679 358.83H865.423L864.639 361H863.295L866.823 351.298H868.293L871.807 361H870.463L869.679 358.83ZM869.315 357.794L867.551 352.866L865.787 357.794H869.315ZM882.571 353.188C883.168 353.188 883.7 353.314 884.167 353.566C884.633 353.809 885.002 354.177 885.273 354.672C885.543 355.167 885.679 355.769 885.679 356.478V361H884.419V356.66C884.419 355.895 884.227 355.311 883.845 354.91C883.471 354.499 882.963 354.294 882.319 354.294C881.656 354.294 881.129 354.509 880.737 354.938C880.345 355.358 880.149 355.969 880.149 356.772V361H878.889V356.66C878.889 355.895 878.697 355.311 878.315 354.91C877.941 354.499 877.433 354.294 876.789 354.294C876.126 354.294 875.599 354.509 875.207 354.938C874.815 355.358 874.619 355.969 874.619 356.772V361H873.345V353.328H874.619V354.434C874.871 354.033 875.207 353.725 875.627 353.51C876.056 353.295 876.527 353.188 877.041 353.188C877.685 353.188 878.254 353.333 878.749 353.622C879.243 353.911 879.612 354.336 879.855 354.896C880.069 354.355 880.424 353.935 880.919 353.636C881.413 353.337 881.964 353.188 882.571 353.188Z" fill="#E3E8F3" fill-opacity="0.3"/>
<path d="M994.866 351.872L990.974 361H989.686L993.634 351.998H988.23V350.906H994.866V351.872ZM1005.99 358.83H1001.73L1000.95 361H999.605L1003.13 351.298H1004.6L1008.12 361H1006.77L1005.99 358.83ZM1005.62 357.794L1003.86 352.866L1002.1 357.794H1005.62ZM1018.88 353.188C1019.48 353.188 1020.01 353.314 1020.48 353.566C1020.94 353.809 1021.31 354.177 1021.58 354.672C1021.85 355.167 1021.99 355.769 1021.99 356.478V361H1020.73V356.66C1020.73 355.895 1020.54 355.311 1020.15 354.91C1019.78 354.499 1019.27 354.294 1018.63 354.294C1017.97 354.294 1017.44 354.509 1017.05 354.938C1016.65 355.358 1016.46 355.969 1016.46 356.772V361H1015.2V356.66C1015.2 355.895 1015.01 355.311 1014.62 354.91C1014.25 354.499 1013.74 354.294 1013.1 354.294C1012.44 354.294 1011.91 354.509 1011.52 354.938C1011.12 355.358 1010.93 355.969 1010.93 356.772V361H1009.65V353.328H1010.93V354.434C1011.18 354.033 1011.52 353.725 1011.94 353.51C1012.37 353.295 1012.84 353.188 1013.35 353.188C1013.99 353.188 1014.56 353.333 1015.06 353.622C1015.55 353.911 1015.92 354.336 1016.16 354.896C1016.38 354.355 1016.73 353.935 1017.23 353.636C1017.72 353.337 1018.27 353.188 1018.88 353.188Z" fill="#E3E8F3" fill-opacity="0.3"/>
<line x1="570.5" y1="163" x2="570.5" y2="324" stroke="#00F6FF" stroke-dasharray="4.4 4.4"/>
<g filter="url(#filter1_dd_87_1691)">
<path fill-rule="evenodd" clip-rule="evenodd" d="M573.462 146.149C571.55 148.617 568.45 148.617 566.538 146.149L562.302 140.948C561.42 139.865 560.979 139.323 560.434 138.934C559.952 138.589 559.412 138.332 558.84 138.176C558.194 138 557.496 138 556.099 138H507.229C500.543 138 498.118 137.304 495.674 135.997C493.229 134.689 491.311 132.771 490.003 130.326C488.696 127.882 488 125.457 488 118.771V69.2291C488 62.5427 488.696 60.1181 490.003 57.6737C491.311 55.2292 493.229 53.3108 495.674 52.0035C498.118 50.6962 500.543 50 507.229 50H633.771C640.457 50 642.882 50.6962 645.326 52.0035C647.771 53.3108 649.689 55.2292 650.997 57.6737C652.304 60.1181 653 62.5427 653 69.2291V118.771C653 125.457 652.304 127.882 650.997 130.326C649.689 132.771 647.771 134.689 645.326 135.997C642.882 137.304 640.457 138 633.771 138H587.703C584.909 138 583.513 138 582.221 138.352C581.077 138.664 579.997 139.177 579.032 139.867C577.944 140.647 577.062 141.729 575.297 143.895L573.462 146.149Z" fill="#26463E"/>
</g>
<g clip-path="url(#clip1_87_1691)">
<rect width="128" height="60" transform="translate(502 64)" fill="#26463E"/>
<path d="M507.329 67.03V67.77H505.429V74H504.519V67.77H502.609V67.03H507.329ZM511.169 68.42C511.582 68.42 511.955 68.51 512.289 68.69C512.622 68.8633 512.882 69.1267 513.069 69.48C513.262 69.8333 513.359 70.2633 513.359 70.77V74H512.459V70.9C512.459 70.3533 512.322 69.9367 512.049 69.65C511.775 69.3567 511.402 69.21 510.929 69.21C510.449 69.21 510.065 69.36 509.779 69.66C509.499 69.96 509.359 70.3967 509.359 70.97V74H508.449V66.6H509.359V69.3C509.539 69.02 509.785 68.8033 510.099 68.65C510.419 68.4967 510.775 68.42 511.169 68.42ZM515.315 67.63C515.142 67.63 514.995 67.57 514.875 67.45C514.755 67.33 514.695 67.1833 514.695 67.01C514.695 66.8367 514.755 66.69 514.875 66.57C514.995 66.45 515.142 66.39 515.315 66.39C515.482 66.39 515.622 66.45 515.735 66.57C515.855 66.69 515.915 66.8367 515.915 67.01C515.915 67.1833 515.855 67.33 515.735 67.45C515.622 67.57 515.482 67.63 515.315 67.63ZM515.755 68.52V74H514.845V68.52H515.755ZM519.246 74.09C518.826 74.09 518.449 74.02 518.116 73.88C517.783 73.7333 517.519 73.5333 517.326 73.28C517.133 73.02 517.026 72.7233 517.006 72.39H517.946C517.973 72.6633 518.099 72.8867 518.326 73.06C518.559 73.2333 518.863 73.32 519.236 73.32C519.583 73.32 519.856 73.2433 520.056 73.09C520.256 72.9367 520.356 72.7433 520.356 72.51C520.356 72.27 520.249 72.0933 520.036 71.98C519.823 71.86 519.493 71.7433 519.046 71.63C518.639 71.5233 518.306 71.4167 518.046 71.31C517.793 71.1967 517.573 71.0333 517.386 70.82C517.206 70.6 517.116 70.3133 517.116 69.96C517.116 69.68 517.199 69.4233 517.366 69.19C517.533 68.9567 517.769 68.7733 518.076 68.64C518.383 68.5 518.733 68.43 519.126 68.43C519.733 68.43 520.223 68.5833 520.596 68.89C520.969 69.1967 521.169 69.6167 521.196 70.15H520.286C520.266 69.8633 520.149 69.6333 519.936 69.46C519.729 69.2867 519.449 69.2 519.096 69.2C518.769 69.2 518.509 69.27 518.316 69.41C518.123 69.55 518.026 69.7333 518.026 69.96C518.026 70.14 518.083 70.29 518.196 70.41C518.316 70.5233 518.463 70.6167 518.636 70.69C518.816 70.7567 519.063 70.8333 519.376 70.92C519.769 71.0267 520.089 71.1333 520.336 71.24C520.583 71.34 520.793 71.4933 520.966 71.7C521.146 71.9067 521.239 72.1767 521.246 72.51C521.246 72.81 521.163 73.08 520.996 73.32C520.829 73.56 520.593 73.75 520.286 73.89C519.986 74.0233 519.639 74.09 519.246 74.09ZM533.957 67.03L531.937 74H530.917L529.297 68.39L527.617 74L526.607 74.01L524.657 67.03H525.627L527.147 72.94L528.827 67.03H529.847L531.447 72.92L532.977 67.03H533.957ZM539.953 71.05C539.953 71.2233 539.943 71.4067 539.923 71.6H535.543C535.576 72.14 535.759 72.5633 536.093 72.87C536.433 73.17 536.843 73.32 537.323 73.32C537.716 73.32 538.043 73.23 538.303 73.05C538.569 72.8633 538.756 72.6167 538.863 72.31H539.843C539.696 72.8367 539.403 73.2667 538.963 73.6C538.523 73.9267 537.976 74.09 537.323 74.09C536.803 74.09 536.336 73.9733 535.923 73.74C535.516 73.5067 535.196 73.1767 534.963 72.75C534.729 72.3167 534.613 71.8167 534.613 71.25C534.613 70.6833 534.726 70.1867 534.953 69.76C535.179 69.3333 535.496 69.0067 535.903 68.78C536.316 68.5467 536.789 68.43 537.323 68.43C537.843 68.43 538.303 68.5433 538.703 68.77C539.103 68.9967 539.409 69.31 539.623 69.71C539.843 70.1033 539.953 70.55 539.953 71.05ZM539.013 70.86C539.013 70.5133 538.936 70.2167 538.783 69.97C538.629 69.7167 538.419 69.5267 538.153 69.4C537.893 69.2667 537.603 69.2 537.283 69.2C536.823 69.2 536.429 69.3467 536.103 69.64C535.783 69.9333 535.599 70.34 535.553 70.86H539.013ZM546.154 71.05C546.154 71.2233 546.144 71.4067 546.124 71.6H541.744C541.777 72.14 541.96 72.5633 542.294 72.87C542.634 73.17 543.044 73.32 543.524 73.32C543.917 73.32 544.244 73.23 544.504 73.05C544.77 72.8633 544.957 72.6167 545.064 72.31H546.044C545.897 72.8367 545.604 73.2667 545.164 73.6C544.724 73.9267 544.177 74.09 543.524 74.09C543.004 74.09 542.537 73.9733 542.124 73.74C541.717 73.5067 541.397 73.1767 541.164 72.75C540.93 72.3167 540.814 71.8167 540.814 71.25C540.814 70.6833 540.927 70.1867 541.154 69.76C541.38 69.3333 541.697 69.0067 542.104 68.78C542.517 68.5467 542.99 68.43 543.524 68.43C544.044 68.43 544.504 68.5433 544.904 68.77C545.304 68.9967 545.61 69.31 545.824 69.71C546.044 70.1033 546.154 70.55 546.154 71.05ZM545.214 70.86C545.214 70.5133 545.137 70.2167 544.984 69.97C544.83 69.7167 544.62 69.5267 544.354 69.4C544.094 69.2667 543.804 69.2 543.484 69.2C543.024 69.2 542.63 69.3467 542.304 69.64C541.984 69.9333 541.8 70.34 541.754 70.86H545.214ZM550.415 74L548.265 71.58V74H547.355V66.6H548.265V70.95L550.375 68.52H551.645L549.065 71.25L551.655 74H550.415Z" fill="#EBEBF5" fill-opacity="0.6"/>
<path d="M503.329 94.986C503.827 94.59 504.055 94.4067 504.011 94.436C505.448 93.248 506.577 92.2727 507.399 91.51C508.235 90.7473 508.939 89.948 509.511 89.112C510.083 88.276 510.369 87.462 510.369 86.67C510.369 86.0687 510.229 85.5993 509.951 85.262C509.672 84.9247 509.254 84.756 508.697 84.756C508.139 84.756 507.699 84.9687 507.377 85.394C507.069 85.8047 506.915 86.3913 506.915 87.154H503.285C503.314 85.9073 503.578 84.866 504.077 84.03C504.59 83.194 505.257 82.578 506.079 82.182C506.915 81.786 507.839 81.588 508.851 81.588C510.596 81.588 511.909 82.0353 512.789 82.93C513.683 83.8247 514.131 84.9907 514.131 86.428C514.131 87.9973 513.595 89.4567 512.525 90.806C511.454 92.1407 510.09 93.446 508.433 94.722H514.373V97.78H503.329V94.986ZM515.897 94.986C516.396 94.59 516.623 94.4067 516.579 94.436C518.016 93.248 519.146 92.2727 519.967 91.51C520.803 90.7473 521.507 89.948 522.079 89.112C522.651 88.276 522.937 87.462 522.937 86.67C522.937 86.0687 522.798 85.5993 522.519 85.262C522.24 84.9247 521.822 84.756 521.265 84.756C520.708 84.756 520.268 84.9687 519.945 85.394C519.637 85.8047 519.483 86.3913 519.483 87.154H515.853C515.882 85.9073 516.146 84.866 516.645 84.03C517.158 83.194 517.826 82.578 518.647 82.182C519.483 81.786 520.407 81.588 521.419 81.588C523.164 81.588 524.477 82.0353 525.357 82.93C526.252 83.8247 526.699 84.9907 526.699 86.428C526.699 87.9973 526.164 89.4567 525.093 90.806C524.022 92.1407 522.658 93.446 521.001 94.722H526.941V97.78H515.897V94.986ZM528.597 89.75C528.597 87.2273 529.081 85.24 530.049 83.788C531.032 82.336 532.609 81.61 534.779 81.61C536.95 81.61 538.519 82.336 539.487 83.788C540.47 85.24 540.961 87.2273 540.961 89.75C540.961 92.302 540.47 94.304 539.487 95.756C538.519 97.208 536.95 97.934 534.779 97.934C532.609 97.934 531.032 97.208 530.049 95.756C529.081 94.304 528.597 92.302 528.597 89.75ZM537.265 89.75C537.265 88.2687 537.104 87.132 536.781 86.34C536.459 85.5333 535.791 85.13 534.779 85.13C533.767 85.13 533.1 85.5333 532.777 86.34C532.455 87.132 532.293 88.2687 532.293 89.75C532.293 90.7473 532.352 91.576 532.469 92.236C532.587 92.8813 532.821 93.4093 533.173 93.82C533.54 94.216 534.075 94.414 534.779 94.414C535.483 94.414 536.011 94.216 536.363 93.82C536.73 93.4093 536.972 92.8813 537.089 92.236C537.207 91.576 537.265 90.7473 537.265 89.75ZM547.371 94.524L544.929 100.838H542.531L543.807 94.524H547.371ZM549.397 86.472C549.456 84.9027 549.969 83.6927 550.937 82.842C551.905 81.9913 553.218 81.566 554.875 81.566C555.975 81.566 556.914 81.7567 557.691 82.138C558.483 82.5193 559.077 83.04 559.473 83.7C559.884 84.36 560.089 85.1007 560.089 85.922C560.089 86.89 559.847 87.682 559.363 88.298C558.879 88.8993 558.315 89.31 557.669 89.53V89.618C558.505 89.8967 559.165 90.3587 559.649 91.004C560.133 91.6493 560.375 92.478 560.375 93.49C560.375 94.3993 560.163 95.206 559.737 95.91C559.327 96.5993 558.718 97.142 557.911 97.538C557.119 97.934 556.173 98.132 555.073 98.132C553.313 98.132 551.905 97.6993 550.849 96.834C549.808 95.9687 549.258 94.6633 549.199 92.918H552.851C552.866 93.5633 553.049 94.0767 553.401 94.458C553.753 94.8247 554.267 95.008 554.941 95.008C555.513 95.008 555.953 94.8467 556.261 94.524C556.584 94.1867 556.745 93.7467 556.745 93.204C556.745 92.5 556.518 91.994 556.063 91.686C555.623 91.3633 554.912 91.202 553.929 91.202H553.225V88.144H553.929C554.677 88.144 555.279 88.0193 555.733 87.77C556.203 87.506 556.437 87.044 556.437 86.384C556.437 85.856 556.291 85.4453 555.997 85.152C555.704 84.8587 555.301 84.712 554.787 84.712C554.23 84.712 553.812 84.8807 553.533 85.218C553.269 85.5553 553.115 85.9733 553.071 86.472H549.397ZM562.674 95.14V92.104L569.626 82.16H573.828V91.884H575.632V95.14H573.828V98H570.066V95.14H562.674ZM570.33 86.296L566.634 91.884H570.33V86.296ZM577.342 94.986C577.841 94.59 578.068 94.4067 578.024 94.436C579.462 93.248 580.591 92.2727 581.412 91.51C582.248 90.7473 582.952 89.948 583.524 89.112C584.096 88.276 584.382 87.462 584.382 86.67C584.382 86.0687 584.243 85.5993 583.964 85.262C583.686 84.9247 583.268 84.756 582.71 84.756C582.153 84.756 581.713 84.9687 581.39 85.394C581.082 85.8047 580.928 86.3913 580.928 87.154H577.298C577.328 85.9073 577.592 84.866 578.09 84.03C578.604 83.194 579.271 82.578 580.092 82.182C580.928 81.786 581.852 81.588 582.864 81.588C584.61 81.588 585.922 82.0353 586.802 82.93C587.697 83.8247 588.144 84.9907 588.144 86.428C588.144 87.9973 587.609 89.4567 586.538 90.806C585.468 92.1407 584.104 93.446 582.446 94.722H588.386V97.78H577.342V94.986ZM594.465 94.524L592.023 100.838H589.625L590.901 94.524H594.465ZM595.963 85.438V81.94H602.057V98H598.141V85.438H595.963ZM604.499 94.986C604.997 94.59 605.225 94.4067 605.181 94.436C606.618 93.248 607.747 92.2727 608.569 91.51C609.405 90.7473 610.109 89.948 610.681 89.112C611.253 88.276 611.539 87.462 611.539 86.67C611.539 86.0687 611.399 85.5993 611.121 85.262C610.842 84.9247 610.424 84.756 609.867 84.756C609.309 84.756 608.869 84.9687 608.547 85.394C608.239 85.8047 608.085 86.3913 608.085 87.154H604.455C604.484 85.9073 604.748 84.866 605.247 84.03C605.76 83.194 606.427 82.578 607.249 82.182C608.085 81.786 609.009 81.588 610.021 81.588C611.766 81.588 613.079 82.0353 613.959 82.93C614.853 83.8247 615.301 84.9907 615.301 86.428C615.301 87.9973 614.765 89.4567 613.695 90.806C612.624 92.1407 611.26 93.446 609.603 94.722H615.543V97.78H604.499V94.986ZM617.331 86.472C617.39 84.9027 617.903 83.6927 618.871 82.842C619.839 81.9913 621.152 81.566 622.809 81.566C623.909 81.566 624.848 81.7567 625.625 82.138C626.417 82.5193 627.011 83.04 627.407 83.7C627.818 84.36 628.023 85.1007 628.023 85.922C628.023 86.89 627.781 87.682 627.297 88.298C626.813 88.8993 626.248 89.31 625.603 89.53V89.618C626.439 89.8967 627.099 90.3587 627.583 91.004C628.067 91.6493 628.309 92.478 628.309 93.49C628.309 94.3993 628.096 95.206 627.671 95.91C627.26 96.5993 626.652 97.142 625.845 97.538C625.053 97.934 624.107 98.132 623.007 98.132C621.247 98.132 619.839 97.6993 618.783 96.834C617.742 95.9687 617.192 94.6633 617.133 92.918H620.785C620.8 93.5633 620.983 94.0767 621.335 94.458C621.687 94.8247 622.2 95.008 622.875 95.008C623.447 95.008 623.887 94.8467 624.195 94.524C624.518 94.1867 624.679 93.7467 624.679 93.204C624.679 92.5 624.452 91.994 623.997 91.686C623.557 91.3633 622.846 91.202 621.863 91.202H621.159V88.144H621.863C622.611 88.144 623.212 88.0193 623.667 87.77C624.136 87.506 624.371 87.044 624.371 86.384C624.371 85.856 624.224 85.4453 623.931 85.152C623.638 84.8587 623.234 84.712 622.721 84.712C622.164 84.712 621.746 84.8807 621.467 85.218C621.203 85.5553 621.049 85.9733 621.005 86.472H617.331Z" fill="#E3E8F3"/>
<path d="M508.15 109.636V110.524H505.87V118H504.778V110.524H502.486V109.636H508.15ZM512.758 111.304C513.254 111.304 513.702 111.412 514.102 111.628C514.502 111.836 514.814 112.152 515.038 112.576C515.27 113 515.386 113.516 515.386 114.124V118H514.306V114.28C514.306 113.624 514.142 113.124 513.814 112.78C513.486 112.428 513.038 112.252 512.47 112.252C511.894 112.252 511.434 112.432 511.09 112.792C510.754 113.152 510.586 113.676 510.586 114.364V118H509.494V109.12H510.586V112.36C510.802 112.024 511.098 111.764 511.474 111.58C511.858 111.396 512.286 111.304 512.758 111.304ZM523.002 111.424V118H521.91V117.028C521.702 117.364 521.41 117.628 521.034 117.82C520.666 118.004 520.258 118.096 519.81 118.096C519.298 118.096 518.838 117.992 518.43 117.784C518.022 117.568 517.698 117.248 517.458 116.824C517.226 116.4 517.11 115.884 517.11 115.276V111.424H518.19V115.132C518.19 115.78 518.354 116.28 518.682 116.632C519.01 116.976 519.458 117.148 520.026 117.148C520.61 117.148 521.07 116.968 521.406 116.608C521.742 116.248 521.91 115.724 521.91 115.036V111.424H523.002Z" fill="#EBEBF5" fill-opacity="0.6"/>
</g>
<g filter="url(#filter2_dd_87_1691)">
<rect x="560" y="151" width="20" height="20" rx="10" fill="#00F6FF"/>
<rect x="562" y="153" width="16" height="16" rx="8" stroke="#11263C" stroke-width="4"/>
</g>
<defs>
<filter id="filter0_d_87_1691" x="0" y="0" width="1077" height="410" filterUnits="userSpaceOnUse" color-interpolation-filters="sRGB">
<feFlood flood-opacity="0" result="BackgroundImageFix"/>
<feColorMatrix in="SourceAlpha" type="matrix" values="0 0 0 0 0 0 0 0 0 0 0 0 0 0 0 0 0 0 127 0" result="hardAlpha"/>
<feOffset dx="1" dy="1"/>
<feGaussianBlur stdDeviation="0.5"/>
<feComposite in2="hardAlpha" operator="out"/>
<feColorMatrix type="matrix" values="0 0 0 0 0.06125 0 0 0 0 0.0969792 0 0 0 0 0.204167 0 0 0 0.4 0"/>
<feBlend mode="normal" in2="BackgroundImageFix" result="effect1_dropShadow_87_1691"/>
<feBlend mode="normal" in="SourceGraphic" in2="effect1_dropShadow_87_1691" result="shape"/>
</filter>
<filter id="filter1_dd_87_1691" x="472" y="42" width="197" height="130" filterUnits="userSpaceOnUse" color-interpolation-filters="sRGB">
<feFlood flood-opacity="0" result="BackgroundImageFix"/>
<feColorMatrix in="SourceAlpha" type="matrix" values="0 0 0 0 0 0 0 0 0 0 0 0 0 0 0 0 0 0 127 0" result="hardAlpha"/>
<feOffset dy="8"/>
<feGaussianBlur stdDeviation="8"/>
<feColorMatrix type="matrix" values="0 0 0 0 0.196487 0 0 0 0 0.196487 0 0 0 0 0.279476 0 0 0 0.06 0"/>
<feBlend mode="multiply" in2="BackgroundImageFix" result="effect1_dropShadow_87_1691"/>
<feColorMatrix in="SourceAlpha" type="matrix" values="0 0 0 0 0 0 0 0 0 0 0 0 0 0 0 0 0 0 127 0" result="hardAlpha"/>
<feOffset dy="8"/>
<feGaussianBlur stdDeviation="4"/>
<feColorMatrix type="matrix" values="0 0 0 0 0.196487 0 0 0 0 0.196487 0 0 0 0 0.279476 0 0 0 0.08 0"/>
<feBlend mode="multiply" in2="effect1_dropShadow_87_1691" result="effect2_dropShadow_87_1691"/>
<feBlend mode="normal" in="SourceGraphic" in2="effect2_dropShadow_87_1691" result="shape"/>
</filter>
<filter id="filter2_dd_87_1691" x="554.667" y="148.333" width="30.6667" height="30.6667" filterUnits="userSpaceOnUse" color-interpolation-filters="sRGB">
<feFlood flood-opacity="0" result="BackgroundImageFix"/>
<feColorMatrix in="SourceAlpha" type="matrix" values="0 0 0 0 0 0 0 0 0 0 0 0 0 0 0 0 0 0 127 0" result="hardAlpha"/>
<feOffset dy="2.66667"/>
<feGaussianBlur stdDeviation="2.66667"/>
<feColorMatrix type="matrix" values="0 0 0 0 0.196487 0 0 0 0 0.196487 0 0 0 0 0.279476 0 0 0 0.06 0"/>
<feBlend mode="multiply" in2="BackgroundImageFix" result="effect1_dropShadow_87_1691"/>
<feColorMatrix in="SourceAlpha" type="matrix" values="0 0 0 0 0 0 0 0 0 0 0 0 0 0 0 0 0 0 127 0" result="hardAlpha"/>
<feOffset dy="2.66667"/>
<feGaussianBlur stdDeviation="1.33333"/>
<feColorMatrix type="matrix" values="0 0 0 0 0.196487 0 0 0 0 0.196487 0 0 0 0 0.279476 0 0 0 0.06 0"/>
<feBlend mode="multiply" in2="effect1_dropShadow_87_1691" result="effect2_dropShadow_87_1691"/>
<feBlend mode="normal" in="SourceGraphic" in2="effect2_dropShadow_87_1691" result="shape"/>
</filter>
<linearGradient id="paint0_linear_87_1691" x1="537.5" y1="0" x2="537.5" y2="408" gradientUnits="userSpaceOnUse">
<stop stop-color="#3D3D3D" stop-opacity="0.74"/>
<stop offset="0.5" stop-color="#0C0C0C" stop-opacity="0.78"/>
</linearGradient>
<linearGradient id="paint1_linear_87_1691" x1="570.5" y1="129.559" x2="570.5" y2="405.334" gradientUnits="userSpaceOnUse">
<stop stop-color="#00F6FF" stop-opacity="0.1"/>
<stop offset="0.998978" stop-opacity="0"/>
</linearGradient>
<clipPath id="clip0_87_1691">
<rect width="62" height="28" fill="white" transform="translate(52 40)"/>
</clipPath>
<clipPath id="clip1_87_1691">
<rect width="128" height="60" fill="white" transform="translate(502 64)"/>
</clipPath>
</defs>
</svg>
