<svg width="98" height="22" viewBox="0 0 98 22" fill="none" xmlns="http://www.w3.org/2000/svg">
<path d="M10.4294 1.75623C10.609 1.20344 11.391 1.20344 11.5706 1.75623L13.3349 7.18622C13.4153 7.43344 13.6456 7.60081 13.9056 7.60081H19.615C20.1962 7.60081 20.4379 8.34458 19.9677 8.68622L15.3487 12.0421C15.1384 12.1949 15.0504 12.4658 15.1307 12.713L16.895 18.143C17.0746 18.6957 16.4419 19.1554 15.9717 18.8138L11.3527 15.4579C11.1424 15.3051 10.8576 15.3051 10.6473 15.4579L6.0283 18.8138C5.55807 19.1554 4.92538 18.6957 5.105 18.143L6.86931 12.713C6.94963 12.4657 6.86164 12.1949 6.65134 12.0421L2.03232 8.68622C1.56209 8.34458 1.80375 7.60081 2.38499 7.60081H8.09442C8.35436 7.60081 8.58473 7.43344 8.66505 7.18622L10.4294 1.75623Z" fill="#63A797"/>
<path d="M29.4294 1.75623C29.609 1.20344 30.391 1.20344 30.5706 1.75623L32.3349 7.18622C32.4153 7.43344 32.6456 7.60081 32.9056 7.60081H38.615C39.1962 7.60081 39.4379 8.34458 38.9677 8.68622L34.3487 12.0421C34.1384 12.1949 34.0504 12.4658 34.1307 12.713L35.895 18.143C36.0746 18.6957 35.4419 19.1554 34.9717 18.8138L30.3527 15.4579C30.1424 15.3051 29.8576 15.3051 29.6473 15.4579L25.0283 18.8138C24.5581 19.1554 23.9254 18.6957 24.105 18.143L25.8693 12.713C25.9496 12.4657 25.8616 12.1949 25.6513 12.0421L21.0323 8.68622C20.5621 8.34458 20.8038 7.60081 21.385 7.60081H27.0944C27.3544 7.60081 27.5847 7.43344 27.6651 7.18622L29.4294 1.75623Z" fill="#63A797"/>
<path d="M48.4294 1.75623C48.609 1.20344 49.391 1.20344 49.5706 1.75623L51.3349 7.18622C51.4153 7.43344 51.6456 7.60081 51.9056 7.60081H57.615C58.1962 7.60081 58.4379 8.34458 57.9677 8.68622L53.3487 12.0421C53.1384 12.1949 53.0504 12.4658 53.1307 12.713L54.895 18.143C55.0746 18.6957 54.4419 19.1554 53.9717 18.8138L49.3527 15.4579C49.1424 15.3051 48.8576 15.3051 48.6473 15.4579L44.0283 18.8138C43.5581 19.1554 42.9254 18.6957 43.105 18.143L44.8693 12.713C44.9496 12.4657 44.8616 12.1949 44.6513 12.0421L40.0323 8.68622C39.5621 8.34458 39.8038 7.60081 40.385 7.60081H46.0944C46.3544 7.60081 46.5847 7.43344 46.6651 7.18622L48.4294 1.75623Z" fill="#63A797"/>
<path d="M67.4294 1.75623C67.609 1.20344 68.391 1.20344 68.5706 1.75623L70.3349 7.18622C70.4153 7.43344 70.6456 7.60081 70.9056 7.60081H76.615C77.1962 7.60081 77.4379 8.34458 76.9677 8.68622L72.3487 12.0421C72.1384 12.1949 72.0504 12.4658 72.1307 12.713L73.895 18.143C74.0746 18.6957 73.4419 19.1554 72.9717 18.8138L68.3527 15.4579C68.1424 15.3051 67.8576 15.3051 67.6473 15.4579L63.0283 18.8138C62.5581 19.1554 61.9254 18.6957 62.105 18.143L63.8693 12.713C63.9496 12.4657 63.8616 12.1949 63.6513 12.0421L59.0323 8.68622C58.5621 8.34458 58.8038 7.60081 59.385 7.60081H65.0944C65.3544 7.60081 65.5847 7.43344 65.6651 7.18622L67.4294 1.75623Z" fill="#63A797"/>
<path d="M86.4294 1.75623C86.609 1.20344 87.391 1.20344 87.5706 1.75623L89.3349 7.18622C89.4153 7.43344 89.6456 7.60081 89.9056 7.60081H95.615C96.1962 7.60081 96.4379 8.34458 95.9677 8.68622L91.3487 12.0421C91.1384 12.1949 91.0504 12.4658 91.1307 12.713L92.895 18.143C93.0746 18.6957 92.4419 19.1554 91.9717 18.8138L87.3527 15.4579C87.1424 15.3051 86.8576 15.3051 86.6473 15.4579L82.0283 18.8138C81.5581 19.1554 80.9254 18.6957 81.105 18.143L82.8693 12.713C82.9496 12.4657 82.8616 12.1949 82.6513 12.0421L78.0323 8.68622C77.5621 8.34458 77.8038 7.60081 78.385 7.60081H84.0944C84.3544 7.60081 84.5847 7.43344 84.6651 7.18622L86.4294 1.75623Z" fill="#2E302F"/>
</svg>
