<svg width="691" height="463" viewBox="0 0 691 463" fill="none" xmlns="http://www.w3.org/2000/svg">
<g filter="url(#filter0_d_67_655)">
<rect width="689" height="461" rx="12" transform="matrix(-1 0 0 1 689 0)" fill="url(#paint0_linear_67_655)" shape-rendering="crispEdges"/>
</g>
<path d="M84.3207 428.202C85.5707 428.202 86.3707 427.622 86.3707 426.222V420.832H85.2907V426.132C85.2907 426.942 84.8807 427.292 84.1207 427.292C83.7907 427.292 83.5207 427.212 83.3307 427.102V427.992C83.5507 428.112 83.9207 428.202 84.3207 428.202ZM89.7729 428.212C90.6629 428.212 91.3229 427.752 91.5729 427.072H91.6329V428.122H92.6629V422.832H91.6729L91.6329 423.872H91.5729C91.3229 423.192 90.6629 422.742 89.7729 422.742C88.4829 422.742 87.6129 423.702 87.6129 425.472C87.6129 427.242 88.4829 428.212 89.7729 428.212ZM90.1329 427.362C89.2529 427.362 88.6729 426.712 88.6729 425.472C88.6729 424.222 89.2529 423.582 90.1329 423.582C91.1129 423.582 91.6229 424.362 91.6229 425.172V425.772C91.6229 426.592 91.1129 427.362 90.1329 427.362ZM94.1057 428.122H95.1257V425.232C95.1257 424.322 95.6957 423.602 96.6057 423.602C97.4457 423.602 97.8357 424.112 97.8357 425.192V428.122H98.8657V424.982C98.8657 423.362 98.0557 422.752 96.9757 422.752C96.1957 422.752 95.4957 423.132 95.1857 423.882H95.1257L95.0857 422.832H94.1057V428.122Z" fill="#AEB9E1"/>
<path d="M132.061 428.122H133.151V425.012H136.751V424.112H133.151V421.772H137.151V420.832H132.061V428.122ZM140.263 428.212C141.513 428.212 142.473 427.532 142.613 426.492H141.633C141.503 427.042 140.973 427.392 140.263 427.392C139.343 427.392 138.743 426.772 138.723 425.682H142.643C142.803 424.022 141.963 422.752 140.223 422.752C138.673 422.752 137.703 423.832 137.703 425.502C137.703 427.132 138.673 428.212 140.263 428.212ZM140.213 423.562C140.993 423.562 141.603 423.972 141.633 424.952H138.743C138.823 424.092 139.383 423.562 140.213 423.562ZM146.646 428.212C147.936 428.212 148.806 427.252 148.806 425.482C148.806 423.712 147.936 422.742 146.646 422.742C145.756 422.742 145.096 423.202 144.846 423.872H144.786V420.832H143.756V428.122H144.746L144.786 427.082H144.846C145.096 427.762 145.756 428.212 146.646 428.212ZM146.286 427.362C145.306 427.362 144.796 426.592 144.796 425.772V425.182C144.796 424.362 145.306 423.592 146.286 423.592C147.166 423.592 147.746 424.232 147.746 425.482C147.746 426.722 147.166 427.362 146.286 427.362Z" fill="#AEB9E1"/>
<path d="M181.061 428.122H182.131V424.722L182.111 421.982H182.181L184.351 428.122H185.221L187.391 421.982H187.461L187.431 424.712V428.122H188.491V420.832H186.831L184.801 426.412H184.761L182.731 420.832H181.061V428.122ZM191.9 428.212C192.79 428.212 193.45 427.752 193.7 427.072H193.76V428.122H194.79V422.832H193.8L193.76 423.872H193.7C193.45 423.192 192.79 422.742 191.9 422.742C190.61 422.742 189.74 423.702 189.74 425.472C189.74 427.242 190.61 428.212 191.9 428.212ZM192.26 427.362C191.38 427.362 190.8 426.712 190.8 425.472C190.8 424.222 191.38 423.582 192.26 423.582C193.24 423.582 193.75 424.362 193.75 425.172V425.772C193.75 426.592 193.24 427.362 192.26 427.362ZM196.233 428.122H197.253V425.102C197.303 424.232 197.833 423.742 198.773 423.742C198.893 423.742 199.013 423.742 199.093 423.752V422.782C199.003 422.772 198.903 422.762 198.783 422.762C198.083 422.762 197.483 423.092 197.253 423.772H197.203L197.153 422.832H196.233V428.122Z" fill="#AEB9E1"/>
<path d="M231.211 428.122H232.351L232.951 426.422H236.181L236.781 428.122H237.921L235.331 420.832H233.801L231.211 428.122ZM233.211 425.572L234.031 423.322L234.541 421.832H234.601L235.111 423.322L235.911 425.572H233.211ZM238.658 429.792H239.688V427.082H239.748C240.008 427.762 240.668 428.212 241.548 428.212C242.838 428.212 243.708 427.252 243.708 425.482C243.708 423.712 242.838 422.742 241.548 422.742C240.668 422.742 240.008 423.202 239.748 423.872H239.688L239.648 422.832H238.658V429.792ZM241.188 427.362C240.208 427.362 239.698 426.592 239.698 425.772V425.182C239.698 424.362 240.208 423.592 241.188 423.592C242.068 423.592 242.658 424.232 242.658 425.482C242.658 426.722 242.068 427.362 241.188 427.362ZM244.801 428.122H245.821V425.102C245.871 424.232 246.401 423.742 247.341 423.742C247.461 423.742 247.581 423.742 247.661 423.752V422.782C247.571 422.772 247.471 422.762 247.351 422.762C246.651 422.762 246.051 423.092 245.821 423.772H245.771L245.721 422.832H244.801V428.122Z" fill="#AEB9E1"/>
<path d="M280.061 428.122H281.131V424.722L281.111 421.982H281.181L283.351 428.122H284.221L286.391 421.982H286.461L286.431 424.712V428.122H287.491V420.832H285.831L283.801 426.412H283.761L281.731 420.832H280.061V428.122ZM290.9 428.212C291.79 428.212 292.45 427.752 292.7 427.072H292.76V428.122H293.79V422.832H292.8L292.76 423.872H292.7C292.45 423.192 291.79 422.742 290.9 422.742C289.61 422.742 288.74 423.702 288.74 425.472C288.74 427.242 289.61 428.212 290.9 428.212ZM291.26 427.362C290.38 427.362 289.8 426.712 289.8 425.472C289.8 424.222 290.38 423.582 291.26 423.582C292.24 423.582 292.75 424.362 292.75 425.172V425.772C292.75 426.592 292.24 427.362 291.26 427.362ZM294.883 429.792H295.623C296.453 429.792 296.983 429.502 297.323 428.582L299.523 422.832H298.433L297.293 426.052L297.083 426.682H297.043L296.823 426.052L295.613 422.832H294.483L296.563 427.742L296.333 428.332C296.163 428.752 295.923 428.942 295.453 428.942H294.883V429.792Z" fill="#AEB9E1"/>
<path d="M332.321 428.202C333.571 428.202 334.371 427.622 334.371 426.222V420.832H333.291V426.132C333.291 426.942 332.881 427.292 332.121 427.292C331.791 427.292 331.521 427.212 331.331 427.102V427.992C331.551 428.112 331.921 428.202 332.321 428.202ZM337.823 428.212C338.643 428.212 339.333 427.782 339.593 427.052H339.653L339.703 428.122H340.683V422.832H339.653V425.692C339.653 426.662 339.073 427.352 338.203 427.352C337.313 427.352 336.953 426.812 336.953 425.832V422.832H335.923V426.092C335.923 427.492 336.623 428.212 337.823 428.212ZM342.076 428.122H343.096V425.232C343.096 424.322 343.666 423.602 344.576 423.602C345.416 423.602 345.806 424.112 345.806 425.192V428.122H346.836V424.982C346.836 423.362 346.026 422.752 344.946 422.752C344.166 422.752 343.466 423.132 343.156 423.882H343.096L343.056 422.832H342.076V428.122Z" fill="#AEB9E1"/>
<path d="M380.321 428.202C381.571 428.202 382.371 427.622 382.371 426.222V420.832H381.291V426.132C381.291 426.942 380.881 427.292 380.121 427.292C379.791 427.292 379.521 427.212 379.331 427.102V427.992C379.551 428.112 379.921 428.202 380.321 428.202ZM385.823 428.212C386.643 428.212 387.333 427.782 387.593 427.052H387.653L387.703 428.122H388.683V422.832H387.653V425.692C387.653 426.662 387.073 427.352 386.203 427.352C385.313 427.352 384.953 426.812 384.953 425.832V422.832H383.923V426.092C383.923 427.492 384.623 428.212 385.823 428.212ZM390.076 428.122H391.106V420.832H390.076V428.122Z" fill="#AEB9E1"/>
<path d="M423.211 428.122H424.351L424.951 426.422H428.181L428.781 428.122H429.921L427.331 420.832H425.801L423.211 428.122ZM425.211 425.572L426.031 423.322L426.541 421.832H426.601L427.111 423.322L427.911 425.572H425.211ZM432.313 428.212C433.133 428.212 433.823 427.782 434.083 427.052H434.143L434.193 428.122H435.173V422.832H434.143V425.692C434.143 426.662 433.563 427.352 432.693 427.352C431.803 427.352 431.443 426.812 431.443 425.832V422.832H430.413V426.092C430.413 427.492 431.113 428.212 432.313 428.212ZM438.618 429.892C440.108 429.892 441.118 429.292 441.118 427.632V422.832H440.118L440.098 423.812H440.028C439.788 423.172 439.148 422.742 438.308 422.742C437.028 422.742 436.168 423.662 436.168 425.282C436.168 426.892 437.008 427.812 438.298 427.812C439.138 427.812 439.788 427.382 440.028 426.742H440.098V427.772C440.098 428.752 439.588 429.132 438.638 429.132C437.968 429.132 437.508 428.842 437.428 428.372H436.428C436.538 429.312 437.348 429.892 438.618 429.892ZM438.648 427.012C437.788 427.012 437.228 426.402 437.228 425.282C437.228 424.182 437.778 423.552 438.658 423.552C439.588 423.552 440.078 424.262 440.088 424.952L440.098 425.592C440.078 426.292 439.568 427.012 438.648 427.012Z" fill="#AEB9E1"/>
<path d="M476.501 428.212C478.361 428.212 479.351 427.362 479.351 426.112C479.351 424.432 478.141 424.112 476.851 423.902C475.451 423.652 474.901 423.492 474.901 422.682C474.901 422.022 475.451 421.592 476.411 421.592C477.351 421.592 477.981 422.012 478.011 422.882H479.121C479.101 421.602 478.121 420.752 476.451 420.752C474.781 420.752 473.771 421.552 473.771 422.832C473.771 424.082 474.631 424.572 476.301 424.862C477.731 425.102 478.221 425.342 478.221 426.212C478.221 426.982 477.541 427.352 476.521 427.352C475.281 427.352 474.741 426.772 474.721 425.842H473.601C473.621 427.242 474.561 428.212 476.501 428.212ZM482.712 428.212C483.962 428.212 484.922 427.532 485.062 426.492H484.082C483.952 427.042 483.422 427.392 482.712 427.392C481.792 427.392 481.192 426.772 481.172 425.682H485.092C485.252 424.022 484.412 422.752 482.672 422.752C481.122 422.752 480.152 423.832 480.152 425.502C480.152 427.132 481.122 428.212 482.712 428.212ZM482.662 423.562C483.442 423.562 484.052 423.972 484.082 424.952H481.192C481.272 424.092 481.832 423.562 482.662 423.562ZM486.205 429.792H487.235V427.082H487.295C487.555 427.762 488.215 428.212 489.095 428.212C490.385 428.212 491.255 427.252 491.255 425.482C491.255 423.712 490.385 422.742 489.095 422.742C488.215 422.742 487.555 423.202 487.295 423.872H487.235L487.195 422.832H486.205V429.792ZM488.735 427.362C487.755 427.362 487.245 426.592 487.245 425.772V425.182C487.245 424.362 487.755 423.592 488.735 423.592C489.615 423.592 490.205 424.232 490.205 425.482C490.205 426.722 489.615 427.362 488.735 427.362Z" fill="#AEB9E1"/>
<path d="M527.171 428.212C529.331 428.212 530.771 426.802 530.771 424.482C530.771 422.162 529.341 420.752 527.171 420.752C525.011 420.752 523.581 422.162 523.581 424.482C523.581 426.792 525.001 428.212 527.171 428.212ZM527.171 427.272C525.661 427.272 524.701 426.252 524.701 424.482C524.701 422.712 525.651 421.692 527.171 421.692C528.691 421.692 529.651 422.712 529.651 424.482C529.651 426.242 528.691 427.272 527.171 427.272ZM534.167 428.212C535.487 428.212 536.447 427.432 536.527 426.232H535.527C535.447 426.902 534.937 427.352 534.167 427.352C533.247 427.352 532.647 426.682 532.647 425.492C532.647 424.362 533.197 423.612 534.177 423.612C534.857 423.612 535.387 423.972 535.507 424.662H536.507C536.427 423.522 535.487 422.752 534.207 422.752C532.617 422.752 531.597 423.842 531.597 425.482C531.597 427.122 532.617 428.212 534.167 428.212ZM539.083 428.122H540.143V427.272H539.423C539.093 427.272 538.973 427.182 538.973 426.832V423.672H540.143V422.832H538.973V421.182L537.943 421.302V422.832H536.943V423.672H537.943V427.022C537.943 427.732 538.213 428.122 539.083 428.122Z" fill="#AEB9E1"/>
<path d="M573.061 428.122H574.171V424.622L574.131 422.352H574.191L577.961 428.122H579.241V420.832H578.181V424.232L578.241 426.672H578.171L574.401 420.832H573.061V428.122ZM583.07 428.212C584.66 428.212 585.65 427.102 585.65 425.482C585.65 423.802 584.61 422.752 583.07 422.752C581.47 422.752 580.48 423.862 580.48 425.492C580.48 427.152 581.52 428.212 583.07 428.212ZM583.07 427.352C582.13 427.352 581.53 426.672 581.53 425.492C581.53 424.272 582.15 423.602 583.07 423.602C584.02 423.602 584.6 424.292 584.6 425.482C584.6 426.682 583.99 427.352 583.07 427.352ZM587.762 428.122H589.022L590.902 422.832H589.792L588.732 426.092L588.412 427.232H588.372L588.032 426.092L586.972 422.832H585.862L587.762 428.122Z" fill="#AEB9E1"/>
<path d="M623.061 428.122H626.011C628.111 428.122 629.311 426.672 629.311 424.482C629.311 422.292 628.111 420.832 626.011 420.832H623.061V428.122ZM624.151 427.182V421.772H625.851C627.251 421.772 628.191 422.612 628.191 424.462C628.191 426.312 627.261 427.182 625.851 427.182H624.151ZM632.698 428.212C633.948 428.212 634.908 427.532 635.048 426.492H634.068C633.938 427.042 633.408 427.392 632.698 427.392C631.778 427.392 631.178 426.772 631.158 425.682H635.078C635.238 424.022 634.398 422.752 632.658 422.752C631.108 422.752 630.138 423.832 630.138 425.502C630.138 427.132 631.108 428.212 632.698 428.212ZM632.648 423.562C633.428 423.562 634.038 423.972 634.068 424.952H631.178C631.258 424.092 631.818 423.562 632.648 423.562ZM638.499 428.212C639.819 428.212 640.779 427.432 640.859 426.232H639.859C639.779 426.902 639.269 427.352 638.499 427.352C637.579 427.352 636.979 426.682 636.979 425.492C636.979 424.362 637.529 423.612 638.509 423.612C639.189 423.612 639.719 423.972 639.839 424.662H640.839C640.759 423.522 639.819 422.752 638.539 422.752C636.949 422.752 635.929 423.842 635.929 425.482C635.929 427.122 636.949 428.212 638.499 428.212Z" fill="#AEB9E1"/>
<path d="M33.115 29.9996C34.3097 29.9996 35.2483 30.2876 35.931 30.8636C36.6137 31.4396 36.955 32.2129 36.955 33.1836C36.955 34.2182 36.6137 35.0129 35.931 35.5676C35.2483 36.1116 34.315 36.3836 33.131 36.3836L32.907 36.5116H30.635V40.5596H28.459V29.9996H33.115ZM32.859 34.8316C33.4777 34.8316 33.9363 34.7089 34.235 34.4636C34.5443 34.2076 34.699 33.8182 34.699 33.2956C34.699 32.7729 34.5443 32.3889 34.235 32.1436C33.9363 31.8876 33.4777 31.7596 32.859 31.7596H30.635V34.8316H32.859ZM34.155 35.2956L37.579 40.5596H35.099L32.267 35.9356L34.155 35.2956ZM42.6658 40.7196C41.8231 40.7196 41.0871 40.5542 40.4578 40.2236C39.8391 39.8929 39.3591 39.4182 39.0178 38.7996C38.6764 38.1809 38.5058 37.4342 38.5058 36.5596C38.5058 35.6849 38.6764 34.9382 39.0178 34.3196C39.3591 33.7009 39.8338 33.2262 40.4418 32.8956C41.0604 32.5649 41.7644 32.3996 42.5538 32.3996C43.3644 32.3996 44.0524 32.5649 44.6178 32.8956C45.1831 33.2156 45.6151 33.6582 45.9138 34.2236C46.2124 34.7782 46.3618 35.4129 46.3618 36.1276C46.3618 36.3409 46.3564 36.5436 46.3458 36.7356C46.3351 36.9276 46.3191 37.0982 46.2978 37.2476H39.9138V35.7276H45.3378L44.2818 36.1116C44.2818 35.4396 44.1271 34.9222 43.8178 34.5596C43.5191 34.1969 43.0924 34.0156 42.5378 34.0156C42.1324 34.0156 41.7804 34.1116 41.4818 34.3036C41.1938 34.4956 40.9751 34.7836 40.8258 35.1676C40.6764 35.5409 40.6018 36.0156 40.6018 36.5916C40.6018 37.1569 40.6818 37.6262 40.8418 37.9996C41.0124 38.3622 41.2471 38.6342 41.5458 38.8156C41.8551 38.9969 42.2231 39.0876 42.6498 39.0876C43.1191 39.0876 43.4978 38.9969 43.7858 38.8156C44.0738 38.6342 44.2978 38.3836 44.4578 38.0636L46.2018 38.7356C46.0311 39.1516 45.7698 39.5089 45.4178 39.8076C45.0764 40.1062 44.6658 40.3356 44.1858 40.4956C43.7164 40.6449 43.2098 40.7196 42.6658 40.7196ZM53.2174 32.5596H55.4894L52.4494 40.5596H49.9214L46.8814 32.5596H49.2174L51.2014 38.8796L53.2174 32.5596ZM60.322 40.7196C59.4793 40.7196 58.7433 40.5542 58.114 40.2236C57.4953 39.8929 57.0153 39.4182 56.674 38.7996C56.3327 38.1809 56.162 37.4342 56.162 36.5596C56.162 35.6849 56.3327 34.9382 56.674 34.3196C57.0153 33.7009 57.49 33.2262 58.098 32.8956C58.7167 32.5649 59.4207 32.3996 60.21 32.3996C61.0207 32.3996 61.7087 32.5649 62.274 32.8956C62.8393 33.2156 63.2713 33.6582 63.57 34.2236C63.8687 34.7782 64.018 35.4129 64.018 36.1276C64.018 36.3409 64.0127 36.5436 64.002 36.7356C63.9913 36.9276 63.9753 37.0982 63.954 37.2476H57.57V35.7276H62.994L61.938 36.1116C61.938 35.4396 61.7833 34.9222 61.474 34.5596C61.1753 34.1969 60.7487 34.0156 60.194 34.0156C59.7887 34.0156 59.4367 34.1116 59.138 34.3036C58.85 34.4956 58.6313 34.7836 58.482 35.1676C58.3327 35.5409 58.258 36.0156 58.258 36.5916C58.258 37.1569 58.338 37.6262 58.498 37.9996C58.6687 38.3622 58.9033 38.6342 59.202 38.8156C59.5113 38.9969 59.8793 39.0876 60.306 39.0876C60.7753 39.0876 61.154 38.9969 61.442 38.8156C61.73 38.6342 61.954 38.3836 62.114 38.0636L63.858 38.7356C63.6873 39.1516 63.426 39.5089 63.074 39.8076C62.7327 40.1062 62.322 40.3356 61.842 40.4956C61.3727 40.6449 60.866 40.7196 60.322 40.7196ZM65.8756 40.5596V32.5596H67.8436L67.9716 34.9596L67.6996 34.7036C67.8276 34.1809 68.0303 33.7489 68.3076 33.4076C68.585 33.0662 68.921 32.8156 69.3156 32.6556C69.721 32.4849 70.1636 32.3996 70.6436 32.3996C71.1983 32.3996 71.689 32.5062 72.1156 32.7196C72.553 32.9329 72.8943 33.2582 73.1396 33.6956C73.3956 34.1222 73.5236 34.6609 73.5236 35.3116V40.5596H71.3316V35.9356C71.3316 35.2529 71.1983 34.7836 70.9316 34.5276C70.665 34.2609 70.3183 34.1276 69.8916 34.1276C69.593 34.1276 69.2996 34.2022 69.0116 34.3516C68.7343 34.4902 68.505 34.7196 68.3236 35.0396C68.153 35.3596 68.0676 35.7862 68.0676 36.3196V40.5596H65.8756ZM78.5659 40.7196C78.0325 40.7196 77.5525 40.6236 77.1259 40.4316C76.6992 40.2396 76.3579 39.9356 76.1019 39.5196C75.8565 39.0929 75.7339 38.5436 75.7339 37.8716V32.5596H77.9259V37.3436C77.9259 37.9622 78.0539 38.3942 78.3099 38.6396C78.5659 38.8742 78.9339 38.9916 79.4139 38.9916C79.6379 38.9916 79.8565 38.9542 80.0699 38.8796C80.2832 38.7942 80.4699 38.6662 80.6299 38.4956C80.8005 38.3249 80.9339 38.1062 81.0299 37.8396C81.1259 37.5622 81.1739 37.2369 81.1739 36.8636V32.5596H83.3659V40.5596H81.4139L81.3339 39.1676C81.0672 39.7009 80.6992 40.0956 80.2299 40.3516C79.7712 40.5969 79.2165 40.7196 78.5659 40.7196ZM89.3845 40.7196C88.5418 40.7196 87.8058 40.5542 87.1765 40.2236C86.5578 39.8929 86.0778 39.4182 85.7365 38.7996C85.3952 38.1809 85.2245 37.4342 85.2245 36.5596C85.2245 35.6849 85.3952 34.9382 85.7365 34.3196C86.0778 33.7009 86.5525 33.2262 87.1605 32.8956C87.7792 32.5649 88.4832 32.3996 89.2725 32.3996C90.0832 32.3996 90.7712 32.5649 91.3365 32.8956C91.9018 33.2156 92.3338 33.6582 92.6325 34.2236C92.9312 34.7782 93.0805 35.4129 93.0805 36.1276C93.0805 36.3409 93.0752 36.5436 93.0645 36.7356C93.0538 36.9276 93.0378 37.0982 93.0165 37.2476H86.6325V35.7276H92.0565L91.0005 36.1116C91.0005 35.4396 90.8458 34.9222 90.5365 34.5596C90.2378 34.1969 89.8112 34.0156 89.2565 34.0156C88.8512 34.0156 88.4992 34.1116 88.2005 34.3036C87.9125 34.4956 87.6938 34.7836 87.5445 35.1676C87.3952 35.5409 87.3205 36.0156 87.3205 36.5916C87.3205 37.1569 87.4005 37.6262 87.5605 37.9996C87.7312 38.3622 87.9658 38.6342 88.2645 38.8156C88.5738 38.9969 88.9418 39.0876 89.3685 39.0876C89.8378 39.0876 90.2165 38.9969 90.5045 38.8156C90.7925 38.6342 91.0165 38.3836 91.1765 38.0636L92.9205 38.7356C92.7498 39.1516 92.4885 39.5089 92.1365 39.8076C91.7952 40.1062 91.3845 40.3356 90.9045 40.4956C90.4352 40.6449 89.9285 40.7196 89.3845 40.7196ZM104.533 40.7196C104.042 40.7196 103.594 40.6182 103.189 40.4156C102.794 40.2022 102.463 39.9142 102.197 39.5516C101.941 39.1782 101.765 38.7622 101.669 38.3036L101.893 38.0156L101.765 40.5596H99.8288V29.0556H102.021V34.8156L101.813 34.4796C101.983 33.8822 102.309 33.3862 102.789 32.9916C103.269 32.5969 103.871 32.3996 104.597 32.3996C105.226 32.3996 105.797 32.5649 106.309 32.8956C106.821 33.2262 107.221 33.7009 107.509 34.3196C107.807 34.9382 107.957 35.6902 107.957 36.5756C107.957 37.4396 107.807 38.1809 107.509 38.7996C107.221 39.4182 106.815 39.8929 106.293 40.2236C105.781 40.5542 105.194 40.7196 104.533 40.7196ZM103.877 39.0396C104.463 39.0396 104.922 38.8316 105.253 38.4156C105.594 37.9889 105.765 37.3702 105.765 36.5596C105.765 35.7489 105.599 35.1356 105.269 34.7196C104.938 34.2929 104.479 34.0796 103.893 34.0796C103.509 34.0796 103.178 34.1809 102.901 34.3836C102.623 34.5862 102.405 34.8742 102.245 35.2476C102.095 35.6209 102.021 36.0636 102.021 36.5756C102.021 37.0982 102.095 37.5462 102.245 37.9196C102.405 38.2822 102.623 38.5596 102.901 38.7516C103.189 38.9436 103.514 39.0396 103.877 39.0396ZM117.021 32.5596L113.789 41.0556C113.533 41.7809 113.245 42.3569 112.925 42.7836C112.615 43.2102 112.253 43.5196 111.837 43.7116C111.431 43.9036 110.946 43.9996 110.381 43.9996C109.965 43.9996 109.581 43.9462 109.229 43.8396C108.887 43.7436 108.589 43.6156 108.333 43.4556L108.797 41.8716C108.999 42.0316 109.213 42.1436 109.437 42.2076C109.661 42.2822 109.917 42.3196 110.205 42.3196C110.503 42.3196 110.759 42.2556 110.973 42.1276C111.197 41.9996 111.383 41.7436 111.533 41.3596L111.805 40.6716L110.925 38.5916L108.477 32.5596H110.909L112.429 37.3596L112.845 38.9596L113.341 37.2636L114.797 32.5596H117.021ZM126.383 32.3996C127.097 32.3996 127.7 32.5062 128.191 32.7196C128.692 32.9222 129.092 33.2049 129.391 33.5676C129.7 33.9196 129.919 34.3142 130.047 34.7516L127.999 35.4876C127.892 35.0076 127.711 34.6449 127.455 34.3996C127.199 34.1542 126.852 34.0316 126.415 34.0316C126.009 34.0316 125.663 34.1276 125.375 34.3196C125.087 34.5009 124.868 34.7836 124.719 35.1676C124.569 35.5409 124.495 36.0102 124.495 36.5756C124.495 37.1409 124.569 37.6102 124.719 37.9836C124.879 38.3569 125.103 38.6342 125.391 38.8156C125.689 38.9969 126.036 39.0876 126.431 39.0876C126.751 39.0876 127.023 39.0342 127.247 38.9276C127.471 38.8102 127.652 38.6449 127.791 38.4316C127.94 38.2182 128.041 37.9622 128.095 37.6636L130.079 38.3036C129.961 38.7836 129.743 39.2049 129.423 39.5676C129.103 39.9302 128.692 40.2129 128.191 40.4156C127.689 40.6182 127.108 40.7196 126.447 40.7196C125.625 40.7196 124.9 40.5542 124.271 40.2236C123.641 39.8929 123.156 39.4182 122.815 38.7996C122.473 38.1809 122.303 37.4342 122.303 36.5596C122.303 35.6849 122.473 34.9382 122.815 34.3196C123.156 33.7009 123.636 33.2262 124.255 32.8956C124.873 32.5649 125.583 32.3996 126.383 32.3996ZM134.566 40.7196C134.033 40.7196 133.553 40.6236 133.126 40.4316C132.699 40.2396 132.358 39.9356 132.102 39.5196C131.857 39.0929 131.734 38.5436 131.734 37.8716V32.5596H133.926V37.3436C133.926 37.9622 134.054 38.3942 134.31 38.6396C134.566 38.8742 134.934 38.9916 135.414 38.9916C135.638 38.9916 135.857 38.9542 136.07 38.8796C136.283 38.7942 136.47 38.6662 136.63 38.4956C136.801 38.3249 136.934 38.1062 137.03 37.8396C137.126 37.5622 137.174 37.2369 137.174 36.8636V32.5596H139.366V40.5596H137.414L137.334 39.1676C137.067 39.7009 136.699 40.0956 136.23 40.3516C135.771 40.5969 135.217 40.7196 134.566 40.7196ZM144.873 40.7196C144.062 40.7196 143.321 40.5756 142.649 40.2876C141.987 39.9996 141.449 39.5942 141.033 39.0716L142.297 37.7916C142.553 38.1756 142.894 38.4902 143.321 38.7356C143.747 38.9809 144.254 39.1036 144.841 39.1036C145.257 39.1036 145.587 39.0449 145.833 38.9276C146.089 38.7996 146.217 38.6022 146.217 38.3356C146.217 38.1649 146.158 38.0209 146.041 37.9036C145.923 37.7756 145.689 37.6742 145.337 37.5996L143.929 37.3116C143.001 37.1196 142.339 36.8316 141.945 36.4476C141.561 36.0529 141.369 35.5462 141.369 34.9276C141.369 34.4902 141.497 34.0796 141.753 33.6956C142.019 33.3116 142.414 33.0022 142.937 32.7676C143.459 32.5222 144.11 32.3996 144.889 32.3996C145.689 32.3996 146.382 32.5276 146.969 32.7836C147.566 33.0289 148.035 33.3969 148.377 33.8876L147.065 35.1676C146.83 34.7942 146.521 34.5116 146.137 34.3196C145.763 34.1169 145.369 34.0156 144.953 34.0156C144.654 34.0156 144.398 34.0476 144.185 34.1116C143.971 34.1756 143.811 34.2662 143.705 34.3836C143.598 34.4902 143.545 34.6289 143.545 34.7996C143.545 34.9702 143.619 35.1196 143.769 35.2476C143.918 35.3649 144.19 35.4662 144.585 35.5516L146.217 35.8876C147.006 36.0476 147.571 36.3196 147.913 36.7036C148.254 37.0769 148.425 37.5302 148.425 38.0636C148.425 38.5756 148.286 39.0342 148.009 39.4396C147.742 39.8342 147.342 40.1489 146.809 40.3836C146.286 40.6076 145.641 40.7196 144.873 40.7196ZM153.005 30.1116V37.9516C153.005 38.3356 153.101 38.6182 153.293 38.7996C153.495 38.9702 153.767 39.0556 154.109 39.0556C154.375 39.0556 154.61 39.0182 154.813 38.9436C155.015 38.8582 155.197 38.7462 155.357 38.6076L155.709 40.0636C155.453 40.2662 155.133 40.4262 154.749 40.5436C154.365 40.6609 153.959 40.7196 153.533 40.7196C152.999 40.7196 152.525 40.6396 152.109 40.4796C151.703 40.3196 151.383 40.0636 151.149 39.7116C150.925 39.3596 150.813 38.8902 150.813 38.3036V30.7196L153.005 30.1116ZM155.565 32.5596V34.1916H149.341V32.5596H155.565ZM160.696 32.3996C161.506 32.3996 162.216 32.5649 162.824 32.8956C163.442 33.2262 163.922 33.7009 164.264 34.3196C164.616 34.9382 164.792 35.6849 164.792 36.5596C164.792 37.4236 164.616 38.1702 164.264 38.7996C163.922 39.4182 163.442 39.8929 162.824 40.2236C162.216 40.5542 161.506 40.7196 160.696 40.7196C159.896 40.7196 159.186 40.5542 158.568 40.2236C157.949 39.8929 157.464 39.4182 157.112 38.7996C156.77 38.1702 156.6 37.4236 156.6 36.5596C156.6 35.6849 156.77 34.9382 157.112 34.3196C157.464 33.7009 157.949 33.2262 158.568 32.8956C159.186 32.5649 159.896 32.3996 160.696 32.3996ZM160.696 34.0316C160.29 34.0316 159.944 34.1276 159.656 34.3196C159.378 34.5009 159.165 34.7782 159.016 35.1516C158.866 35.5249 158.792 35.9942 158.792 36.5596C158.792 37.1249 158.866 37.5942 159.016 37.9676C159.165 38.3409 159.378 38.6236 159.656 38.8156C159.944 38.9969 160.29 39.0876 160.696 39.0876C161.09 39.0876 161.426 38.9969 161.704 38.8156C161.992 38.6236 162.21 38.3409 162.36 37.9676C162.509 37.5942 162.584 37.1249 162.584 36.5596C162.584 35.9942 162.509 35.5249 162.36 35.1516C162.21 34.7782 161.992 34.5009 161.704 34.3196C161.426 34.1276 161.09 34.0316 160.696 34.0316ZM166.626 40.5596V32.5596H168.594L168.674 33.9996C168.94 33.4662 169.303 33.0662 169.762 32.7996C170.231 32.5329 170.748 32.3996 171.314 32.3996C171.89 32.3996 172.407 32.5329 172.866 32.7996C173.335 33.0662 173.687 33.4609 173.922 33.9836C174.092 33.6316 174.322 33.3382 174.61 33.1036C174.898 32.8689 175.218 32.6929 175.57 32.5756C175.922 32.4582 176.279 32.3996 176.642 32.3996C177.164 32.3996 177.639 32.5062 178.066 32.7196C178.503 32.9329 178.85 33.2529 179.106 33.6796C179.362 34.1062 179.49 34.6502 179.49 35.3116V40.5596H177.298V35.7436C177.298 35.1569 177.17 34.7409 176.914 34.4956C176.658 34.2502 176.327 34.1276 175.922 34.1276C175.602 34.1276 175.303 34.2076 175.026 34.3676C174.759 34.5276 174.546 34.7676 174.386 35.0876C174.236 35.3969 174.162 35.7862 174.162 36.2556V40.5596H171.97V35.7436C171.97 35.1569 171.836 34.7409 171.57 34.4956C171.314 34.2502 170.983 34.1276 170.578 34.1276C170.3 34.1276 170.023 34.2022 169.746 34.3516C169.479 34.5009 169.255 34.7356 169.074 35.0556C168.903 35.3756 168.818 35.7969 168.818 36.3196V40.5596H166.626ZM185.463 40.7196C184.62 40.7196 183.884 40.5542 183.255 40.2236C182.636 39.8929 182.156 39.4182 181.815 38.7996C181.473 38.1809 181.303 37.4342 181.303 36.5596C181.303 35.6849 181.473 34.9382 181.815 34.3196C182.156 33.7009 182.631 33.2262 183.239 32.8956C183.857 32.5649 184.561 32.3996 185.351 32.3996C186.161 32.3996 186.849 32.5649 187.415 32.8956C187.98 33.2156 188.412 33.6582 188.711 34.2236C189.009 34.7782 189.159 35.4129 189.159 36.1276C189.159 36.3409 189.153 36.5436 189.143 36.7356C189.132 36.9276 189.116 37.0982 189.095 37.2476H182.711V35.7276H188.135L187.079 36.1116C187.079 35.4396 186.924 34.9222 186.615 34.5596C186.316 34.1969 185.889 34.0156 185.335 34.0156C184.929 34.0156 184.577 34.1116 184.279 34.3036C183.991 34.4956 183.772 34.7836 183.623 35.1676C183.473 35.5409 183.399 36.0156 183.399 36.5916C183.399 37.1569 183.479 37.6262 183.639 37.9996C183.809 38.3622 184.044 38.6342 184.343 38.8156C184.652 38.9969 185.02 39.0876 185.447 39.0876C185.916 39.0876 186.295 38.9969 186.583 38.8156C186.871 38.6342 187.095 38.3836 187.255 38.0636L188.999 38.7356C188.828 39.1516 188.567 39.5089 188.215 39.8076C187.873 40.1062 187.463 40.3356 186.983 40.4956C186.513 40.6449 186.007 40.7196 185.463 40.7196ZM191.016 40.5596V32.5596H192.92L193.064 34.1276C193.278 33.5729 193.587 33.1462 193.992 32.8476C194.408 32.5489 194.926 32.3996 195.544 32.3996C195.726 32.3996 195.891 32.4156 196.04 32.4476C196.19 32.4796 196.312 32.5222 196.408 32.5756L196.152 34.4156C196.046 34.3729 195.912 34.3409 195.752 34.3196C195.603 34.2982 195.406 34.2876 195.16 34.2876C194.84 34.2876 194.531 34.3676 194.232 34.5276C193.934 34.6769 193.688 34.9116 193.496 35.2316C193.304 35.5409 193.208 35.9356 193.208 36.4156V40.5596H191.016ZM205.005 30.1116V37.9516C205.005 38.3356 205.101 38.6182 205.293 38.7996C205.495 38.9702 205.767 39.0556 206.109 39.0556C206.375 39.0556 206.61 39.0182 206.813 38.9436C207.015 38.8582 207.197 38.7462 207.357 38.6076L207.709 40.0636C207.453 40.2662 207.133 40.4262 206.749 40.5436C206.365 40.6609 205.959 40.7196 205.533 40.7196C204.999 40.7196 204.525 40.6396 204.109 40.4796C203.703 40.3196 203.383 40.0636 203.149 39.7116C202.925 39.3596 202.813 38.8902 202.813 38.3036V30.7196L205.005 30.1116ZM207.565 32.5596V34.1916H201.341V32.5596H207.565ZM216.568 32.5596L213.336 41.0556C213.08 41.7809 212.792 42.3569 212.472 42.7836C212.162 43.2102 211.8 43.5196 211.384 43.7116C210.978 43.9036 210.493 43.9996 209.928 43.9996C209.512 43.9996 209.128 43.9462 208.776 43.8396C208.434 43.7436 208.136 43.6156 207.88 43.4556L208.344 41.8716C208.546 42.0316 208.76 42.1436 208.984 42.2076C209.208 42.2822 209.464 42.3196 209.752 42.3196C210.05 42.3196 210.306 42.2556 210.52 42.1276C210.744 41.9996 210.93 41.7436 211.08 41.3596L211.352 40.6716L210.472 38.5916L208.024 32.5596H210.456L211.976 37.3596L212.392 38.9596L212.888 37.2636L214.344 32.5596H216.568ZM217.782 43.9196V32.5596H219.75L219.894 35.1036L219.622 34.8156C219.718 34.3462 219.894 33.9302 220.15 33.5676C220.417 33.2049 220.753 32.9222 221.158 32.7196C221.563 32.5062 222.017 32.3996 222.518 32.3996C223.169 32.3996 223.75 32.5649 224.262 32.8956C224.774 33.2262 225.174 33.7009 225.462 34.3196C225.761 34.9276 225.91 35.6689 225.91 36.5436C225.91 37.4182 225.761 38.1702 225.462 38.7996C225.163 39.4182 224.753 39.8929 224.23 40.2236C223.718 40.5542 223.131 40.7196 222.47 40.7196C221.766 40.7196 221.179 40.5222 220.71 40.1276C220.251 39.7329 219.937 39.2369 219.766 38.6396L219.974 38.3036V43.9196H217.782ZM221.83 39.0396C222.417 39.0396 222.875 38.8316 223.206 38.4156C223.547 37.9889 223.718 37.3702 223.718 36.5596C223.718 35.7489 223.553 35.1356 223.222 34.7196C222.902 34.2929 222.449 34.0796 221.862 34.0796C221.489 34.0796 221.158 34.1809 220.87 34.3836C220.593 34.5756 220.374 34.8582 220.214 35.2316C220.054 35.5942 219.974 36.0369 219.974 36.5596C219.974 37.0716 220.049 37.5142 220.198 37.8876C220.347 38.2609 220.561 38.5489 220.838 38.7516C221.126 38.9436 221.457 39.0396 221.83 39.0396ZM231.525 40.7196C230.682 40.7196 229.946 40.5542 229.317 40.2236C228.698 39.8929 228.218 39.4182 227.877 38.7996C227.536 38.1809 227.365 37.4342 227.365 36.5596C227.365 35.6849 227.536 34.9382 227.877 34.3196C228.218 33.7009 228.693 33.2262 229.301 32.8956C229.92 32.5649 230.624 32.3996 231.413 32.3996C232.224 32.3996 232.912 32.5649 233.477 32.8956C234.042 33.2156 234.474 33.6582 234.773 34.2236C235.072 34.7782 235.221 35.4129 235.221 36.1276C235.221 36.3409 235.216 36.5436 235.205 36.7356C235.194 36.9276 235.178 37.0982 235.157 37.2476H228.773V35.7276H234.197L233.141 36.1116C233.141 35.4396 232.986 34.9222 232.677 34.5596C232.378 34.1969 231.952 34.0156 231.397 34.0156C230.992 34.0156 230.64 34.1116 230.341 34.3036C230.053 34.4956 229.834 34.7836 229.685 35.1676C229.536 35.5409 229.461 36.0156 229.461 36.5916C229.461 37.1569 229.541 37.6262 229.701 37.9996C229.872 38.3622 230.106 38.6342 230.405 38.8156C230.714 38.9969 231.082 39.0876 231.509 39.0876C231.978 39.0876 232.357 38.9969 232.645 38.8156C232.933 38.6342 233.157 38.3836 233.317 38.0636L235.061 38.7356C234.89 39.1516 234.629 39.5089 234.277 39.8076C233.936 40.1062 233.525 40.3356 233.045 40.4956C232.576 40.6449 232.069 40.7196 231.525 40.7196Z" fill="white"/>
<path d="M33.875 86.5996H35.747V84.7516C39.611 84.4636 41.603 82.4476 41.603 79.6156C41.603 75.4876 38.747 74.7196 35.795 74.2156C32.771 73.6876 31.643 73.3756 31.643 71.5996C31.643 70.1836 32.771 69.2476 34.667 69.2476C36.491 69.2476 37.811 70.1116 37.907 72.0076H41.075C41.051 69.1756 39.059 67.2076 35.747 66.8956V64.9996H33.875V66.8716C30.419 67.1596 28.355 69.0796 28.355 72.0076C28.355 75.1996 30.611 76.3516 34.211 76.9996C37.283 77.5276 38.315 78.0076 38.315 79.9036C38.315 81.5596 36.971 82.3516 34.931 82.3516C32.363 82.3516 31.259 81.0796 31.211 79.0876H27.995C28.019 82.2076 29.987 84.4396 33.875 84.7516V86.5996ZM43.6066 84.5596H55.5346V81.9196H47.3746C48.5026 78.6076 55.3426 77.3116 55.3426 72.1276C55.3426 69.0076 53.0626 67.0396 49.6306 67.0396C45.9826 67.0396 43.5346 69.2956 43.6546 72.7516H46.6066C46.4866 70.7836 47.6626 69.6316 49.4386 69.6316C51.1186 69.6316 52.2466 70.6396 52.2466 72.2956C52.2466 76.3996 43.6066 77.1436 43.6066 84.1036V84.5596ZM65.0111 84.5596H68.0111V80.4556H70.2911L70.3151 77.9836H68.0111V67.2556H64.1951L56.7071 78.1756V80.4556H64.9871L65.0111 84.5596ZM59.7311 77.9836L65.0111 70.3996V77.9836H59.7311ZM78.7211 84.7516C82.5611 84.7516 85.1531 81.6316 85.1531 75.8956C85.1531 70.3516 82.7291 67.0396 78.7691 67.0396C74.8811 67.0396 72.3131 70.1596 72.3131 75.8716C72.3131 81.4396 74.7371 84.7516 78.7211 84.7516ZM78.7451 82.2076C76.6571 82.2076 75.3131 80.5516 75.3131 75.8716C75.3131 71.2156 76.6571 69.5836 78.7451 69.5836C80.7851 69.5836 82.1531 71.2156 82.1531 75.8716C82.1531 80.5516 80.7851 82.2076 78.7451 82.2076ZM87.2066 84.5596H90.1106V81.6796H87.2066V84.5596ZM98.7881 84.7276C102.58 84.7276 105.124 82.8796 105.124 79.9036C105.124 77.8396 103.9 76.1596 101.812 75.8476V75.7276C103.852 75.2956 104.86 73.6636 104.86 71.8396C104.86 68.9836 102.556 67.0396 98.7881 67.0396C94.9961 67.0396 92.7401 68.9596 92.7401 71.7916C92.7401 73.6876 93.7481 75.2956 95.7401 75.7276V75.8476C93.6761 76.2076 92.4281 77.9356 92.4281 79.9276C92.4281 82.9036 94.9721 84.7276 98.7881 84.7276ZM98.7881 74.6236C96.7961 74.6236 95.7881 73.6396 95.7881 72.1036C95.7881 70.5196 96.9161 69.5356 98.7881 69.5356C100.612 69.5356 101.812 70.4956 101.812 72.1036C101.812 73.5676 100.852 74.6236 98.7881 74.6236ZM98.7881 82.1356C96.8681 82.1356 95.6201 81.1996 95.6201 79.5196C95.6201 78.1036 96.6041 77.0236 98.7881 77.0236C100.924 77.0236 101.956 78.0316 101.956 79.5196C101.956 81.1516 100.732 82.1356 98.7881 82.1356ZM108.201 84.5596H111.369V79.5436L114.057 76.6156L119.169 84.5596H122.937L116.241 74.3356L122.817 67.0636H119.001L111.369 75.7996V67.0636H108.201V84.5596Z" fill="#FAF3F3"/>
<rect x="130.083" y="67.5596" width="46" height="18" rx="2" fill="#05C168" fill-opacity="0.2"/>
<rect x="130.383" y="67.8596" width="45.4" height="17.4" rx="1.7" stroke="#05C168" stroke-opacity="0.2" stroke-width="0.6"/>
<path d="M136.123 79.5596H137.153V72.3496H136.163C136.093 73.0696 135.623 73.5496 134.663 73.5496H134.383V74.3396H136.123V79.5596ZM142.125 79.5596H143.155V77.7896H144.135V76.9396H143.155V72.3496H141.815L138.585 76.9896V77.7896H142.125V79.5596ZM139.635 76.9396L142.125 73.3896V76.9396H139.635ZM145.063 79.5596H146.093V78.5096H145.063V79.5596ZM149.682 79.6296C151.232 79.6296 152.282 78.8596 152.282 77.6396C152.282 76.7596 151.762 76.0496 150.832 75.9396V75.8896C151.742 75.7296 152.162 75.0196 152.162 74.2296C152.162 73.0596 151.222 72.2696 149.682 72.2696C148.152 72.2696 147.212 73.0496 147.212 74.2196C147.212 75.0196 147.652 75.7196 148.552 75.8896V75.9396C147.612 76.0696 147.082 76.8096 147.082 77.6496C147.082 78.8696 148.132 79.6296 149.682 79.6296ZM149.682 75.5096C148.722 75.5096 148.272 75.0196 148.272 74.3196C148.272 73.5896 148.802 73.1296 149.682 73.1296C150.552 73.1296 151.112 73.5796 151.112 74.3196C151.112 74.9896 150.682 75.5096 149.682 75.5096ZM149.682 78.7396C148.792 78.7396 148.192 78.2896 148.192 77.5096C148.192 76.8596 148.652 76.3396 149.682 76.3396C150.702 76.3396 151.182 76.8296 151.182 77.5096C151.182 78.2696 150.602 78.7396 149.682 78.7396ZM154.326 79.5596H155.096L159.726 72.2696H158.956L154.326 79.5596ZM154.646 76.2396C155.526 76.2396 156.116 75.5396 156.116 74.2696C156.116 73.0496 155.566 72.3096 154.666 72.3096C153.766 72.3096 153.176 73.0096 153.176 74.2596C153.176 75.4896 153.726 76.2396 154.646 76.2396ZM154.656 75.6196C154.206 75.6196 153.906 75.2896 153.906 74.2696C153.906 73.2496 154.216 72.9296 154.656 72.9296C155.086 72.9296 155.386 73.2496 155.386 74.2696C155.386 75.2896 155.086 75.6196 154.656 75.6196ZM159.406 79.5996C160.286 79.5996 160.876 78.8996 160.876 77.6396C160.876 76.4096 160.326 75.6596 159.426 75.6596C158.526 75.6596 157.936 76.3696 157.936 77.6196C157.936 78.8496 158.486 79.5996 159.406 79.5996ZM159.416 78.9796C158.966 78.9796 158.666 78.6496 158.666 77.6296C158.666 76.6096 158.966 76.2896 159.416 76.2896C159.836 76.2896 160.136 76.6096 160.136 77.6296C160.136 78.6596 159.836 78.9796 159.416 78.9796Z" fill="#14CA74"/>
<path d="M165.416 79.2262L170.75 73.8929" stroke="#14CA74" stroke-width="0.8" stroke-linecap="round" stroke-linejoin="round"/>
<path d="M170.75 78.9211V73.8929H165.721" stroke="#14CA74" stroke-width="0.8" stroke-linecap="round" stroke-linejoin="round"/>
<g filter="url(#filter1_d_67_655)">
<rect x="499.46" y="62.4072" width="151" height="30" rx="4" fill="#2C3533" shape-rendering="crispEdges"/>
<rect x="508.925" y="73.2861" width="9.06956" height="9.12111" rx="1" stroke="#AEB9E1" stroke-width="0.8"/>
<path d="M508.925 76.3344H517.995V81.4065C517.995 81.9588 517.547 82.4065 516.995 82.4065H509.925C509.373 82.4065 508.925 81.9588 508.925 81.4065V76.3344Z" fill="#AEB9E1" stroke="#AEB9E1" stroke-width="0.8"/>
<path d="M515.976 72.4072V74.0609" stroke="#AEB9E1" stroke-width="0.8" stroke-linecap="round" stroke-linejoin="round"/>
<path d="M511.015 72.4072V74.0609" stroke="#AEB9E1" stroke-width="0.8" stroke-linecap="round" stroke-linejoin="round"/>
<path d="M523.6 80.4872C524.85 80.4872 525.65 79.9072 525.65 78.5072V73.1172H524.57V78.4172C524.57 79.2272 524.16 79.5772 523.4 79.5772C523.07 79.5772 522.8 79.4972 522.61 79.3872V80.2772C522.83 80.3972 523.2 80.4872 523.6 80.4872ZM529.052 80.4972C529.942 80.4972 530.602 80.0372 530.852 79.3572H530.912V80.4072H531.942V75.1172H530.952L530.912 76.1572H530.852C530.602 75.4772 529.942 75.0272 529.052 75.0272C527.762 75.0272 526.892 75.9872 526.892 77.7572C526.892 79.5272 527.762 80.4972 529.052 80.4972ZM529.412 79.6472C528.532 79.6472 527.952 78.9972 527.952 77.7572C527.952 76.5072 528.532 75.8672 529.412 75.8672C530.392 75.8672 530.902 76.6472 530.902 77.4572V78.0572C530.902 78.8772 530.392 79.6472 529.412 79.6472ZM533.385 80.4072H534.405V77.5172C534.405 76.6072 534.975 75.8872 535.885 75.8872C536.725 75.8872 537.115 76.3972 537.115 77.4772V80.4072H538.145V77.2672C538.145 75.6472 537.335 75.0372 536.255 75.0372C535.475 75.0372 534.775 75.4172 534.465 76.1672H534.405L534.365 75.1172H533.385V80.4072ZM541.484 80.4072H546.324V79.4972H542.774C543.134 77.9372 546.244 77.3972 546.244 75.1972C546.244 73.9372 545.324 73.1072 543.924 73.1072C542.454 73.1072 541.464 74.0272 541.504 75.4372H542.514C542.464 74.5372 543.034 73.9972 543.864 73.9972C544.654 73.9972 545.174 74.4872 545.174 75.2472C545.174 77.0872 541.484 77.4172 541.484 80.2272V80.4072ZM549.786 80.4872C551.336 80.4872 552.386 79.1972 552.386 76.7972C552.386 74.4572 551.386 73.1172 549.796 73.1172C548.216 73.1172 547.156 74.3972 547.156 76.7872C547.156 79.1372 548.176 80.4872 549.786 80.4872ZM549.776 79.6072C548.796 79.6072 548.196 78.7772 548.196 76.7972C548.196 74.8072 548.796 73.9872 549.776 73.9872C550.756 73.9872 551.356 74.8172 551.356 76.7972C551.356 78.7772 550.756 79.6072 549.776 79.6072ZM553.173 80.4072H558.013V79.4972H554.463C554.823 77.9372 557.933 77.3972 557.933 75.1972C557.933 73.9372 557.013 73.1072 555.613 73.1072C554.143 73.1072 553.153 74.0272 553.193 75.4372H554.203C554.153 74.5372 554.723 73.9972 555.553 73.9972C556.343 73.9972 556.863 74.4872 556.863 75.2472C556.863 77.0872 553.173 77.4172 553.173 80.2272V80.4072ZM561.977 80.4072H563.007V78.6372H563.987V77.7872H563.007V73.1972H561.667L558.437 77.8372V78.6372H561.977V80.4072ZM559.487 77.7872L561.977 74.2372V77.7872H559.487ZM566.901 78.1972H569.901V77.3272H566.901V78.1972ZM573.32 80.4072H576.27C578.37 80.4072 579.57 78.9572 579.57 76.7672C579.57 74.5772 578.37 73.1172 576.27 73.1172H573.32V80.4072ZM574.41 79.4672V74.0572H576.11C577.51 74.0572 578.45 74.8972 578.45 76.7472C578.45 78.5972 577.52 79.4672 576.11 79.4672H574.41ZM582.958 80.4972C584.208 80.4972 585.168 79.8172 585.308 78.7772H584.328C584.198 79.3272 583.668 79.6772 582.958 79.6772C582.038 79.6772 581.438 79.0572 581.418 77.9672H585.338C585.498 76.3072 584.658 75.0372 582.918 75.0372C581.368 75.0372 580.398 76.1172 580.398 77.7872C580.398 79.4172 581.368 80.4972 582.958 80.4972ZM582.908 75.8472C583.688 75.8472 584.298 76.2572 584.328 77.2372H581.438C581.518 76.3772 582.078 75.8472 582.908 75.8472ZM588.759 80.4972C590.079 80.4972 591.039 79.7172 591.119 78.5172H590.119C590.039 79.1872 589.529 79.6372 588.759 79.6372C587.839 79.6372 587.239 78.9672 587.239 77.7772C587.239 76.6472 587.789 75.8972 588.769 75.8972C589.449 75.8972 589.979 76.2572 590.099 76.9472H591.099C591.019 75.8072 590.079 75.0372 588.799 75.0372C587.209 75.0372 586.189 76.1272 586.189 77.7672C586.189 79.4072 587.209 80.4972 588.759 80.4972ZM594.111 80.4072H598.951V79.4972H595.401C595.761 77.9372 598.871 77.3972 598.871 75.1972C598.871 73.9372 597.951 73.1072 596.551 73.1072C595.081 73.1072 594.091 74.0272 594.131 75.4372H595.141C595.091 74.5372 595.661 73.9972 596.491 73.9972C597.281 73.9972 597.801 74.4872 597.801 75.2472C597.801 77.0872 594.111 77.4172 594.111 80.2272V80.4072ZM602.413 80.4872C603.963 80.4872 605.013 79.1972 605.013 76.7972C605.013 74.4572 604.013 73.1172 602.423 73.1172C600.843 73.1172 599.783 74.3972 599.783 76.7872C599.783 79.1372 600.803 80.4872 602.413 80.4872ZM602.403 79.6072C601.423 79.6072 600.823 78.7772 600.823 76.7972C600.823 74.8072 601.423 73.9872 602.403 73.9872C603.383 73.9872 603.983 74.8172 603.983 76.7972C603.983 78.7772 603.383 79.6072 602.403 79.6072ZM605.8 80.4072H610.64V79.4972H607.09C607.45 77.9372 610.56 77.3972 610.56 75.1972C610.56 73.9372 609.64 73.1072 608.24 73.1072C606.77 73.1072 605.78 74.0272 605.82 75.4372H606.83C606.78 74.5372 607.35 73.9972 608.18 73.9972C608.97 73.9972 609.49 74.4872 609.49 75.2472C609.49 77.0872 605.8 77.4172 605.8 80.2272V80.4072ZM614.604 80.4072H615.634V78.6372H616.614V77.7872H615.634V73.1972H614.294L611.064 77.8372V78.6372H614.604V80.4072ZM612.114 77.7872L614.604 74.2372V77.7872H612.114Z" fill="#AEB9E1"/>
<g opacity="0.8">
<path d="M632.46 75.9072L635.46 78.9072L638.46 75.9072" stroke="#AEB9E1" stroke-linecap="round" stroke-linejoin="round"/>
</g>
</g>
<rect x="219.644" y="73.9072" width="7" height="7" rx="3.5" fill="#CB3CFF"/>
<path d="M234.614 80.4972C236.414 80.4972 237.734 79.4872 237.924 77.9472L236.824 77.9372C236.644 78.9172 235.794 79.5572 234.614 79.5572C233.104 79.5572 232.164 78.5372 232.164 76.7672C232.164 74.9872 233.104 73.9772 234.614 73.9772C235.804 73.9772 236.624 74.6272 236.824 75.5572H237.924C237.704 74.0272 236.414 73.0372 234.614 73.0372C232.474 73.0372 231.044 74.4572 231.044 76.7672C231.044 79.0672 232.464 80.4972 234.614 80.4972ZM240.889 80.4972C241.709 80.4972 242.399 80.0672 242.659 79.3372H242.719L242.769 80.4072H243.749V75.1172H242.719V77.9772C242.719 78.9472 242.139 79.6372 241.269 79.6372C240.379 79.6372 240.019 79.0972 240.019 78.1172V75.1172H238.989V78.3772C238.989 79.7772 239.689 80.4972 240.889 80.4972ZM245.143 80.4072H246.163V77.3872C246.213 76.5172 246.743 76.0272 247.683 76.0272C247.803 76.0272 247.923 76.0272 248.003 76.0372V75.0672C247.913 75.0572 247.813 75.0472 247.693 75.0472C246.993 75.0472 246.393 75.3772 246.163 76.0572H246.113L246.063 75.1172H245.143V80.4072ZM248.903 80.4072H249.923V77.3872C249.973 76.5172 250.503 76.0272 251.443 76.0272C251.563 76.0272 251.683 76.0272 251.763 76.0372V75.0672C251.673 75.0572 251.573 75.0472 251.453 75.0472C250.753 75.0472 250.153 75.3772 249.923 76.0572H249.873L249.823 75.1172H248.903V80.4072ZM254.706 80.4972C255.956 80.4972 256.916 79.8172 257.056 78.7772H256.076C255.946 79.3272 255.416 79.6772 254.706 79.6772C253.786 79.6772 253.186 79.0572 253.166 77.9672H257.086C257.246 76.3072 256.406 75.0372 254.666 75.0372C253.116 75.0372 252.146 76.1172 252.146 77.7872C252.146 79.4172 253.116 80.4972 254.706 80.4972ZM254.656 75.8472C255.436 75.8472 256.046 76.2572 256.076 77.2372H253.186C253.266 76.3772 253.826 75.8472 254.656 75.8472ZM258.199 80.4072H259.219V77.5172C259.219 76.6072 259.789 75.8872 260.699 75.8872C261.539 75.8872 261.929 76.3972 261.929 77.4772V80.4072H262.959V77.2672C262.959 75.6472 262.149 75.0372 261.069 75.0372C260.289 75.0372 259.589 75.4172 259.279 76.1672H259.219L259.179 75.1172H258.199V80.4072ZM265.735 80.4072H266.795V79.5572H266.075C265.745 79.5572 265.625 79.4672 265.625 79.1172V75.9572H266.795V75.1172H265.625V73.4672L264.595 73.5872V75.1172H263.595V75.9572H264.595V79.3072C264.595 80.0172 264.865 80.4072 265.735 80.4072ZM272.265 80.4972C273.585 80.4972 274.545 79.7172 274.625 78.5172H273.625C273.545 79.1872 273.035 79.6372 272.265 79.6372C271.345 79.6372 270.745 78.9672 270.745 77.7772C270.745 76.6472 271.295 75.8972 272.275 75.8972C272.955 75.8972 273.485 76.2572 273.605 76.9472H274.605C274.525 75.8072 273.585 75.0372 272.305 75.0372C270.715 75.0372 269.695 76.1272 269.695 77.7672C269.695 79.4072 270.715 80.4972 272.265 80.4972ZM275.67 80.4072H276.7V73.1172H275.67V80.4072ZM278.131 74.3072H279.161V73.1172H278.131V74.3072ZM278.131 80.4072H279.161V75.1172H278.131V80.4072ZM282.792 80.4972C284.042 80.4972 285.002 79.8172 285.142 78.7772H284.162C284.032 79.3272 283.502 79.6772 282.792 79.6772C281.872 79.6772 281.272 79.0572 281.252 77.9672H285.172C285.332 76.3072 284.492 75.0372 282.752 75.0372C281.202 75.0372 280.232 76.1172 280.232 77.7872C280.232 79.4172 281.202 80.4972 282.792 80.4972ZM282.742 75.8472C283.522 75.8472 284.132 76.2572 284.162 77.2372H281.272C281.352 76.3772 281.912 75.8472 282.742 75.8472ZM286.285 80.4072H287.305V77.5172C287.305 76.6072 287.875 75.8872 288.785 75.8872C289.625 75.8872 290.015 76.3972 290.015 77.4772V80.4072H291.045V77.2672C291.045 75.6472 290.235 75.0372 289.155 75.0372C288.375 75.0372 287.675 75.4172 287.365 76.1672H287.305L287.265 75.1172H286.285V80.4072ZM293.821 80.4072H294.881V79.5572H294.161C293.831 79.5572 293.711 79.4672 293.711 79.1172V75.9572H294.881V75.1172H293.711V73.4672L292.681 73.5872V75.1172H291.681V75.9572H292.681V79.3072C292.681 80.0172 292.951 80.4072 293.821 80.4072ZM297.875 80.5072C299.255 80.5072 300.115 79.9872 300.115 78.9072C300.115 77.6972 299.195 77.4572 298.095 77.3072C297.195 77.1872 296.795 77.0272 296.795 76.5072C296.795 76.0572 297.175 75.7472 297.875 75.7472C298.555 75.7472 298.985 76.0372 298.995 76.6772H300.005C299.985 75.6472 299.195 75.0172 297.895 75.0172C296.615 75.0172 295.765 75.5972 295.765 76.6072C295.765 77.6872 296.595 77.9672 297.795 78.1372C298.685 78.2672 299.065 78.4072 299.065 78.9972C299.065 79.4872 298.665 79.7772 297.905 79.7772C297.165 79.7772 296.635 79.4672 296.635 78.7472H295.615C295.615 79.7972 296.425 80.5072 297.875 80.5072Z" fill="#AEB9E1"/>
<rect x="316.644" y="73.9072" width="7" height="7" rx="3.5" fill="#0A8D9E"/>
<path d="M330.964 80.4972C332.824 80.4972 333.814 79.6472 333.814 78.3972C333.814 76.7172 332.604 76.3972 331.314 76.1872C329.914 75.9372 329.364 75.7772 329.364 74.9672C329.364 74.3072 329.914 73.8772 330.874 73.8772C331.814 73.8772 332.444 74.2972 332.474 75.1672H333.584C333.564 73.8872 332.584 73.0372 330.914 73.0372C329.244 73.0372 328.234 73.8372 328.234 75.1172C328.234 76.3672 329.094 76.8572 330.764 77.1472C332.194 77.3872 332.684 77.6272 332.684 78.4972C332.684 79.2672 332.004 79.6372 330.984 79.6372C329.744 79.6372 329.204 79.0572 329.184 78.1272H328.064C328.084 79.5272 329.024 80.4972 330.964 80.4972ZM336.825 80.4972C337.645 80.4972 338.335 80.0672 338.595 79.3372H338.655L338.705 80.4072H339.685V75.1172H338.655V77.9772C338.655 78.9472 338.075 79.6372 337.205 79.6372C336.315 79.6372 335.955 79.0972 335.955 78.1172V75.1172H334.925V78.3772C334.925 79.7772 335.625 80.4972 336.825 80.4972ZM343.968 80.4972C345.258 80.4972 346.128 79.5372 346.128 77.7672C346.128 75.9972 345.258 75.0272 343.968 75.0272C343.078 75.0272 342.418 75.4872 342.168 76.1572H342.108V73.1172H341.078V80.4072H342.068L342.108 79.3672H342.168C342.418 80.0472 343.078 80.4972 343.968 80.4972ZM343.608 79.6472C342.628 79.6472 342.118 78.8772 342.118 78.0572V77.4672C342.118 76.6472 342.628 75.8772 343.608 75.8772C344.488 75.8772 345.068 76.5172 345.068 77.7672C345.068 79.0072 344.488 79.6472 343.608 79.6472ZM349.181 80.5072C350.561 80.5072 351.421 79.9872 351.421 78.9072C351.421 77.6972 350.501 77.4572 349.401 77.3072C348.501 77.1872 348.101 77.0272 348.101 76.5072C348.101 76.0572 348.481 75.7472 349.181 75.7472C349.861 75.7472 350.291 76.0372 350.301 76.6772H351.311C351.291 75.6472 350.501 75.0172 349.201 75.0172C347.921 75.0172 347.071 75.5972 347.071 76.6072C347.071 77.6872 347.901 77.9672 349.101 78.1372C349.991 78.2672 350.371 78.4072 350.371 78.9972C350.371 79.4872 349.971 79.7772 349.211 79.7772C348.471 79.7772 347.941 79.4672 347.941 78.7472H346.921C346.921 79.7972 347.731 80.5072 349.181 80.5072ZM354.851 80.4972C356.171 80.4972 357.131 79.7172 357.211 78.5172H356.211C356.131 79.1872 355.621 79.6372 354.851 79.6372C353.931 79.6372 353.331 78.9672 353.331 77.7772C353.331 76.6472 353.881 75.8972 354.861 75.8972C355.541 75.8972 356.071 76.2572 356.191 76.9472H357.191C357.111 75.8072 356.171 75.0372 354.891 75.0372C353.301 75.0372 352.281 76.1272 352.281 77.7672C352.281 79.4072 353.301 80.4972 354.851 80.4972ZM358.256 80.4072H359.276V77.3872C359.326 76.5172 359.856 76.0272 360.796 76.0272C360.916 76.0272 361.036 76.0272 361.116 76.0372V75.0672C361.026 75.0572 360.926 75.0472 360.806 75.0472C360.106 75.0472 359.506 75.3772 359.276 76.0572H359.226L359.176 75.1172H358.256V80.4072ZM362.016 74.3072H363.046V73.1172H362.016V74.3072ZM362.016 80.4072H363.046V75.1172H362.016V80.4072ZM367.367 80.4972C368.657 80.4972 369.527 79.5372 369.527 77.7672C369.527 75.9972 368.657 75.0272 367.367 75.0272C366.477 75.0272 365.817 75.4872 365.567 76.1572H365.507V73.1172H364.477V80.4072H365.467L365.507 79.3672H365.567C365.817 80.0472 366.477 80.4972 367.367 80.4972ZM367.007 79.6472C366.027 79.6472 365.517 78.8772 365.517 78.0572V77.4672C365.517 76.6472 366.027 75.8772 367.007 75.8772C367.887 75.8772 368.467 76.5172 368.467 77.7672C368.467 79.0072 367.887 79.6472 367.007 79.6472ZM372.907 80.4972C374.157 80.4972 375.117 79.8172 375.257 78.7772H374.277C374.147 79.3272 373.617 79.6772 372.907 79.6772C371.987 79.6772 371.387 79.0572 371.367 77.9672H375.287C375.447 76.3072 374.607 75.0372 372.867 75.0372C371.317 75.0372 370.347 76.1172 370.347 77.7872C370.347 79.4172 371.317 80.4972 372.907 80.4972ZM372.857 75.8472C373.637 75.8472 374.247 76.2572 374.277 77.2372H371.387C371.467 76.3772 372.027 75.8472 372.857 75.8472ZM376.401 80.4072H377.421V77.3872C377.471 76.5172 378.001 76.0272 378.941 76.0272C379.061 76.0272 379.181 76.0272 379.261 76.0372V75.0672C379.171 75.0572 379.071 75.0472 378.951 75.0472C378.251 75.0472 377.651 75.3772 377.421 76.0572H377.371L377.321 75.1172H376.401V80.4072ZM382.033 80.5072C383.413 80.5072 384.273 79.9872 384.273 78.9072C384.273 77.6972 383.353 77.4572 382.253 77.3072C381.353 77.1872 380.953 77.0272 380.953 76.5072C380.953 76.0572 381.333 75.7472 382.033 75.7472C382.713 75.7472 383.143 76.0372 383.153 76.6772H384.163C384.143 75.6472 383.353 75.0172 382.053 75.0172C380.773 75.0172 379.923 75.5972 379.923 76.6072C379.923 77.6872 380.753 77.9672 381.953 78.1372C382.843 78.2672 383.223 78.4072 383.223 78.9972C383.223 79.4872 382.823 79.7772 382.063 79.7772C381.323 79.7772 380.793 79.4672 380.793 78.7472H379.773C379.773 79.7972 380.583 80.5072 382.033 80.5072Z" fill="#AEB9E1"/>
<rect x="401.644" y="73.9072" width="7" height="7" rx="3.5" fill="#00F6FF"/>
<path d="M413.524 80.4072H414.634V76.9072L414.594 74.6372H414.654L418.424 80.4072H419.704V73.1172H418.644V76.5172L418.704 78.9572H418.634L414.864 73.1172H413.524V80.4072ZM423.503 80.4972C424.753 80.4972 425.713 79.8172 425.853 78.7772H424.873C424.743 79.3272 424.213 79.6772 423.503 79.6772C422.583 79.6772 421.983 79.0572 421.963 77.9672H425.883C426.043 76.3072 425.203 75.0372 423.463 75.0372C421.913 75.0372 420.943 76.1172 420.943 77.7872C420.943 79.4172 421.913 80.4972 423.503 80.4972ZM423.453 75.8472C424.233 75.8472 424.843 76.2572 424.873 77.2372H421.983C422.063 76.3772 422.623 75.8472 423.453 75.8472ZM427.589 80.4072H428.929L429.879 76.4272H429.919L430.899 80.4072H432.249L433.599 75.1172H432.589L431.549 79.3872H431.519L430.509 75.1172H429.369L428.389 79.3772H428.339L427.299 75.1172H426.239L427.589 80.4072ZM438.826 80.4972C440.146 80.4972 441.106 79.7172 441.186 78.5172H440.186C440.106 79.1872 439.596 79.6372 438.826 79.6372C437.906 79.6372 437.306 78.9672 437.306 77.7772C437.306 76.6472 437.856 75.8972 438.836 75.8972C439.516 75.8972 440.046 76.2572 440.166 76.9472H441.166C441.086 75.8072 440.146 75.0372 438.866 75.0372C437.276 75.0372 436.256 76.1272 436.256 77.7672C436.256 79.4072 437.276 80.4972 438.826 80.4972ZM444.081 80.4972C444.901 80.4972 445.591 80.0672 445.851 79.3372H445.911L445.961 80.4072H446.941V75.1172H445.911V77.9772C445.911 78.9472 445.331 79.6372 444.461 79.6372C443.571 79.6372 443.211 79.0972 443.211 78.1172V75.1172H442.181V78.3772C442.181 79.7772 442.881 80.4972 444.081 80.4972ZM450.304 80.5072C451.684 80.5072 452.544 79.9872 452.544 78.9072C452.544 77.6972 451.624 77.4572 450.524 77.3072C449.624 77.1872 449.224 77.0272 449.224 76.5072C449.224 76.0572 449.604 75.7472 450.304 75.7472C450.984 75.7472 451.414 76.0372 451.424 76.6772H452.434C452.414 75.6472 451.624 75.0172 450.324 75.0172C449.044 75.0172 448.194 75.5972 448.194 76.6072C448.194 77.6872 449.024 77.9672 450.224 78.1372C451.114 78.2672 451.494 78.4072 451.494 78.9972C451.494 79.4872 451.094 79.7772 450.334 79.7772C449.594 79.7772 449.064 79.4672 449.064 78.7472H448.044C448.044 79.7972 448.854 80.5072 450.304 80.5072ZM455.225 80.4072H456.285V79.5572H455.565C455.235 79.5572 455.115 79.4672 455.115 79.1172V75.9572H456.285V75.1172H455.115V73.4672L454.085 73.5872V75.1172H453.085V75.9572H454.085V79.3072C454.085 80.0172 454.355 80.4072 455.225 80.4072ZM459.392 80.4972C460.982 80.4972 461.972 79.3872 461.972 77.7672C461.972 76.0872 460.932 75.0372 459.392 75.0372C457.792 75.0372 456.802 76.1472 456.802 77.7772C456.802 79.4372 457.842 80.4972 459.392 80.4972ZM459.392 79.6372C458.452 79.6372 457.852 78.9572 457.852 77.7772C457.852 76.5572 458.472 75.8872 459.392 75.8872C460.342 75.8872 460.922 76.5772 460.922 77.7672C460.922 78.9672 460.312 79.6372 459.392 79.6372ZM463.051 80.4072H464.071V77.5172C464.071 76.6072 464.621 75.8872 465.501 75.8872C466.321 75.8872 466.691 76.3972 466.691 77.4772V80.4072H467.721V77.5172C467.721 76.6072 468.271 75.8872 469.141 75.8872C469.971 75.8872 470.341 76.3972 470.341 77.4772V80.4072H471.361V77.2672C471.361 75.6472 470.581 75.0372 469.531 75.0372C468.681 75.0372 467.961 75.4572 467.671 76.2772H467.591C467.321 75.3772 466.661 75.0372 465.881 75.0372C465.111 75.0372 464.431 75.4172 464.131 76.1672H464.071L464.031 75.1172H463.051V80.4072ZM474.948 80.4972C476.198 80.4972 477.158 79.8172 477.298 78.7772H476.318C476.188 79.3272 475.658 79.6772 474.948 79.6772C474.028 79.6772 473.428 79.0572 473.408 77.9672H477.328C477.488 76.3072 476.648 75.0372 474.908 75.0372C473.358 75.0372 472.388 76.1172 472.388 77.7872C472.388 79.4172 473.358 80.4972 474.948 80.4972ZM474.898 75.8472C475.678 75.8472 476.288 76.2572 476.318 77.2372H473.428C473.508 76.3772 474.068 75.8472 474.898 75.8472ZM478.442 80.4072H479.462V77.3872C479.512 76.5172 480.042 76.0272 480.982 76.0272C481.102 76.0272 481.222 76.0272 481.302 76.0372V75.0672C481.212 75.0572 481.112 75.0472 480.992 75.0472C480.292 75.0472 479.692 75.3772 479.462 76.0572H479.412L479.362 75.1172H478.442V80.4072ZM484.074 80.5072C485.454 80.5072 486.314 79.9872 486.314 78.9072C486.314 77.6972 485.394 77.4572 484.294 77.3072C483.394 77.1872 482.994 77.0272 482.994 76.5072C482.994 76.0572 483.374 75.7472 484.074 75.7472C484.754 75.7472 485.184 76.0372 485.194 76.6772H486.204C486.184 75.6472 485.394 75.0172 484.094 75.0172C482.814 75.0172 481.964 75.5972 481.964 76.6072C481.964 77.6872 482.794 77.9672 483.994 78.1372C484.884 78.2672 485.264 78.4072 485.264 78.9972C485.264 79.4872 484.864 79.7772 484.104 79.7772C483.364 79.7772 482.834 79.4672 482.834 78.7472H481.814C481.814 79.7972 482.624 80.5072 484.074 80.5072Z" fill="#AEB9E1"/>
<path d="M46.4401 192.994C47.9901 192.994 49.0401 192.224 49.0401 191.004C49.0401 190.124 48.5201 189.414 47.5901 189.304V189.254C48.5001 189.094 48.9201 188.384 48.9201 187.594C48.9201 186.424 47.9801 185.634 46.4401 185.634C44.9101 185.634 43.9701 186.414 43.9701 187.584C43.9701 188.384 44.4101 189.084 45.3101 189.254V189.304C44.3701 189.434 43.8401 190.174 43.8401 191.014C43.8401 192.234 44.8901 192.994 46.4401 192.994ZM46.4401 188.874C45.4801 188.874 45.0301 188.384 45.0301 187.684C45.0301 186.954 45.5601 186.494 46.4401 186.494C47.3101 186.494 47.8701 186.944 47.8701 187.684C47.8701 188.354 47.4401 188.874 46.4401 188.874ZM46.4401 192.104C45.5501 192.104 44.9501 191.654 44.9501 190.874C44.9501 190.224 45.4101 189.704 46.4401 189.704C47.4601 189.704 47.9401 190.194 47.9401 190.874C47.9401 191.634 47.3601 192.104 46.4401 192.104ZM52.4641 193.004C54.0141 193.004 55.0641 191.714 55.0641 189.314C55.0641 186.974 54.0641 185.634 52.4741 185.634C50.8941 185.634 49.8341 186.914 49.8341 189.304C49.8341 191.654 50.8541 193.004 52.4641 193.004ZM52.4541 192.124C51.4741 192.124 50.8741 191.294 50.8741 189.314C50.8741 187.324 51.4741 186.504 52.4541 186.504C53.4341 186.504 54.0341 187.334 54.0341 189.314C54.0341 191.294 53.4341 192.124 52.4541 192.124ZM56.3016 192.924H57.3916V190.754L58.6216 189.454L60.9316 192.924H62.2216L59.3616 188.664L62.1716 185.634H60.8516L57.3916 189.454V185.634H56.3016V192.924Z" fill="#AEB9E1"/>
<path d="M46.9795 262.696H48.0095V260.926H48.9895V260.076H48.0095V255.486H46.6695L43.4395 260.126V260.926H46.9795V262.696ZM44.4895 260.076L46.9795 256.526V260.076H44.4895ZM52.4641 262.776C54.0141 262.776 55.0641 261.486 55.0641 259.086C55.0641 256.746 54.0641 255.406 52.4741 255.406C50.8941 255.406 49.8341 256.686 49.8341 259.076C49.8341 261.426 50.8541 262.776 52.4641 262.776ZM52.4541 261.896C51.4741 261.896 50.8741 261.066 50.8741 259.086C50.8741 257.096 51.4741 256.276 52.4541 256.276C53.4341 256.276 54.0341 257.106 54.0341 259.086C54.0341 261.066 53.4341 261.896 52.4541 261.896ZM56.3016 262.696H57.3916V260.526L58.6216 259.226L60.9316 262.696H62.2216L59.3616 258.436L62.1716 255.406H60.8516L57.3916 259.226V255.406H56.3016V262.696Z" fill="#AEB9E1"/>
<path d="M44.1622 331.409H49.0022V330.499H45.4522C45.8122 328.939 48.9222 328.399 48.9222 326.199C48.9222 324.939 48.0022 324.109 46.6022 324.109C45.1322 324.109 44.1422 325.029 44.1822 326.439H45.1922C45.1422 325.539 45.7122 324.999 46.5422 324.999C47.3322 324.999 47.8522 325.489 47.8522 326.249C47.8522 328.089 44.1622 328.419 44.1622 331.229V331.409ZM52.4641 331.489C54.0141 331.489 55.0641 330.199 55.0641 327.799C55.0641 325.459 54.0641 324.119 52.4741 324.119C50.8941 324.119 49.8341 325.399 49.8341 327.789C49.8341 330.139 50.8541 331.489 52.4641 331.489ZM52.4541 330.609C51.4741 330.609 50.8741 329.779 50.8741 327.799C50.8741 325.809 51.4741 324.989 52.4541 324.989C53.4341 324.989 54.0341 325.819 54.0341 327.799C54.0341 329.779 53.4341 330.609 52.4541 330.609ZM56.3016 331.409H57.3916V329.239L58.6216 327.939L60.9316 331.409H62.2216L59.3616 327.149L62.1716 324.119H60.8516L57.3916 327.939V324.119H56.3016V331.409Z" fill="#AEB9E1"/>
<path d="M52.4641 400.202C54.0141 400.202 55.0641 398.912 55.0641 396.512C55.0641 394.172 54.0641 392.832 52.4741 392.832C50.8941 392.832 49.8341 394.112 49.8341 396.502C49.8341 398.852 50.8541 400.202 52.4641 400.202ZM52.4541 399.322C51.4741 399.322 50.8741 398.492 50.8741 396.512C50.8741 394.522 51.4741 393.702 52.4541 393.702C53.4341 393.702 54.0341 394.532 54.0341 396.512C54.0341 398.492 53.4341 399.322 52.4541 399.322ZM56.3016 400.122H57.3916V397.952L58.6216 396.652L60.9316 400.122H62.2216L59.3616 395.862L62.1716 392.832H60.8516L57.3916 396.652V392.832H56.3016V400.122Z" fill="#AEB9E1"/>
<path d="M41.5143 124.146H42.5443V116.936H41.5543C41.4843 117.656 41.0143 118.136 40.0543 118.136H39.7743V118.926H41.5143V124.146ZM46.5266 124.226C48.0766 124.226 49.1266 122.936 49.1266 120.536C49.1266 118.196 48.1266 116.856 46.5366 116.856C44.9566 116.856 43.8966 118.136 43.8966 120.526C43.8966 122.876 44.9166 124.226 46.5266 124.226ZM46.5166 123.346C45.5366 123.346 44.9366 122.516 44.9366 120.536C44.9366 118.546 45.5366 117.726 46.5166 117.726C47.4966 117.726 48.0966 118.556 48.0966 120.536C48.0966 122.516 47.4966 123.346 46.5166 123.346ZM52.4641 124.226C54.0141 124.226 55.0641 122.936 55.0641 120.536C55.0641 118.196 54.0641 116.856 52.4741 116.856C50.8941 116.856 49.8341 118.136 49.8341 120.526C49.8341 122.876 50.8541 124.226 52.4641 124.226ZM52.4541 123.346C51.4741 123.346 50.8741 122.516 50.8741 120.536C50.8741 118.546 51.4741 117.726 52.4541 117.726C53.4341 117.726 54.0341 118.556 54.0341 120.536C54.0341 122.516 53.4341 123.346 52.4541 123.346ZM56.3016 124.146H57.3916V121.976L58.6216 120.676L60.9316 124.146H62.2216L59.3616 119.886L62.1716 116.856H60.8516L57.3916 120.676V116.856H56.3016V124.146Z" fill="#AEB9E1"/>
<rect x="87.7939" y="330.981" width="7.25989" height="69.1402" fill="#105065"/>
<rect x="87.7939" y="312.741" width="7.25989" height="38.5" fill="#0A8D9E"/>
<rect width="7.25989" height="41.75" transform="matrix(1 0 0 -1 87.7939 312.741)" fill="#00F6FF"/>
<rect x="137.552" y="293.331" width="7.25989" height="106.791" fill="#105065"/>
<rect width="7.25989" height="26.6348" transform="matrix(1 0 0 -1 137.552 293.331)" fill="#0A8D9E"/>
<rect x="137.552" y="204.491" width="7.25989" height="62.2051" fill="#00F6FF"/>
<rect x="184.923" y="266.696" width="7.25989" height="133.425" fill="#105065"/>
<rect width="7.25989" height="62.2051" transform="matrix(1 0 0 -1 184.923 266.696)" fill="#0A8D9E"/>
<path d="M184.923 161.991C184.923 160.887 185.818 159.991 186.923 159.991H190.183C191.287 159.991 192.183 160.887 192.183 161.991V204.491H184.923V161.991Z" fill="#00F6FF"/>
<rect x="234.704" y="250.491" width="7.25989" height="149.63" fill="#105065"/>
<rect x="234.704" y="250.491" width="7.25989" height="20.5" fill="#0A8D9E"/>
<path d="M234.704 250.491H241.964V209.991C241.964 208.887 241.069 207.991 239.964 207.991H236.704C235.6 207.991 234.704 208.887 234.704 209.991V250.491Z" fill="#00F6FF"/>
<rect x="284.161" y="293.331" width="7.25989" height="106.791" fill="#105065"/>
<rect x="284.161" y="293.331" width="7.25989" height="54.4102" fill="#0A8D9E"/>
<rect x="284.161" y="293.331" width="7.25989" height="20.6602" fill="#00F6FF"/>
<rect x="333.129" y="224.085" width="7.25989" height="176.037" fill="#105065"/>
<rect x="333.129" y="226.96" width="7.25989" height="83.0312" fill="#0A8D9E"/>
<path d="M333.13 216.991C333.13 215.887 334.025 214.991 335.13 214.991H338.39C339.494 214.991 340.39 215.887 340.39 216.991V240.491H333.13V216.991Z" fill="#00F6FF"/>
<rect x="378.708" y="339.789" width="7.25989" height="60.2216" fill="#105065"/>
<rect x="378.708" y="339.789" width="7.25989" height="23.2021" fill="#0A8D9E"/>
<rect x="425.251" y="245.991" width="7.25989" height="154.13" fill="#105065"/>
<rect x="425.251" y="245.991" width="7.25989" height="13.5" fill="#0A8D9E"/>
<path d="M425.251 156.491C425.251 155.387 426.146 154.491 427.251 154.491H430.511C431.615 154.491 432.511 155.387 432.511 156.491V245.991H425.251V156.491Z" fill="#00F6FF"/>
<rect x="474.708" y="313.991" width="7.25989" height="86.0191" fill="#105065"/>
<rect x="474.708" y="313.991" width="7.25989" height="38.75" fill="#0A8D9E"/>
<path d="M474.708 313.991H481.968V268.696C481.968 267.592 481.072 266.696 479.968 266.696H476.708C475.603 266.696 474.708 267.592 474.708 268.696V313.991Z" fill="#00F6FF"/>
<rect x="523.677" y="373.991" width="7.25989" height="26.1305" fill="#105065"/>
<rect x="523.677" y="322.991" width="7.25989" height="58" fill="#0A8D9E"/>
<path d="M523.677 322.991H530.937V235.491C530.937 234.387 530.041 233.491 528.937 233.491H525.677C524.572 233.491 523.677 234.387 523.677 235.491V322.991Z" fill="#00F6FF"/>
<rect x="572.648" y="270.21" width="7.25989" height="129.801" fill="#105065"/>
<rect x="572.648" y="266.696" width="7.25989" height="78.5449" fill="#0A8D9E"/>
<path d="M572.649 252.491C572.649 251.387 573.545 250.491 574.649 250.491H577.909C579.014 250.491 579.909 251.387 579.909 252.491V290.491H572.649V252.491Z" fill="#00F6FF"/>
<rect x="622.587" y="293.331" width="7.25989" height="106.791" fill="#105065"/>
<rect x="622.587" y="293.331" width="7.25989" height="17.4102" fill="#0A8D9E"/>
<path d="M622.587 293.331H629.847V216.991C629.847 215.887 628.951 214.991 627.847 214.991H624.587C623.482 214.991 622.587 215.887 622.587 216.991V293.331Z" fill="#00F6FF"/>
<defs>
<filter id="filter0_d_67_655" x="0" y="0" width="691" height="463" filterUnits="userSpaceOnUse" color-interpolation-filters="sRGB">
<feFlood flood-opacity="0" result="BackgroundImageFix"/>
<feColorMatrix in="SourceAlpha" type="matrix" values="0 0 0 0 0 0 0 0 0 0 0 0 0 0 0 0 0 0 127 0" result="hardAlpha"/>
<feOffset dx="1" dy="1"/>
<feGaussianBlur stdDeviation="0.5"/>
<feComposite in2="hardAlpha" operator="out"/>
<feColorMatrix type="matrix" values="0 0 0 0 0.06125 0 0 0 0 0.0969792 0 0 0 0 0.204167 0 0 0 0.4 0"/>
<feBlend mode="normal" in2="BackgroundImageFix" result="effect1_dropShadow_67_655"/>
<feBlend mode="normal" in="SourceGraphic" in2="effect1_dropShadow_67_655" result="shape"/>
</filter>
<filter id="filter1_d_67_655" x="499.46" y="62.4072" width="153" height="32" filterUnits="userSpaceOnUse" color-interpolation-filters="sRGB">
<feFlood flood-opacity="0" result="BackgroundImageFix"/>
<feColorMatrix in="SourceAlpha" type="matrix" values="0 0 0 0 0 0 0 0 0 0 0 0 0 0 0 0 0 0 127 0" result="hardAlpha"/>
<feOffset dx="1" dy="1"/>
<feGaussianBlur stdDeviation="0.5"/>
<feComposite in2="hardAlpha" operator="out"/>
<feColorMatrix type="matrix" values="0 0 0 0 0.06125 0 0 0 0 0.0969792 0 0 0 0 0.204167 0 0 0 0.4 0"/>
<feBlend mode="normal" in2="BackgroundImageFix" result="effect1_dropShadow_67_655"/>
<feBlend mode="normal" in="SourceGraphic" in2="effect1_dropShadow_67_655" result="shape"/>
</filter>
<linearGradient id="paint0_linear_67_655" x1="344.5" y1="0" x2="344.5" y2="461" gradientUnits="userSpaceOnUse">
<stop stop-color="#3D3D3D" stop-opacity="0.74"/>
<stop offset="0.5" stop-color="#0C0C0C" stop-opacity="0.78"/>
</linearGradient>
</defs>
</svg>
