<svg width="118" height="17" viewBox="0 0 118 17" fill="none" xmlns="http://www.w3.org/2000/svg">
<rect y="5.82812" width="24.2857" height="11.1714" rx="5.58571" fill="#004E92"/>
<circle cx="12.143" cy="5.82857" r="5.82857" fill="#004E92"/>
<path d="M28.8852 13V11.752L32.8212 5.944H28.9092V4.6H34.6932V5.848L30.7332 11.656H34.7052V13H28.8852ZM38.9887 13.144C38.3807 13.144 37.8447 13.012 37.3807 12.748C36.9247 12.484 36.5647 12.116 36.3007 11.644C36.0447 11.164 35.9167 10.608 35.9167 9.976C35.9167 9.336 36.0447 8.772 36.3007 8.284C36.5567 7.788 36.9127 7.4 37.3687 7.12C37.8327 6.84 38.3727 6.7 38.9887 6.7C39.5967 6.7 40.1247 6.836 40.5727 7.108C41.0207 7.372 41.3647 7.732 41.6047 8.188C41.8447 8.644 41.9647 9.164 41.9647 9.748C41.9647 9.828 41.9647 9.916 41.9647 10.012C41.9647 10.108 41.9567 10.212 41.9407 10.324H37.0687V9.328H40.3327C40.3167 8.92 40.1807 8.6 39.9247 8.368C39.6767 8.136 39.3687 8.02 39.0007 8.02C38.7207 8.02 38.4687 8.088 38.2447 8.224C38.0207 8.352 37.8407 8.548 37.7047 8.812C37.5767 9.068 37.5127 9.396 37.5127 9.796V10.144C37.5127 10.488 37.5727 10.788 37.6927 11.044C37.8127 11.292 37.9807 11.484 38.1967 11.62C38.4207 11.756 38.6807 11.824 38.9767 11.824C39.2887 11.824 39.5367 11.764 39.7207 11.644C39.9047 11.524 40.0487 11.364 40.1527 11.164H41.7967C41.6847 11.54 41.4967 11.876 41.2327 12.172C40.9767 12.468 40.6567 12.704 40.2727 12.88C39.8887 13.056 39.4607 13.144 38.9887 13.144ZM43.3157 13V6.844H44.7437L44.8637 7.816C45.0397 7.48 45.2957 7.212 45.6317 7.012C45.9757 6.804 46.3837 6.7 46.8557 6.7C47.3517 6.7 47.7717 6.804 48.1157 7.012C48.4597 7.212 48.7237 7.508 48.9077 7.9C49.0917 8.284 49.1837 8.76 49.1837 9.328V13H47.5637V9.472C47.5637 9.024 47.4597 8.68 47.2517 8.44C47.0437 8.192 46.7317 8.068 46.3157 8.068C46.0597 8.068 45.8237 8.128 45.6077 8.248C45.3997 8.368 45.2357 8.54 45.1157 8.764C44.9957 8.988 44.9357 9.264 44.9357 9.592V13H43.3157ZM50.7931 13V6.844H52.4131V13H50.7931ZM51.6091 6.052C51.3211 6.052 51.0811 5.968 50.8891 5.8C50.7051 5.624 50.6131 5.404 50.6131 5.14C50.6131 4.876 50.7051 4.66 50.8891 4.492C51.0811 4.316 51.3211 4.228 51.6091 4.228C51.9051 4.228 52.1451 4.316 52.3291 4.492C52.5211 4.66 52.6171 4.876 52.6171 5.14C52.6171 5.404 52.5211 5.624 52.3291 5.8C52.1451 5.968 51.9051 6.052 51.6091 6.052ZM56.8335 13C56.4095 13 56.0375 12.936 55.7175 12.808C55.4055 12.672 55.1615 12.452 54.9855 12.148C54.8095 11.836 54.7215 11.412 54.7215 10.876V8.2H53.6655V6.844H54.7215L54.9015 5.152H56.3415V6.844H57.9495V8.2H56.3415V10.9C56.3415 11.172 56.4015 11.36 56.5215 11.464C56.6415 11.568 56.8455 11.62 57.1335 11.62H57.9495V13H56.8335ZM59.3587 13V4.36H60.9787V7.744C61.1787 7.432 61.4467 7.18 61.7827 6.988C62.1187 6.796 62.5027 6.7 62.9347 6.7C63.4387 6.7 63.8627 6.804 64.2067 7.012C64.5587 7.22 64.8187 7.524 64.9867 7.924C65.1627 8.316 65.2507 8.8 65.2507 9.376V13H63.6427V9.52C63.6427 9.056 63.5387 8.7 63.3307 8.452C63.1227 8.196 62.8067 8.068 62.3827 8.068C62.1267 8.068 61.8907 8.132 61.6747 8.26C61.4587 8.38 61.2867 8.56 61.1587 8.8C61.0387 9.032 60.9787 9.312 60.9787 9.64V13H59.3587ZM73.4509 13.144C72.6189 13.144 71.9029 12.964 71.3029 12.604C70.7029 12.236 70.2429 11.728 69.9229 11.08C69.6029 10.424 69.4429 9.668 69.4429 8.812C69.4429 7.956 69.6029 7.2 69.9229 6.544C70.2429 5.888 70.7029 5.376 71.3029 5.008C71.9029 4.64 72.6189 4.456 73.4509 4.456C74.4669 4.456 75.2949 4.708 75.9349 5.212C76.5829 5.716 76.9869 6.428 77.1469 7.348H75.3829C75.2789 6.9 75.0629 6.552 74.7349 6.304C74.4069 6.048 73.9749 5.92 73.4389 5.92C72.9509 5.92 72.5309 6.04 72.1789 6.28C71.8269 6.512 71.5549 6.844 71.3629 7.276C71.1789 7.7 71.0869 8.212 71.0869 8.812C71.0869 9.404 71.1789 9.916 71.3629 10.348C71.5549 10.78 71.8269 11.112 72.1789 11.344C72.5309 11.576 72.9509 11.692 73.4389 11.692C73.9749 11.692 74.4029 11.576 74.7229 11.344C75.0509 11.104 75.2709 10.772 75.3829 10.348H77.1469C76.9869 11.22 76.5829 11.904 75.9349 12.4C75.2949 12.896 74.4669 13.144 73.4509 13.144ZM78.5071 13V4.36H80.1271V13H78.5071ZM84.5858 13.144C84.0018 13.144 83.4778 13.008 83.0138 12.736C82.5578 12.464 82.1978 12.084 81.9338 11.596C81.6698 11.108 81.5378 10.552 81.5378 9.928C81.5378 9.288 81.6698 8.728 81.9338 8.248C82.1978 7.76 82.5618 7.38 83.0258 7.108C83.4898 6.836 84.0138 6.7 84.5978 6.7C85.1898 6.7 85.7138 6.836 86.1698 7.108C86.6338 7.38 86.9978 7.76 87.2618 8.248C87.5258 8.728 87.6578 9.288 87.6578 9.928C87.6578 10.56 87.5258 11.12 87.2618 11.608C86.9978 12.088 86.6338 12.464 86.1698 12.736C85.7138 13.008 85.1858 13.144 84.5858 13.144ZM84.5858 11.74C84.8658 11.74 85.1098 11.672 85.3178 11.536C85.5338 11.4 85.7018 11.2 85.8218 10.936C85.9418 10.664 86.0018 10.328 86.0018 9.928C86.0018 9.52 85.9418 9.184 85.8218 8.92C85.7018 8.648 85.5378 8.444 85.3298 8.308C85.1218 8.172 84.8778 8.104 84.5978 8.104C84.3338 8.104 84.0938 8.172 83.8778 8.308C83.6698 8.444 83.5018 8.648 83.3738 8.92C83.2538 9.184 83.1938 9.52 83.1938 9.928C83.1938 10.328 83.2538 10.664 83.3738 10.936C83.4938 11.2 83.6578 11.4 83.8658 11.536C84.0818 11.672 84.3218 11.74 84.5858 11.74ZM91.3694 13.144C90.8814 13.144 90.4614 13.048 90.1094 12.856C89.7654 12.656 89.5014 12.364 89.3174 11.98C89.1414 11.596 89.0534 11.124 89.0534 10.564V6.844H90.6614V10.372C90.6614 10.844 90.7654 11.196 90.9734 11.428C91.1894 11.66 91.5014 11.776 91.9094 11.776C92.1734 11.776 92.4054 11.72 92.6054 11.608C92.8134 11.496 92.9774 11.328 93.0974 11.104C93.2254 10.872 93.2894 10.592 93.2894 10.264V6.844H94.9094V13H93.4814L93.3614 12.04C93.1854 12.376 92.9294 12.644 92.5934 12.844C92.2574 13.044 91.8494 13.144 91.3694 13.144ZM99.1588 13.144C98.6068 13.144 98.1148 13.008 97.6828 12.736C97.2588 12.456 96.9268 12.076 96.6868 11.596C96.4468 11.116 96.3268 10.568 96.3268 9.952C96.3268 9.32 96.4508 8.76 96.6988 8.272C96.9468 7.784 97.2908 7.4 97.7308 7.12C98.1708 6.84 98.6708 6.7 99.2308 6.7C99.6548 6.7 100.027 6.78 100.347 6.94C100.675 7.1 100.935 7.324 101.127 7.612V4.36H102.747V13H101.307L101.127 12.16C101.007 12.336 100.859 12.5 100.683 12.652C100.507 12.804 100.295 12.924 100.047 13.012C99.7988 13.1 99.5028 13.144 99.1588 13.144ZM99.5668 11.728C99.8868 11.728 100.167 11.656 100.407 11.512C100.647 11.36 100.835 11.148 100.971 10.876C101.107 10.604 101.175 10.288 101.175 9.928C101.175 9.56 101.107 9.24 100.971 8.968C100.835 8.696 100.647 8.488 100.407 8.344C100.167 8.192 99.8868 8.116 99.5668 8.116C99.2628 8.116 98.9868 8.192 98.7388 8.344C98.4988 8.488 98.3108 8.696 98.1748 8.968C98.0388 9.24 97.9708 9.556 97.9708 9.916C97.9708 10.276 98.0388 10.596 98.1748 10.876C98.3108 11.148 98.4988 11.36 98.7388 11.512C98.9868 11.656 99.2628 11.728 99.5668 11.728Z" fill="white"/>
</svg>
