<svg width="47" height="47" viewBox="0 0 47 47" fill="none" xmlns="http://www.w3.org/2000/svg">
<path d="M33.2917 17.6248V13.7082C33.2917 8.22484 28.9834 3.9165 23.5 3.9165C18.0167 3.9165 13.7084 8.22484 13.7084 13.7082V17.6248C10.3792 17.6248 7.83337 20.1707 7.83337 23.4998V37.2082C7.83337 40.5373 10.3792 43.0832 13.7084 43.0832H33.2917C36.6209 43.0832 39.1667 40.5373 39.1667 37.2082V23.4998C39.1667 20.1707 36.6209 17.6248 33.2917 17.6248ZM17.625 13.7082C17.625 10.379 20.1709 7.83317 23.5 7.83317C26.8292 7.83317 29.375 10.379 29.375 13.7082V17.6248H17.625V13.7082ZM25.6542 30.354L25.4584 30.5498V33.2915C25.4584 34.4665 24.675 35.2498 23.5 35.2498C22.325 35.2498 21.5417 34.4665 21.5417 33.2915V30.5498C20.3667 29.3748 20.1709 27.6123 21.3459 26.4373C22.5209 25.2623 24.2834 25.0665 25.4584 26.2415C26.6334 27.2207 26.8292 29.179 25.6542 30.354Z" fill="url(#paint0_linear_71_80212)"/>
<defs>
<linearGradient id="paint0_linear_71_80212" x1="23.5" y1="3.9165" x2="23.5" y2="43.0832" gradientUnits="userSpaceOnUse">
<stop offset="1" stop-color="#50D3B2"/>
</linearGradient>
</defs>
</svg>
