<svg width="23" height="25" viewBox="0 0 23 25" fill="none" xmlns="http://www.w3.org/2000/svg">
<g clip-path="url(#clip0_1187_2539)">
<path fill-rule="evenodd" clip-rule="evenodd" d="M3.57141 5.29183V9.86916C3.93019 9.78227 4.28252 9.6676 4.62514 9.52569C5.49253 9.16638 6.28069 8.63975 6.94451 7.97587C7.60839 7.31205 8.13503 6.52387 8.49434 5.6565C8.71888 5.11439 8.87528 4.54797 8.96104 3.97017C7.12591 4.14784 5.31019 4.58839 3.57141 5.29183ZM0.207031 3.07982V10.0699V13.4343V13.5394C0.207031 19.404 4.96124 24.1582 10.8258 24.1582C16.6905 24.1582 21.4447 19.404 21.4447 13.5394V13.4343V10.0699V3.07982L19.8897 2.40295C14.1091 -0.113319 7.54261 -0.113319 1.762 2.40295L0.207031 3.07982ZM3.57203 13.6351C3.61533 16.9826 5.92593 19.7833 9.03853 20.572C9.03699 19.637 8.85211 18.7115 8.49434 17.8477C8.13503 16.9802 7.60839 16.1921 6.94451 15.5282C6.28069 14.8643 5.49253 14.3378 4.62514 13.9785C4.28272 13.8367 3.93059 13.722 3.57203 13.6351ZM10.7207 14.879C10.3184 14.2561 9.85035 13.6761 9.32354 13.1493C8.79666 12.6224 8.21666 12.1544 7.5938 11.752C8.21666 11.3498 8.79666 10.8817 9.32354 10.3549C9.85035 9.82802 10.3184 9.24801 10.7207 8.62515C11.123 9.24801 11.5911 9.82802 12.1179 10.3549C12.6447 10.8817 13.2248 11.3498 13.8476 11.752C13.2248 12.1544 12.6447 12.6224 12.1179 13.1493C11.5911 13.6761 11.123 14.2561 10.7207 14.879ZM12.4029 20.6219C15.6361 19.9052 18.0578 17.0311 18.0801 13.5875C17.6487 13.6783 17.2256 13.8089 16.8163 13.9785C15.9489 14.3378 15.1607 14.8643 14.4969 15.5282C13.833 16.1921 13.3064 16.9802 12.9471 17.8477C12.5878 18.715 12.4029 19.6447 12.4029 20.5836V20.6219ZM16.8163 9.52569C17.2256 9.69521 17.6488 9.82595 18.0803 9.91674V5.29183C16.2742 4.56117 14.3852 4.11414 12.4775 3.95073C12.5626 4.53526 12.72 5.10832 12.9471 5.6565C13.3064 6.52387 13.833 7.31205 14.4969 7.97587C15.1607 8.63975 15.9489 9.16638 16.8163 9.52569Z" fill="white"/>
</g>
<defs>
<clipPath id="clip0_1187_2539">
<rect width="21.8693" height="24.2335" fill="white" transform="translate(0.144531 0.370972)"/>
</clipPath>
</defs>
</svg>
