<svg width="26" height="21" viewBox="0 0 26 21" fill="none" xmlns="http://www.w3.org/2000/svg">
<g clip-path="url(#clip0_1187_2517)">
<path d="M19.4559 20.2403C22.6373 20.1763 25.1954 17.6106 25.1954 14.4565C25.1954 12.9225 24.5778 11.4514 23.4784 10.3667L13.7164 0.735229V6.72186C13.7164 7.72305 14.1195 8.68328 14.8371 9.39127L17.1239 11.6475L17.1302 11.6535L20.9646 15.4367C21.0891 15.5595 21.0891 15.7587 20.9646 15.8815C20.8401 16.0044 20.6381 16.0044 20.5137 15.8815L19.1919 14.5775H6.9654L5.64371 15.8815C5.51918 16.0044 5.31729 16.0044 5.19277 15.8815C5.06824 15.7587 5.06824 15.5595 5.19277 15.4367L9.02718 11.6535L9.03341 11.6475L11.3202 9.39127C12.0378 8.68328 12.4409 7.72305 12.4409 6.72186V0.735229L2.67891 10.3667C1.57953 11.4514 0.961914 12.9225 0.961914 14.4565C0.961914 17.6106 3.52004 20.1763 6.70145 20.2403H19.4559Z" fill="white"/>
</g>
<defs>
<clipPath id="clip0_1187_2517">
<rect width="24.2335" height="19.505" fill="white" transform="translate(0.961914 0.735229)"/>
</clipPath>
</defs>
</svg>
