<svg width="19" height="11" viewBox="0 0 19 11" fill="none" xmlns="http://www.w3.org/2000/svg">
<g clip-path="url(#clip0_1187_2550)">
<path d="M10.1241 0.639444C10.3585 0.397669 10.6768 0.261841 11.0082 0.261841C12.4994 0.261841 13.9046 0.261842 15.2885 0.261844C18.0718 0.26185 19.4656 3.7335 17.4975 5.76388L13.2104 10.1866C13.0136 10.3896 12.6771 10.2458 12.6771 9.95864V6.06331L13.1725 5.55219C13.5662 5.14613 13.2874 4.45178 12.7307 4.45178H6.42871L10.1241 0.639444Z" fill="white"/>
<path d="M8.9812 9.87568C8.74686 10.1175 8.42858 10.2533 8.09714 10.2533C6.606 10.2533 5.20075 10.2533 3.81688 10.2533C1.03352 10.2533 -0.360254 6.78163 1.60787 4.75122L5.89492 0.328567C6.09172 0.125527 6.42825 0.269329 6.42825 0.55647L6.42827 4.45177L5.93282 4.96291C5.5392 5.369 5.81797 6.06332 6.37465 6.06332L12.6767 6.0633L8.9812 9.87568Z" fill="white"/>
</g>
<defs>
<clipPath id="clip0_1187_2550">
<rect width="17.7318" height="10.048" fill="white" transform="translate(0.686523 0.233521)"/>
</clipPath>
</defs>
</svg>
