<svg width="21" height="25" viewBox="0 0 21 25" fill="none" xmlns="http://www.w3.org/2000/svg">
<g clip-path="url(#clip0_1187_2541)">
<path fill-rule="evenodd" clip-rule="evenodd" d="M17.5525 1.80995V0.37085H20.8297V13.6312C20.8297 19.3651 16.1988 24.0133 10.4862 24.0133C5.01453 24.0133 0.535198 19.749 0.167032 14.3508H0.142578V0.37085H3.41975V1.80995H8.94999V0.37085H12.2271V1.80995H17.5525ZM17.5525 13.6312V11.613C17.1839 11.9944 16.7888 12.3567 16.3695 12.6979C14.9854 13.8243 13.3594 14.7043 11.5908 15.3004C9.82204 15.8967 7.93472 16.201 6.03426 16.201H3.89785C4.92337 18.8479 7.48652 20.7239 10.4862 20.7239C14.3888 20.7239 17.5525 17.5484 17.5525 13.6312ZM9.26082 11.1539C8.63649 11.8182 7.93277 12.3942 7.16746 12.8674C8.33144 12.7762 9.47112 12.545 10.5475 12.1822C11.9715 11.7022 13.2463 11.0048 14.3057 10.1428C15.3645 9.2811 16.1816 8.27671 16.7304 7.1985C17.0769 6.51777 17.314 5.81291 17.4414 5.09934H12.1217C12.0017 5.97392 11.78 6.83227 11.4599 7.65456C10.9527 8.95744 10.2069 10.1473 9.26082 11.1539ZM3.41975 10.9004V5.09934H8.80062C8.7099 5.5636 8.57844 6.01834 8.40751 6.4573C8.05015 7.37528 7.5286 8.20342 6.87701 8.89668C6.22566 9.58969 5.45757 10.134 4.6193 10.5034C4.22998 10.675 3.82844 10.8076 3.41975 10.9004Z" fill="white"/>
</g>
<defs>
<clipPath id="clip0_1187_2541">
<rect width="20.6872" height="23.6425" fill="white" transform="translate(0.142578 0.37085)"/>
</clipPath>
</defs>
</svg>
