<svg width="214" height="41" viewBox="0 0 214 41" fill="none" xmlns="http://www.w3.org/2000/svg">
<path d="M194.205 24.7841H200.17L203.704 29.3651L206.225 32.348L212.28 40.125H205.888L201.768 34.9048L200.011 32.419L194.205 24.7841ZM213.15 18.8182C213.15 22.7363 212.416 26.0921 210.948 28.8857C209.492 31.6674 207.504 33.7981 204.982 35.2777C202.473 36.7573 199.626 37.4972 196.442 37.4972C193.258 37.4972 190.405 36.7573 187.884 35.2777C185.374 33.7862 183.385 31.6496 181.918 28.8679C180.462 26.0743 179.734 22.7244 179.734 18.8182C179.734 14.9001 180.462 11.5502 181.918 8.76847C183.385 5.97491 185.374 3.83831 187.884 2.35867C190.405 0.879026 193.258 0.139206 196.442 0.139206C199.626 0.139206 202.473 0.879026 204.982 2.35867C207.504 3.83831 209.492 5.97491 210.948 8.76847C212.416 11.5502 213.15 14.9001 213.15 18.8182ZM206.527 18.8182C206.527 16.0601 206.095 13.7341 205.231 11.8402C204.379 9.93442 203.195 8.49621 201.68 7.52557C200.165 6.54309 198.419 6.05185 196.442 6.05185C194.465 6.05185 192.719 6.54309 191.204 7.52557C189.689 8.49621 188.499 9.93442 187.635 11.8402C186.783 13.7341 186.357 16.0601 186.357 18.8182C186.357 21.5762 186.783 23.9081 187.635 25.8139C188.499 27.7079 189.689 29.1461 191.204 30.1286C192.719 31.0992 194.465 31.5845 196.442 31.5845C198.419 31.5845 200.165 31.0992 201.68 30.1286C203.195 29.1461 204.379 27.7079 205.231 25.8139C206.095 23.9081 206.527 21.5762 206.527 18.8182Z" fill="#FFFEFE"/>
<path d="M173.524 0.636364V37H166.936V0.636364H173.524Z" fill="#FFFEFE"/>
<path d="M143.783 9.72728L149.287 19.7948L154.88 9.72728H161.681L153.46 23.3636L161.823 37H155.058L149.287 27.1811L143.57 37H136.752L145.061 23.3636L136.965 9.72728H143.783Z" fill="#FFFEFE"/>
<path d="M117.664 37.5504C115.936 37.5504 114.379 37.2427 112.995 36.6271C111.621 35.9998 110.532 35.0765 109.727 33.8572C108.934 32.638 108.538 31.1347 108.538 29.3473C108.538 27.8085 108.822 26.536 109.39 25.5298C109.958 24.5237 110.734 23.7188 111.716 23.1151C112.699 22.5114 113.805 22.0556 115.036 21.7479C116.279 21.4283 117.564 21.1974 118.889 21.0554C120.487 20.8897 121.784 20.7417 122.778 20.6115C123.772 20.4695 124.494 20.2564 124.944 19.9723C125.406 19.6764 125.637 19.2206 125.637 18.6051V18.4986C125.637 17.161 125.24 16.1252 124.447 15.3913C123.654 14.6574 122.512 14.2905 121.02 14.2905C119.446 14.2905 118.197 14.6338 117.274 15.3203C116.362 16.0069 115.747 16.8177 115.427 17.7528L109.426 16.9006C109.899 15.2434 110.68 13.8584 111.769 12.7457C112.858 11.6212 114.19 10.7808 115.764 10.2244C117.339 9.65625 119.079 9.37216 120.985 9.37216C122.298 9.37216 123.607 9.52604 124.909 9.83381C126.211 10.1416 127.4 10.6506 128.477 11.3608C129.555 12.0592 130.419 13.0121 131.07 14.2195C131.733 15.4268 132.064 16.9361 132.064 18.7472V37H125.885V33.2536H125.672C125.281 34.0111 124.731 34.7214 124.021 35.3842C123.322 36.0353 122.441 36.562 121.375 36.9645C120.322 37.3551 119.085 37.5504 117.664 37.5504ZM119.333 32.8274C120.624 32.8274 121.742 32.5729 122.689 32.0639C123.636 31.5431 124.364 30.8565 124.873 30.0043C125.394 29.152 125.654 28.2228 125.654 27.2166V24.0028C125.453 24.1686 125.11 24.3224 124.624 24.4645C124.151 24.6065 123.618 24.7308 123.026 24.8374C122.435 24.9439 121.849 25.0386 121.269 25.1215C120.689 25.2043 120.186 25.2753 119.759 25.3345C118.801 25.4647 117.942 25.6778 117.185 25.9737C116.427 26.2697 115.83 26.6839 115.392 27.2166C114.954 27.7375 114.735 28.4122 114.735 29.2408C114.735 30.4245 115.167 31.3182 116.031 31.9219C116.895 32.5256 117.996 32.8274 119.333 32.8274Z" fill="#FFFEFE"/>
<path d="M90.4803 37V9.72728H96.7125V14.2727H96.9966C97.4938 12.6984 98.346 11.4851 99.5534 10.6328C100.773 9.76871 102.164 9.33665 103.726 9.33665C104.081 9.33665 104.478 9.35441 104.916 9.38992C105.365 9.41359 105.738 9.45503 106.034 9.51421V15.4269C105.762 15.3322 105.33 15.2493 104.738 15.1783C104.158 15.0954 103.596 15.054 103.051 15.054C101.879 15.054 100.826 15.3085 99.8908 15.8175C98.9675 16.3146 98.2395 17.0071 97.7068 17.8949C97.1742 18.7827 96.9078 19.8066 96.9078 20.9666V37H90.4803Z" fill="#FFFEFE"/>
<path d="M58.5867 37V0.636364H72.223C75.0166 0.636364 77.3603 1.1572 79.2543 2.19886C81.1601 3.24053 82.5983 4.67282 83.5689 6.49574C84.5514 8.30682 85.0426 10.3665 85.0426 12.6747C85.0426 15.0066 84.5514 17.0781 83.5689 18.8892C82.5864 20.7003 81.1364 22.1267 79.2188 23.1683C77.3012 24.1982 74.9397 24.7131 72.1343 24.7131H63.0966V19.2976H71.2465C72.88 19.2976 74.2176 19.0135 75.2593 18.4453C76.3009 17.8771 77.0703 17.0959 77.5675 16.1016C78.0765 15.1072 78.331 13.965 78.331 12.6747C78.331 11.3845 78.0765 10.2481 77.5675 9.26563C77.0703 8.28315 76.295 7.51965 75.2415 6.97514C74.1998 6.4188 72.8563 6.14063 71.211 6.14063H65.174V37H58.5867Z" fill="#FFFEFE"/>
<g clip-path="url(#clip0_376_1601)">
<path d="M5.59537 27.97C7.09501 29.016 9.52641 29.016 11.0261 27.97C12.5257 26.9239 12.5257 25.228 11.0261 24.1819C9.52641 23.1359 7.09501 23.1359 5.59537 24.1819C4.09573 25.228 4.09573 26.9239 5.59537 27.97Z" fill="white"/>
<path d="M21.1603 13.7651C23.4098 15.3341 27.0569 15.3341 29.3064 13.7651C31.5558 12.196 31.5558 9.65211 29.3064 8.08309C27.0569 6.51405 23.4098 6.51405 21.1603 8.08309C18.9109 9.65211 18.9109 12.196 21.1603 13.7651Z" fill="white"/>
<path d="M12.8978 20.8675C14.7723 22.175 17.8116 22.175 19.6861 20.8675C21.5607 19.5599 21.5607 17.44 19.6861 16.1325C17.8116 14.825 14.7723 14.825 12.8978 16.1325C11.0232 17.44 11.0232 19.5599 12.8978 20.8675Z" fill="white"/>
<path d="M0.843546 19.9205C1.96827 20.705 3.79182 20.705 4.91655 19.9205C6.04127 19.136 6.04127 17.8641 4.91655 17.0795C3.79182 16.295 1.96827 16.295 0.843546 17.0795C-0.281183 17.8641 -0.281182 19.136 0.843546 19.9205Z" fill="white"/>
<path d="M12.8978 5.7156C14.7723 7.02312 17.8116 7.02312 19.6861 5.7156C21.5607 4.40808 21.5607 2.28817 19.6861 0.980645C17.8116 -0.326881 14.7723 -0.326882 12.8978 0.980645C11.0232 2.28817 11.0232 4.40808 12.8978 5.7156Z" fill="white"/>
<path d="M5.59537 12.8181C7.09501 13.8641 9.5264 13.8641 11.0261 12.8181C12.5257 11.772 12.5257 10.0761 11.0261 9.03009C9.5264 7.98407 7.09501 7.98407 5.59537 9.03009C4.09573 10.0761 4.09574 11.772 5.59537 12.8181Z" fill="white"/>
<path d="M12.8978 36.0194C14.7723 37.3269 17.8116 37.3269 19.6861 36.0194C21.5607 34.7118 21.5607 32.5919 19.6861 31.2844C17.8116 29.9769 14.7723 29.9769 12.8978 31.2844C11.0232 32.5919 11.0232 34.7118 12.8978 36.0194Z" fill="white"/>
<path d="M31.0616 21.341C33.3111 22.91 36.9582 22.91 39.2076 21.341C41.4571 19.772 41.4571 17.2281 39.2076 15.6591C36.9582 14.09 33.3111 14.09 31.0616 15.6591C28.8122 17.2281 28.8122 19.772 31.0616 21.341Z" fill="white"/>
<path d="M21.1603 28.9169C23.4098 30.486 27.0569 30.486 29.3064 28.9169C31.5558 27.3479 31.5558 24.804 29.3064 23.2349C27.0569 21.6659 23.4098 21.6659 21.1603 23.2349C18.9109 24.804 18.9109 27.3479 21.1603 28.9169Z" fill="white"/>
</g>
<defs>
<clipPath id="clip0_376_1601">
<rect width="40.8947" height="37" fill="white"/>
</clipPath>
</defs>
</svg>
