<svg width="92" height="92" viewBox="0 0 92 92" fill="none" xmlns="http://www.w3.org/2000/svg">
<path d="M44.9375 17C28.6843 17 15.4375 30.1529 15.4375 46.5C15.4375 54.3239 18.5455 61.8273 24.0778 67.3596C29.6102 72.892 37.1136 76 44.9375 76C52.7614 76 60.2648 72.892 65.7971 67.3596C71.3295 61.8273 74.4375 54.3239 74.4375 46.5C74.4375 30.1529 61.1907 17 44.9375 17ZM44.9375 61.25C36.7639 61.25 30.1875 54.6736 30.1875 46.5C30.1875 38.3264 36.7639 31.75 44.9375 31.75C53.1111 31.75 73 38.3264 73 46.5C73 54.6736 53.1111 61.25 44.9375 61.25Z" fill="#B951CE"/>
</svg>
