<svg width="92" height="92" viewBox="0 0 92 92" fill="none" xmlns="http://www.w3.org/2000/svg">
<path fill-rule="evenodd" clip-rule="evenodd" d="M27.4247 18.1025H64.5735C65.7981 18.1022 67.0107 18.3431 68.1421 18.8115C69.2736 19.2799 70.3016 19.9665 71.1677 20.8323C72.0337 21.6981 72.7207 22.7259 73.1894 23.8572C73.6581 24.9885 73.8994 26.2011 73.8994 27.4256V64.5717C73.8994 69.7223 69.7239 73.8976 64.5735 73.8976H27.4247C22.2753 73.8961 18.1016 69.7213 18.1016 64.5717V27.4256C18.1016 22.2765 22.2755 18.1025 27.4247 18.1025ZM60.8188 63.7543C62.4439 63.7543 63.7614 62.4368 63.7614 60.8116L63.7533 31.191C63.7533 29.5659 62.4358 28.2486 60.8106 28.2486H31.1929C30.8062 28.2486 30.4233 28.3248 30.0662 28.4729C29.709 28.6209 29.3845 28.8379 29.1112 29.1114C28.8379 29.3849 28.6212 29.7096 28.4734 30.0669C28.3257 30.4243 28.2498 30.8072 28.2502 31.1938V60.8116C28.2502 62.4368 29.5677 63.7543 31.1929 63.7543H60.8188Z" fill="#3B7538"/>
<path d="M40.0821 53.5652C39.6365 53.5618 39.2102 53.3823 38.8963 53.0659C38.5824 52.7495 38.4063 52.3219 38.4063 51.8762V40.0517C38.4052 39.8292 38.4481 39.6087 38.5325 39.4028C38.6169 39.1969 38.7412 39.0098 38.8981 38.8521C39.0551 38.6944 39.2416 38.5692 39.4471 38.4838C39.6525 38.3984 39.8728 38.3545 40.0953 38.3545H51.9363C52.1587 38.3549 52.3788 38.3992 52.5841 38.4847C52.7893 38.5703 52.9757 38.6954 53.1326 38.853C53.2894 39.0107 53.4137 39.1976 53.4983 39.4033C53.5828 39.609 53.626 39.8293 53.6254 40.0517V51.8734C53.6262 52.0958 53.583 52.3162 53.4985 52.5219C53.414 52.7277 53.2898 52.9147 53.1329 53.0724C52.976 53.2301 52.7896 53.3552 52.5842 53.4408C52.3789 53.5263 52.1587 53.5705 51.9363 53.5708L40.0821 53.5652Z" fill="#3B7538"/>
</svg>
