<svg width="343" height="463" viewBox="0 0 343 463" fill="none" xmlns="http://www.w3.org/2000/svg">
<g filter="url(#filter0_d_441_1558)">
<rect width="341" height="460.681" rx="12" transform="matrix(-1 0 0 1 341 0)" fill="#1C1D1D"/>
</g>
<path d="M33.2158 53.3398L30.1438 42.7798H32.4958L34.5758 51.4998L36.6878 42.7798H38.7998L40.9438 51.4998L43.0078 42.7798H45.2638L42.1918 53.3398H39.7118L38.2398 47.5798L37.7438 45.0838H37.7118L37.2158 47.5798L35.7598 53.3398H33.2158ZM49.7195 53.4998C48.8768 53.4998 48.1408 53.3345 47.5115 53.0038C46.8928 52.6732 46.4128 52.1985 46.0715 51.5798C45.7301 50.9612 45.5595 50.2145 45.5595 49.3398C45.5595 48.4652 45.7301 47.7185 46.0715 47.0998C46.4128 46.4812 46.8875 46.0065 47.4955 45.6758C48.1141 45.3452 48.8181 45.1798 49.6075 45.1798C50.4181 45.1798 51.1061 45.3452 51.6715 45.6758C52.2368 45.9958 52.6688 46.4385 52.9675 47.0038C53.2661 47.5585 53.4155 48.1932 53.4155 48.9078C53.4155 49.1212 53.4101 49.3238 53.3995 49.5158C53.3888 49.7078 53.3728 49.8785 53.3515 50.0278H46.9675V48.5078H52.3915L51.3355 48.8918C51.3355 48.2198 51.1808 47.7025 50.8715 47.3398C50.5728 46.9772 50.1461 46.7958 49.5915 46.7958C49.1861 46.7958 48.8341 46.8918 48.5355 47.0838C48.2475 47.2758 48.0288 47.5638 47.8795 47.9478C47.7301 48.3212 47.6555 48.7958 47.6555 49.3718C47.6555 49.9372 47.7355 50.4065 47.8955 50.7798C48.0661 51.1425 48.3008 51.4145 48.5995 51.5958C48.9088 51.7772 49.2768 51.8678 49.7035 51.8678C50.1728 51.8678 50.5515 51.7772 50.8395 51.5958C51.1275 51.4145 51.3515 51.1638 51.5115 50.8438L53.2555 51.5158C53.0848 51.9318 52.8235 52.2892 52.4715 52.5878C52.1301 52.8865 51.7195 53.1158 51.2395 53.2758C50.7701 53.4252 50.2635 53.4998 49.7195 53.4998ZM59.9771 53.4998C59.4864 53.4998 59.0384 53.3985 58.6331 53.1958C58.2384 52.9825 57.9078 52.6945 57.6411 52.3318C57.3851 51.9585 57.2091 51.5425 57.1131 51.0838L57.3371 50.7958L57.2091 53.3398H55.2731V41.8358H57.4651V47.5958L57.2571 47.2598C57.4278 46.6625 57.7531 46.1665 58.2331 45.7718C58.7131 45.3772 59.3158 45.1798 60.0411 45.1798C60.6704 45.1798 61.2411 45.3452 61.7531 45.6758C62.2651 46.0065 62.6651 46.4812 62.9531 47.0998C63.2518 47.7185 63.4011 48.4705 63.4011 49.3558C63.4011 50.2198 63.2518 50.9612 62.9531 51.5798C62.6651 52.1985 62.2598 52.6732 61.7371 53.0038C61.2251 53.3345 60.6384 53.4998 59.9771 53.4998ZM59.3211 51.8198C59.9078 51.8198 60.3664 51.6118 60.6971 51.1958C61.0384 50.7692 61.2091 50.1505 61.2091 49.3398C61.2091 48.5292 61.0438 47.9158 60.7131 47.4998C60.3824 47.0732 59.9238 46.8598 59.3371 46.8598C58.9531 46.8598 58.6224 46.9612 58.3451 47.1638C58.0678 47.3665 57.8491 47.6545 57.6891 48.0278C57.5398 48.4012 57.4651 48.8438 57.4651 49.3558C57.4651 49.8785 57.5398 50.3265 57.6891 50.6998C57.8491 51.0625 58.0678 51.3398 58.3451 51.5318C58.6331 51.7238 58.9584 51.8198 59.3211 51.8198ZM68.5043 53.4998C67.6937 53.4998 66.9523 53.3558 66.2803 53.0678C65.619 52.7798 65.0803 52.3745 64.6643 51.8518L65.9283 50.5718C66.1843 50.9558 66.5257 51.2705 66.9523 51.5158C67.379 51.7612 67.8857 51.8838 68.4723 51.8838C68.8883 51.8838 69.219 51.8252 69.4643 51.7078C69.7203 51.5798 69.8483 51.3825 69.8483 51.1158C69.8483 50.9452 69.7897 50.8012 69.6723 50.6838C69.555 50.5558 69.3203 50.4545 68.9683 50.3798L67.5603 50.0918C66.6323 49.8998 65.971 49.6118 65.5763 49.2278C65.1923 48.8332 65.0003 48.3265 65.0003 47.7078C65.0003 47.2705 65.1283 46.8598 65.3843 46.4758C65.651 46.0918 66.0457 45.7825 66.5683 45.5478C67.091 45.3025 67.7417 45.1798 68.5203 45.1798C69.3203 45.1798 70.0137 45.3078 70.6003 45.5638C71.1977 45.8092 71.667 46.1772 72.0083 46.6678L70.6963 47.9478C70.4617 47.5745 70.1523 47.2918 69.7683 47.0998C69.395 46.8972 69.0003 46.7958 68.5843 46.7958C68.2857 46.7958 68.0297 46.8278 67.8163 46.8918C67.603 46.9558 67.443 47.0465 67.3363 47.1638C67.2297 47.2705 67.1763 47.4092 67.1763 47.5798C67.1763 47.7505 67.251 47.8998 67.4003 48.0278C67.5497 48.1452 67.8217 48.2465 68.2163 48.3318L69.8483 48.6678C70.6377 48.8278 71.203 49.0998 71.5443 49.4838C71.8857 49.8572 72.0563 50.3105 72.0563 50.8438C72.0563 51.3558 71.9177 51.8145 71.6403 52.2198C71.3737 52.6145 70.9737 52.9292 70.4403 53.1638C69.9177 53.3878 69.2723 53.4998 68.5043 53.4998ZM74.9083 44.1878C74.4497 44.1878 74.1083 44.0918 73.8843 43.8998C73.6603 43.6972 73.5483 43.4038 73.5483 43.0198C73.5483 42.6252 73.6603 42.3318 73.8843 42.1398C74.1083 41.9372 74.4497 41.8358 74.9083 41.8358C75.367 41.8358 75.7083 41.9372 75.9323 42.1398C76.1563 42.3318 76.2683 42.6252 76.2683 43.0198C76.2683 43.4038 76.1563 43.6972 75.9323 43.8998C75.7083 44.0918 75.367 44.1878 74.9083 44.1878ZM75.9963 45.3398V53.3398H73.8043V45.3398H75.9963ZM81.152 42.8918V50.7318C81.152 51.1158 81.248 51.3985 81.44 51.5798C81.6426 51.7505 81.9146 51.8358 82.256 51.8358C82.5226 51.8358 82.7573 51.7985 82.96 51.7238C83.1626 51.6385 83.344 51.5265 83.504 51.3878L83.856 52.8438C83.6 53.0465 83.28 53.2065 82.896 53.3238C82.512 53.4412 82.1066 53.4998 81.68 53.4998C81.1466 53.4998 80.672 53.4198 80.256 53.2598C79.8506 53.0998 79.5306 52.8438 79.296 52.4918C79.072 52.1398 78.96 51.6705 78.96 51.0838V43.4998L81.152 42.8918ZM83.712 45.3398V46.9718H77.488V45.3398H83.712ZM88.907 53.4998C88.0643 53.4998 87.3283 53.3345 86.699 53.0038C86.0803 52.6732 85.6003 52.1985 85.259 51.5798C84.9176 50.9612 84.747 50.2145 84.747 49.3398C84.747 48.4652 84.9176 47.7185 85.259 47.0998C85.6003 46.4812 86.075 46.0065 86.683 45.6758C87.3016 45.3452 88.0056 45.1798 88.795 45.1798C89.6056 45.1798 90.2936 45.3452 90.859 45.6758C91.4243 45.9958 91.8563 46.4385 92.155 47.0038C92.4536 47.5585 92.603 48.1932 92.603 48.9078C92.603 49.1212 92.5976 49.3238 92.587 49.5158C92.5763 49.7078 92.5603 49.8785 92.539 50.0278H86.155V48.5078H91.579L90.523 48.8918C90.523 48.2198 90.3683 47.7025 90.059 47.3398C89.7603 46.9772 89.3336 46.7958 88.779 46.7958C88.3736 46.7958 88.0216 46.8918 87.723 47.0838C87.435 47.2758 87.2163 47.5638 87.067 47.9478C86.9176 48.3212 86.843 48.7958 86.843 49.3718C86.843 49.9372 86.923 50.4065 87.083 50.7798C87.2536 51.1425 87.4883 51.4145 87.787 51.5958C88.0963 51.7772 88.4643 51.8678 88.891 51.8678C89.3603 51.8678 89.739 51.7772 90.027 51.5958C90.315 51.4145 90.539 51.1638 90.699 50.8438L92.443 51.5158C92.2723 51.9318 92.011 52.2892 91.659 52.5878C91.3176 52.8865 90.907 53.1158 90.427 53.2758C89.9576 53.4252 89.451 53.4998 88.907 53.4998ZM108.211 42.7798L104.371 53.3398H101.795L97.9388 42.7798H100.275L102.499 49.4998L103.107 51.5798L103.699 49.5158L105.939 42.7798H108.211ZM110.69 44.1878C110.231 44.1878 109.89 44.0918 109.666 43.8998C109.442 43.6972 109.33 43.4038 109.33 43.0198C109.33 42.6252 109.442 42.3318 109.666 42.1398C109.89 41.9372 110.231 41.8358 110.69 41.8358C111.148 41.8358 111.49 41.9372 111.714 42.1398C111.938 42.3318 112.05 42.6252 112.05 43.0198C112.05 43.4038 111.938 43.6972 111.714 43.8998C111.49 44.0918 111.148 44.1878 110.69 44.1878ZM111.778 45.3398V53.3398H109.586V45.3398H111.778ZM117.301 53.4998C116.491 53.4998 115.749 53.3558 115.077 53.0678C114.416 52.7798 113.877 52.3745 113.461 51.8518L114.725 50.5718C114.981 50.9558 115.323 51.2705 115.749 51.5158C116.176 51.7612 116.683 51.8838 117.269 51.8838C117.685 51.8838 118.016 51.8252 118.261 51.7078C118.517 51.5798 118.645 51.3825 118.645 51.1158C118.645 50.9452 118.587 50.8012 118.469 50.6838C118.352 50.5558 118.117 50.4545 117.765 50.3798L116.357 50.0918C115.429 49.8998 114.768 49.6118 114.373 49.2278C113.989 48.8332 113.797 48.3265 113.797 47.7078C113.797 47.2705 113.925 46.8598 114.181 46.4758C114.448 46.0918 114.843 45.7825 115.365 45.5478C115.888 45.3025 116.539 45.1798 117.317 45.1798C118.117 45.1798 118.811 45.3078 119.397 45.5638C119.995 45.8092 120.464 46.1772 120.805 46.6678L119.493 47.9478C119.259 47.5745 118.949 47.2918 118.565 47.0998C118.192 46.8972 117.797 46.7958 117.381 46.7958C117.083 46.7958 116.827 46.8278 116.613 46.8918C116.4 46.9558 116.24 47.0465 116.133 47.1638C116.027 47.2705 115.973 47.4092 115.973 47.5798C115.973 47.7505 116.048 47.8998 116.197 48.0278C116.347 48.1452 116.619 48.2465 117.013 48.3318L118.645 48.6678C119.435 48.8278 120 49.0998 120.341 49.4838C120.683 49.8572 120.853 50.3105 120.853 50.8438C120.853 51.3558 120.715 51.8145 120.437 52.2198C120.171 52.6145 119.771 52.9292 119.237 53.1638C118.715 53.3878 118.069 53.4998 117.301 53.4998ZM123.705 44.1878C123.247 44.1878 122.905 44.0918 122.681 43.8998C122.457 43.6972 122.345 43.4038 122.345 43.0198C122.345 42.6252 122.457 42.3318 122.681 42.1398C122.905 41.9372 123.247 41.8358 123.705 41.8358C124.164 41.8358 124.505 41.9372 124.729 42.1398C124.953 42.3318 125.065 42.6252 125.065 43.0198C125.065 43.4038 124.953 43.6972 124.729 43.8998C124.505 44.0918 124.164 44.1878 123.705 44.1878ZM124.793 45.3398V53.3398H122.601V45.3398H124.793ZM129.949 42.8918V50.7318C129.949 51.1158 130.045 51.3985 130.237 51.5798C130.44 51.7505 130.712 51.8358 131.053 51.8358C131.32 51.8358 131.554 51.7985 131.757 51.7238C131.96 51.6385 132.141 51.5265 132.301 51.3878L132.653 52.8438C132.397 53.0465 132.077 53.2065 131.693 53.3238C131.309 53.4412 130.904 53.4998 130.477 53.4998C129.944 53.4998 129.469 53.4198 129.053 53.2598C128.648 53.0998 128.328 52.8438 128.093 52.4918C127.869 52.1398 127.757 51.6705 127.757 51.0838V43.4998L129.949 42.8918ZM132.509 45.3398V46.9718H126.285V45.3398H132.509ZM137.64 45.1798C138.451 45.1798 139.16 45.3452 139.768 45.6758C140.387 46.0065 140.867 46.4812 141.208 47.0998C141.56 47.7185 141.736 48.4652 141.736 49.3398C141.736 50.2038 141.56 50.9505 141.208 51.5798C140.867 52.1985 140.387 52.6732 139.768 53.0038C139.16 53.3345 138.451 53.4998 137.64 53.4998C136.84 53.4998 136.131 53.3345 135.512 53.0038C134.893 52.6732 134.408 52.1985 134.056 51.5798C133.715 50.9505 133.544 50.2038 133.544 49.3398C133.544 48.4652 133.715 47.7185 134.056 47.0998C134.408 46.4812 134.893 46.0065 135.512 45.6758C136.131 45.3452 136.84 45.1798 137.64 45.1798ZM137.64 46.8118C137.235 46.8118 136.888 46.9078 136.6 47.0998C136.323 47.2812 136.109 47.5585 135.96 47.9318C135.811 48.3052 135.736 48.7745 135.736 49.3398C135.736 49.9052 135.811 50.3745 135.96 50.7478C136.109 51.1212 136.323 51.4038 136.6 51.5958C136.888 51.7772 137.235 51.8678 137.64 51.8678C138.035 51.8678 138.371 51.7772 138.648 51.5958C138.936 51.4038 139.155 51.1212 139.304 50.7478C139.453 50.3745 139.528 49.9052 139.528 49.3398C139.528 48.7745 139.453 48.3052 139.304 47.9318C139.155 47.5585 138.936 47.2812 138.648 47.0998C138.371 46.9078 138.035 46.8118 137.64 46.8118ZM143.57 53.3398V45.3398H145.474L145.618 46.9078C145.831 46.3532 146.141 45.9265 146.546 45.6278C146.962 45.3292 147.479 45.1798 148.098 45.1798C148.279 45.1798 148.445 45.1958 148.594 45.2278C148.743 45.2598 148.866 45.3025 148.962 45.3558L148.706 47.1958C148.599 47.1532 148.466 47.1212 148.306 47.0998C148.157 47.0785 147.959 47.0678 147.714 47.0678C147.394 47.0678 147.085 47.1478 146.786 47.3078C146.487 47.4572 146.242 47.6918 146.05 48.0118C145.858 48.3212 145.762 48.7158 145.762 49.1958V53.3398H143.57ZM153.301 53.4998C152.491 53.4998 151.749 53.3558 151.077 53.0678C150.416 52.7798 149.877 52.3745 149.461 51.8518L150.725 50.5718C150.981 50.9558 151.323 51.2705 151.749 51.5158C152.176 51.7612 152.683 51.8838 153.269 51.8838C153.685 51.8838 154.016 51.8252 154.261 51.7078C154.517 51.5798 154.645 51.3825 154.645 51.1158C154.645 50.9452 154.587 50.8012 154.469 50.6838C154.352 50.5558 154.117 50.4545 153.765 50.3798L152.357 50.0918C151.429 49.8998 150.768 49.6118 150.373 49.2278C149.989 48.8332 149.797 48.3265 149.797 47.7078C149.797 47.2705 149.925 46.8598 150.181 46.4758C150.448 46.0918 150.843 45.7825 151.365 45.5478C151.888 45.3025 152.539 45.1798 153.317 45.1798C154.117 45.1798 154.811 45.3078 155.397 45.5638C155.995 45.8092 156.464 46.1772 156.805 46.6678L155.493 47.9478C155.259 47.5745 154.949 47.2918 154.565 47.0998C154.192 46.8972 153.797 46.7958 153.381 46.7958C153.083 46.7958 152.827 46.8278 152.613 46.8918C152.4 46.9558 152.24 47.0465 152.133 47.1638C152.027 47.2705 151.973 47.4092 151.973 47.5798C151.973 47.7505 152.048 47.8998 152.197 48.0278C152.347 48.1452 152.619 48.2465 153.013 48.3318L154.645 48.6678C155.435 48.8278 156 49.0998 156.341 49.4838C156.683 49.8572 156.853 50.3105 156.853 50.8438C156.853 51.3558 156.715 51.8145 156.437 52.2198C156.171 52.6145 155.771 52.9292 155.237 53.1638C154.715 53.3878 154.069 53.4998 153.301 53.4998Z" fill="white"/>
<rect x="242.113" y="32.9287" width="74" height="30" rx="4" fill="#2C3533"/>
<path d="M249.202 51.9287H255.346V50.7887H250.51V47.9927H254.746V46.9367H250.51V44.3087H255.334V43.1807H249.202V51.9287ZM255.915 51.9287H257.307L259.155 49.4447H259.227L261.003 51.9287H262.455L260.055 48.6167L262.215 45.5807H260.811L259.263 47.8007H259.203L257.631 45.5807H256.167L258.387 48.6527L255.915 51.9287ZM263.296 53.9327H264.532V50.6807H264.604C264.916 51.4967 265.708 52.0367 266.764 52.0367C268.312 52.0367 269.356 50.8847 269.356 48.7607C269.356 46.6367 268.312 45.4727 266.764 45.4727C265.708 45.4727 264.916 46.0247 264.604 46.8287H264.532L264.484 45.5807H263.296V53.9327ZM266.332 51.0167C265.156 51.0167 264.544 50.0927 264.544 49.1087V48.4007C264.544 47.4167 265.156 46.4927 266.332 46.4927C267.388 46.4927 268.096 47.2607 268.096 48.7607C268.096 50.2487 267.388 51.0167 266.332 51.0167ZM273.46 52.0367C275.368 52.0367 276.556 50.7047 276.556 48.7607C276.556 46.7447 275.308 45.4847 273.46 45.4847C271.54 45.4847 270.352 46.8167 270.352 48.7727C270.352 50.7647 271.6 52.0367 273.46 52.0367ZM273.46 51.0047C272.332 51.0047 271.612 50.1887 271.612 48.7727C271.612 47.3087 272.356 46.5047 273.46 46.5047C274.6 46.5047 275.296 47.3327 275.296 48.7607C275.296 50.2007 274.564 51.0047 273.46 51.0047ZM277.85 51.9287H279.074V48.3047C279.134 47.2607 279.77 46.6727 280.898 46.6727C281.042 46.6727 281.186 46.6727 281.282 46.6847V45.5207C281.174 45.5087 281.054 45.4967 280.91 45.4967C280.07 45.4967 279.35 45.8927 279.074 46.7087H279.014L278.954 45.5807H277.85V51.9287ZM284.444 51.9287H285.716V50.9087H284.852C284.456 50.9087 284.312 50.8007 284.312 50.3807V46.5887H285.716V45.5807H284.312V43.6007L283.076 43.7447V45.5807H281.876V46.5887H283.076V50.6087C283.076 51.4607 283.4 51.9287 284.444 51.9287Z" fill="#FAF3F3"/>
<path d="M303.115 42.9287V52.9287" stroke="#FAF3F3" stroke-width="1.2" stroke-linecap="round" stroke-linejoin="round"/>
<path d="M299.023 48.8369L303.114 52.9278L307.205 48.8369" stroke="#FAF3F3" stroke-width="1.2" stroke-linecap="round" stroke-linejoin="round"/>
<rect x="30.7422" y="325.841" width="7" height="7" rx="3.5" fill="#00F6FF"/>
<path d="M50.9782 324.961C51.8555 324.961 52.6115 325.157 53.2462 325.549C53.8902 325.931 54.3849 326.477 54.7302 327.187C55.0849 327.896 55.2622 328.741 55.2622 329.721C55.2622 330.701 55.0849 331.545 54.7302 332.255C54.3849 332.964 53.8902 333.515 53.2462 333.907C52.6115 334.289 51.8555 334.481 50.9782 334.481C50.1009 334.481 49.3402 334.289 48.6962 333.907C48.0615 333.515 47.5669 332.964 47.2122 332.255C46.8669 331.545 46.6942 330.701 46.6942 329.721C46.6942 328.741 46.8669 327.896 47.2122 327.187C47.5669 326.477 48.0615 325.931 48.6962 325.549C49.3402 325.157 50.1009 324.961 50.9782 324.961ZM50.9782 326.011C50.3435 326.011 49.7929 326.16 49.3262 326.459C48.8595 326.748 48.5002 327.173 48.2482 327.733C47.9962 328.283 47.8702 328.946 47.8702 329.721C47.8702 330.495 47.9962 331.163 48.2482 331.723C48.5002 332.273 48.8595 332.698 49.3262 332.997C49.7929 333.286 50.3435 333.431 50.9782 333.431C51.6222 333.431 52.1729 333.286 52.6302 332.997C53.0969 332.698 53.4562 332.273 53.7082 331.723C53.9602 331.163 54.0862 330.495 54.0862 329.721C54.0862 328.946 53.9602 328.283 53.7082 327.733C53.4562 327.173 53.0969 326.748 52.6302 326.459C52.1729 326.16 51.6222 326.011 50.9782 326.011ZM57.4485 334.341V327.341H58.3585L58.5125 328.489C58.7085 328.059 58.9932 327.737 59.3665 327.523C59.7492 327.308 60.2112 327.201 60.7525 327.201C60.8738 327.201 61.0045 327.21 61.1445 327.229C61.2938 327.247 61.4198 327.285 61.5225 327.341L61.3265 328.363C61.2238 328.325 61.1118 328.297 60.9905 328.279C60.8692 328.26 60.6965 328.251 60.4725 328.251C60.1832 328.251 59.8892 328.335 59.5905 328.503C59.3012 328.671 59.0585 328.927 58.8625 329.273C58.6665 329.609 58.5685 330.038 58.5685 330.561V334.341H57.4485ZM68.7019 326.053L68.9539 327.047C68.9445 327.047 68.9305 327.047 68.9119 327.047C68.8932 327.047 68.8745 327.047 68.8559 327.047C68.3985 327.047 68.0439 327.14 67.7919 327.327C67.5492 327.504 67.4279 327.793 67.4279 328.195L66.7419 327.845C66.7419 327.481 66.8259 327.163 66.9939 326.893C67.1619 326.622 67.3905 326.417 67.6799 326.277C67.9692 326.127 68.2865 326.053 68.6319 326.053C68.6412 326.053 68.6505 326.053 68.6599 326.053C68.6785 326.053 68.6925 326.053 68.7019 326.053ZM66.5739 333.445C67.2365 333.445 67.7545 333.599 68.1279 333.907C68.5012 334.205 68.6879 334.607 68.6879 335.111C68.6879 335.568 68.5339 335.965 68.2259 336.301C67.9272 336.637 67.5212 336.893 67.0079 337.071C66.5039 337.257 65.9345 337.351 65.2999 337.351C64.1985 337.351 63.3725 337.164 62.8219 336.791C62.2805 336.417 62.0099 335.969 62.0099 335.447C62.0099 335.073 62.1312 334.737 62.3739 334.439C62.6259 334.149 63.0459 333.986 63.6339 333.949L63.5359 334.159C63.2185 334.075 62.9479 333.935 62.7239 333.739C62.5092 333.533 62.4019 333.239 62.4019 332.857C62.4019 332.474 62.5419 332.147 62.8219 331.877C63.1112 331.597 63.5359 331.424 64.0959 331.359L64.8379 331.737H64.6979C64.2405 331.783 63.9139 331.9 63.7179 332.087C63.5312 332.264 63.4379 332.46 63.4379 332.675C63.4379 332.936 63.5312 333.132 63.7179 333.263C63.9139 333.384 64.1845 333.445 64.5299 333.445H66.5739ZM65.2859 336.413C65.8272 336.413 66.2705 336.357 66.6159 336.245C66.9705 336.133 67.2319 335.988 67.3999 335.811C67.5679 335.633 67.6519 335.442 67.6519 335.237C67.6519 334.985 67.5492 334.784 67.3439 334.635C67.1479 334.485 66.7885 334.411 66.2659 334.411H64.1099C63.8112 334.411 63.5592 334.485 63.3539 334.635C63.1485 334.793 63.0459 335.008 63.0459 335.279C63.0459 335.624 63.2419 335.899 63.6339 336.105C64.0352 336.31 64.5859 336.413 65.2859 336.413ZM65.1879 327.201C65.7479 327.201 66.2425 327.303 66.6719 327.509C67.1105 327.705 67.4512 327.98 67.6939 328.335C67.9365 328.689 68.0579 329.1 68.0579 329.567C68.0579 330.024 67.9365 330.435 67.6939 330.799C67.4512 331.153 67.1105 331.433 66.6719 331.639C66.2425 331.835 65.7479 331.933 65.1879 331.933C64.2639 331.933 63.5545 331.713 63.0599 331.275C62.5652 330.827 62.3179 330.257 62.3179 329.567C62.3179 329.1 62.4392 328.689 62.6819 328.335C62.9339 327.98 63.2745 327.705 63.7039 327.509C64.1332 327.303 64.6279 327.201 65.1879 327.201ZM65.1879 328.111C64.7025 328.111 64.2965 328.246 63.9699 328.517C63.6432 328.778 63.4799 329.128 63.4799 329.567C63.4799 329.996 63.6432 330.346 63.9699 330.617C64.2965 330.887 64.7025 331.023 65.1879 331.023C65.6732 331.023 66.0792 330.887 66.4059 330.617C66.7325 330.346 66.8959 329.996 66.8959 329.567C66.8959 329.128 66.7325 328.778 66.4059 328.517C66.0792 328.246 65.6732 328.111 65.1879 328.111ZM74.347 329.819C74.347 329.296 74.207 328.895 73.927 328.615C73.647 328.325 73.2504 328.181 72.737 328.181C72.2517 328.181 71.841 328.288 71.505 328.503C71.169 328.708 70.9217 329.044 70.763 329.511L69.853 328.951C70.0397 328.428 70.385 328.008 70.889 327.691C71.393 327.364 72.0184 327.201 72.765 327.201C73.269 327.201 73.7264 327.289 74.137 327.467C74.5477 327.635 74.8697 327.896 75.103 328.251C75.3457 328.596 75.467 329.044 75.467 329.595V332.983C75.467 333.319 75.6444 333.487 75.999 333.487C76.1764 333.487 76.349 333.463 76.517 333.417L76.461 334.299C76.2744 334.392 76.0317 334.439 75.733 334.439C75.4624 334.439 75.2197 334.387 75.005 334.285C74.7904 334.182 74.6224 334.028 74.501 333.823C74.3797 333.608 74.319 333.342 74.319 333.025V332.885L74.599 332.927C74.487 333.291 74.2957 333.589 74.025 333.823C73.7544 334.047 73.451 334.215 73.115 334.327C72.779 334.429 72.4477 334.481 72.121 334.481C71.7104 334.481 71.3277 334.411 70.973 334.271C70.6184 334.131 70.3337 333.921 70.119 333.641C69.9137 333.351 69.811 332.997 69.811 332.577C69.811 332.054 69.9837 331.625 70.329 331.289C70.6837 330.943 71.1737 330.71 71.799 330.589L74.571 330.043V330.967L72.317 331.429C71.8597 331.522 71.519 331.653 71.295 331.821C71.071 331.989 70.959 332.222 70.959 332.521C70.959 332.81 71.071 333.048 71.295 333.235C71.5284 333.412 71.855 333.501 72.275 333.501C72.5457 333.501 72.8024 333.468 73.045 333.403C73.297 333.328 73.521 333.221 73.717 333.081C73.913 332.931 74.067 332.749 74.179 332.535C74.291 332.311 74.347 332.049 74.347 331.751V329.819ZM78.1887 334.341V327.341H79.1687L79.2667 328.909L79.0847 328.755C79.2341 328.381 79.4347 328.083 79.6867 327.859C79.9387 327.625 80.2281 327.457 80.5547 327.355C80.8907 327.252 81.2361 327.201 81.5907 327.201C82.0947 327.201 82.5521 327.299 82.9627 327.495C83.3734 327.681 83.7001 327.971 83.9427 328.363C84.1947 328.755 84.3207 329.254 84.3207 329.861V334.341H83.2007V330.253C83.2007 329.478 83.0327 328.941 82.6967 328.643C82.3701 328.335 81.9641 328.181 81.4787 328.181C81.1427 328.181 80.8067 328.26 80.4707 328.419C80.1347 328.577 79.8547 328.834 79.6307 329.189C79.4161 329.543 79.3087 330.019 79.3087 330.617V334.341H78.1887ZM87.4167 325.997C87.1647 325.997 86.9594 325.922 86.8007 325.773C86.6514 325.614 86.5767 325.409 86.5767 325.157C86.5767 324.905 86.6514 324.704 86.8007 324.555C86.9594 324.396 87.1647 324.317 87.4167 324.317C87.6687 324.317 87.8694 324.396 88.0187 324.555C88.1774 324.704 88.2567 324.905 88.2567 325.157C88.2567 325.409 88.1774 325.614 88.0187 325.773C87.8694 325.922 87.6687 325.997 87.4167 325.997ZM87.9767 327.341V334.341H86.8567V327.341H87.9767ZM93.4734 327.201C93.9588 327.201 94.3834 327.275 94.7474 327.425C95.1208 327.574 95.4428 327.789 95.7134 328.069C95.9841 328.349 96.2034 328.68 96.3714 329.063L95.3074 329.567C95.1581 329.119 94.9294 328.778 94.6214 328.545C94.3228 328.302 93.9308 328.181 93.4454 328.181C92.9788 328.181 92.5774 328.288 92.2414 328.503C91.9054 328.708 91.6488 329.011 91.4714 329.413C91.2941 329.805 91.2054 330.281 91.2054 330.841C91.2054 331.391 91.2941 331.867 91.4714 332.269C91.6488 332.67 91.9054 332.978 92.2414 333.193C92.5774 333.398 92.9788 333.501 93.4454 333.501C93.8094 333.501 94.1221 333.445 94.3834 333.333C94.6541 333.221 94.8734 333.057 95.0414 332.843C95.2188 332.628 95.3401 332.367 95.4054 332.059L96.4414 332.423C96.2828 332.852 96.0634 333.221 95.7834 333.529C95.5128 333.837 95.1814 334.075 94.7894 334.243C94.4068 334.401 93.9681 334.481 93.4734 334.481C92.8201 334.481 92.2368 334.336 91.7234 334.047C91.2101 333.757 90.8088 333.342 90.5194 332.801C90.2301 332.25 90.0854 331.597 90.0854 330.841C90.0854 330.085 90.2301 329.436 90.5194 328.895C90.8088 328.344 91.2101 327.924 91.7234 327.635C92.2368 327.345 92.8201 327.201 93.4734 327.201Z" fill="#AEB9E1"/>
<path d="M286.95 332.481C286.082 332.481 285.326 332.289 284.682 331.907C284.047 331.515 283.613 330.969 283.38 330.269L284.836 329.583C284.92 329.919 285.05 330.208 285.228 330.451C285.405 330.693 285.638 330.88 285.928 331.011C286.217 331.132 286.576 331.193 287.006 331.193C287.37 331.193 287.678 331.127 287.93 330.997C288.182 330.866 288.373 330.684 288.504 330.451C288.644 330.217 288.714 329.951 288.714 329.653C288.714 329.345 288.653 329.088 288.532 328.883C288.42 328.677 288.238 328.528 287.986 328.435C287.743 328.341 287.43 328.295 287.048 328.295C286.936 328.295 286.819 328.299 286.698 328.309C286.586 328.309 286.464 328.318 286.334 328.337V327.077C286.418 327.086 286.497 327.095 286.572 327.105C286.656 327.105 286.735 327.105 286.81 327.105C287.416 327.105 287.85 326.983 288.112 326.741C288.373 326.498 288.504 326.12 288.504 325.607C288.504 325.168 288.368 324.832 288.098 324.599C287.836 324.365 287.458 324.249 286.964 324.249C286.45 324.249 286.049 324.37 285.76 324.613C285.48 324.846 285.265 325.187 285.116 325.635L283.744 325.061C283.874 324.631 284.094 324.258 284.402 323.941C284.71 323.623 285.088 323.381 285.536 323.213C285.993 323.035 286.492 322.947 287.034 322.947C287.696 322.947 288.247 323.054 288.686 323.269C289.134 323.483 289.465 323.777 289.68 324.151C289.904 324.524 290.016 324.939 290.016 325.397C290.016 325.751 289.964 326.064 289.862 326.335C289.759 326.596 289.619 326.825 289.442 327.021C289.274 327.207 289.087 327.352 288.882 327.455C288.686 327.557 288.485 327.627 288.28 327.665V327.693C288.55 327.702 288.798 327.758 289.022 327.861C289.255 327.954 289.46 328.089 289.638 328.267C289.824 328.435 289.969 328.64 290.072 328.883C290.174 329.125 290.226 329.391 290.226 329.681C290.226 330.241 290.086 330.731 289.806 331.151C289.526 331.571 289.138 331.897 288.644 332.131C288.158 332.364 287.594 332.481 286.95 332.481ZM295.447 332.481C294.336 332.481 293.463 332.079 292.829 331.277C292.203 330.465 291.891 329.279 291.891 327.721C291.891 326.162 292.203 324.981 292.829 324.179C293.463 323.367 294.336 322.961 295.447 322.961C296.567 322.961 297.439 323.367 298.065 324.179C298.699 324.981 299.017 326.162 299.017 327.721C299.017 329.279 298.699 330.465 298.065 331.277C297.439 332.079 296.567 332.481 295.447 332.481ZM295.447 331.207C295.895 331.207 296.268 331.081 296.567 330.829C296.875 330.567 297.103 330.18 297.253 329.667C297.411 329.144 297.491 328.495 297.491 327.721C297.491 326.946 297.411 326.302 297.253 325.789C297.103 325.266 296.875 324.879 296.567 324.627C296.268 324.365 295.895 324.235 295.447 324.235C294.999 324.235 294.621 324.365 294.313 324.627C294.014 324.879 293.79 325.266 293.641 325.789C293.491 326.302 293.417 326.946 293.417 327.721C293.417 328.495 293.491 329.144 293.641 329.667C293.79 330.18 294.014 330.567 294.313 330.829C294.621 331.081 294.999 331.207 295.447 331.207ZM302.334 332.341L308.382 323.101H309.67L303.636 332.341H302.334ZM302.698 322.961C303.174 322.961 303.584 323.068 303.93 323.283C304.284 323.497 304.555 323.796 304.742 324.179C304.938 324.561 305.036 325.014 305.036 325.537C305.036 326.05 304.938 326.503 304.742 326.895C304.555 327.277 304.284 327.576 303.93 327.791C303.584 328.005 303.174 328.113 302.698 328.113C302.231 328.113 301.82 328.005 301.466 327.791C301.111 327.576 300.836 327.277 300.64 326.895C300.453 326.503 300.36 326.05 300.36 325.537C300.36 325.014 300.453 324.561 300.64 324.179C300.836 323.796 301.111 323.497 301.466 323.283C301.82 323.068 302.231 322.961 302.698 322.961ZM302.698 324.053C302.464 324.053 302.264 324.113 302.096 324.235C301.928 324.347 301.802 324.515 301.718 324.739C301.634 324.953 301.592 325.219 301.592 325.537C301.592 325.845 301.634 326.111 301.718 326.335C301.802 326.559 301.928 326.727 302.096 326.839C302.264 326.951 302.464 327.007 302.698 327.007C302.94 327.007 303.146 326.951 303.314 326.839C303.482 326.727 303.608 326.559 303.692 326.335C303.776 326.111 303.818 325.845 303.818 325.537C303.818 325.219 303.776 324.953 303.692 324.739C303.608 324.515 303.482 324.347 303.314 324.235C303.146 324.113 302.94 324.053 302.698 324.053ZM309.306 327.329C309.782 327.329 310.192 327.436 310.538 327.651C310.892 327.865 311.163 328.169 311.35 328.561C311.546 328.943 311.644 329.391 311.644 329.905C311.644 330.427 311.546 330.88 311.35 331.263C311.163 331.645 310.892 331.944 310.538 332.159C310.192 332.373 309.782 332.481 309.306 332.481C308.839 332.481 308.428 332.373 308.074 332.159C307.719 331.944 307.444 331.645 307.248 331.263C307.061 330.88 306.968 330.427 306.968 329.905C306.968 329.391 307.061 328.943 307.248 328.561C307.444 328.169 307.719 327.865 308.074 327.651C308.428 327.436 308.839 327.329 309.306 327.329ZM309.306 328.435C309.072 328.435 308.872 328.491 308.704 328.603C308.536 328.715 308.41 328.883 308.326 329.107C308.242 329.321 308.2 329.587 308.2 329.905C308.2 330.213 308.242 330.479 308.326 330.703C308.41 330.927 308.536 331.099 308.704 331.221C308.872 331.333 309.072 331.389 309.306 331.389C309.548 331.389 309.754 331.333 309.922 331.221C310.09 331.099 310.216 330.927 310.3 330.703C310.384 330.479 310.426 330.213 310.426 329.905C310.426 329.597 310.384 329.331 310.3 329.107C310.216 328.883 310.09 328.715 309.922 328.603C309.754 328.491 309.548 328.435 309.306 328.435Z" fill="#FAF3F3"/>
<path d="M30.7422 351.341L171.428 351.341L312.113 351.341" stroke="#0B1739" stroke-width="0.6"/>
<rect x="30.7422" y="370.841" width="7" height="7" rx="3.5" fill="#0E898E"/>
<path d="M50.2222 369.961C51.0342 369.961 51.7342 370.129 52.3222 370.465C52.9102 370.791 53.4002 371.277 53.7922 371.921L52.8542 372.649C52.5089 372.051 52.1169 371.631 51.6782 371.389C51.2489 371.137 50.7262 371.011 50.1102 371.011C49.6155 371.011 49.2049 371.081 48.8782 371.221C48.5609 371.361 48.3275 371.547 48.1782 371.781C48.0289 372.005 47.9542 372.261 47.9542 372.551C47.9542 372.877 48.0569 373.167 48.2622 373.419C48.4675 373.661 48.8782 373.853 49.4942 373.993L51.4962 374.441C52.3829 374.637 52.9989 374.935 53.3442 375.337C53.6989 375.729 53.8762 376.219 53.8762 376.807C53.8762 377.329 53.7269 377.796 53.4282 378.207C53.1389 378.608 52.7282 378.921 52.1962 379.145C51.6642 379.369 51.0389 379.481 50.3202 379.481C49.6482 379.481 49.0555 379.392 48.5422 379.215C48.0382 379.028 47.6042 378.781 47.2402 378.473C46.8762 378.165 46.5775 377.819 46.3442 377.437L47.3242 376.639C47.5015 376.993 47.7302 377.306 48.0102 377.577C48.2902 377.847 48.6262 378.057 49.0182 378.207C49.4195 378.356 49.8769 378.431 50.3902 378.431C50.8662 378.431 51.2769 378.375 51.6222 378.263C51.9769 378.141 52.2475 377.969 52.4342 377.745C52.6209 377.511 52.7142 377.231 52.7142 376.905C52.7142 376.606 52.6162 376.34 52.4202 376.107C52.2242 375.864 51.8555 375.682 51.3142 375.561L49.1442 375.071C48.5749 374.94 48.1129 374.763 47.7582 374.539C47.4129 374.305 47.1609 374.035 47.0022 373.727C46.8529 373.409 46.7782 373.069 46.7782 372.705C46.7782 372.21 46.9135 371.757 47.1842 371.347C47.4642 370.927 47.8609 370.591 48.3742 370.339C48.8969 370.087 49.5129 369.961 50.2222 369.961ZM58.9109 372.201C59.5736 372.201 60.1569 372.345 60.6609 372.635C61.1743 372.924 61.5756 373.344 61.8649 373.895C62.1543 374.436 62.2989 375.085 62.2989 375.841C62.2989 376.597 62.1543 377.25 61.8649 377.801C61.5756 378.342 61.1743 378.757 60.6609 379.047C60.1569 379.336 59.5736 379.481 58.9109 379.481C58.2576 379.481 57.6743 379.336 57.1609 379.047C56.6476 378.757 56.2463 378.342 55.9569 377.801C55.6676 377.25 55.5229 376.597 55.5229 375.841C55.5229 375.085 55.6676 374.436 55.9569 373.895C56.2463 373.344 56.6476 372.924 57.1609 372.635C57.6743 372.345 58.2576 372.201 58.9109 372.201ZM58.9109 373.167C58.4349 373.167 58.0289 373.274 57.6929 373.489C57.3569 373.703 57.0956 374.011 56.9089 374.413C56.7316 374.805 56.6429 375.281 56.6429 375.841C56.6429 376.391 56.7316 376.867 56.9089 377.269C57.0956 377.67 57.3569 377.978 57.6929 378.193C58.0289 378.407 58.4349 378.515 58.9109 378.515C59.3869 378.515 59.7929 378.407 60.1289 378.193C60.4649 377.978 60.7216 377.67 60.8989 377.269C61.0856 376.867 61.1789 376.391 61.1789 375.841C61.1789 375.281 61.0856 374.805 60.8989 374.413C60.7216 374.011 60.4649 373.703 60.1289 373.489C59.7929 373.274 59.3869 373.167 58.9109 373.167ZM67.3055 372.201C67.7908 372.201 68.2155 372.275 68.5795 372.425C68.9528 372.574 69.2748 372.789 69.5455 373.069C69.8161 373.349 70.0355 373.68 70.2035 374.063L69.1395 374.567C68.9901 374.119 68.7615 373.778 68.4535 373.545C68.1548 373.302 67.7628 373.181 67.2775 373.181C66.8108 373.181 66.4095 373.288 66.0735 373.503C65.7375 373.708 65.4808 374.011 65.3035 374.413C65.1261 374.805 65.0375 375.281 65.0375 375.841C65.0375 376.391 65.1261 376.867 65.3035 377.269C65.4808 377.67 65.7375 377.978 66.0735 378.193C66.4095 378.398 66.8108 378.501 67.2775 378.501C67.6415 378.501 67.9541 378.445 68.2155 378.333C68.4861 378.221 68.7055 378.057 68.8735 377.843C69.0508 377.628 69.1721 377.367 69.2375 377.059L70.2735 377.423C70.1148 377.852 69.8955 378.221 69.6155 378.529C69.3448 378.837 69.0135 379.075 68.6215 379.243C68.2388 379.401 67.8001 379.481 67.3055 379.481C66.6521 379.481 66.0688 379.336 65.5555 379.047C65.0421 378.757 64.6408 378.342 64.3515 377.801C64.0621 377.25 63.9175 376.597 63.9175 375.841C63.9175 375.085 64.0621 374.436 64.3515 373.895C64.6408 373.344 65.0421 372.924 65.5555 372.635C66.0688 372.345 66.6521 372.201 67.3055 372.201ZM72.8015 370.997C72.5495 370.997 72.3441 370.922 72.1855 370.773C72.0361 370.614 71.9615 370.409 71.9615 370.157C71.9615 369.905 72.0361 369.704 72.1855 369.555C72.3441 369.396 72.5495 369.317 72.8015 369.317C73.0535 369.317 73.2541 369.396 73.4035 369.555C73.5621 369.704 73.6415 369.905 73.6415 370.157C73.6415 370.409 73.5621 370.614 73.4035 370.773C73.2541 370.922 73.0535 370.997 72.8015 370.997ZM73.3615 372.341V379.341H72.2415V372.341H73.3615ZM80.0482 374.819C80.0482 374.296 79.9082 373.895 79.6282 373.615C79.3482 373.325 78.9515 373.181 78.4382 373.181C77.9529 373.181 77.5422 373.288 77.2062 373.503C76.8702 373.708 76.6229 374.044 76.4642 374.511L75.5542 373.951C75.7409 373.428 76.0862 373.008 76.5902 372.691C77.0942 372.364 77.7195 372.201 78.4662 372.201C78.9702 372.201 79.4275 372.289 79.8382 372.467C80.2489 372.635 80.5709 372.896 80.8042 373.251C81.0469 373.596 81.1682 374.044 81.1682 374.595V377.983C81.1682 378.319 81.3455 378.487 81.7002 378.487C81.8775 378.487 82.0502 378.463 82.2182 378.417L82.1622 379.299C81.9755 379.392 81.7329 379.439 81.4342 379.439C81.1635 379.439 80.9209 379.387 80.7062 379.285C80.4915 379.182 80.3235 379.028 80.2022 378.823C80.0809 378.608 80.0202 378.342 80.0202 378.025V377.885L80.3002 377.927C80.1882 378.291 79.9969 378.589 79.7262 378.823C79.4555 379.047 79.1522 379.215 78.8162 379.327C78.4802 379.429 78.1489 379.481 77.8222 379.481C77.4115 379.481 77.0289 379.411 76.6742 379.271C76.3195 379.131 76.0349 378.921 75.8202 378.641C75.6149 378.351 75.5122 377.997 75.5122 377.577C75.5122 377.054 75.6849 376.625 76.0302 376.289C76.3849 375.943 76.8749 375.71 77.5002 375.589L80.2722 375.043V375.967L78.0182 376.429C77.5609 376.522 77.2202 376.653 76.9962 376.821C76.7722 376.989 76.6602 377.222 76.6602 377.521C76.6602 377.81 76.7722 378.048 76.9962 378.235C77.2295 378.412 77.5562 378.501 77.9762 378.501C78.2469 378.501 78.5035 378.468 78.7462 378.403C78.9982 378.328 79.2222 378.221 79.4182 378.081C79.6142 377.931 79.7682 377.749 79.8802 377.535C79.9922 377.311 80.0482 377.049 80.0482 376.751V374.819ZM84.9539 369.121V377.563C84.9539 377.917 85.0192 378.165 85.1499 378.305C85.2806 378.435 85.4906 378.501 85.7799 378.501C85.9666 378.501 86.1206 378.487 86.2419 378.459C86.3632 378.431 86.5266 378.379 86.7319 378.305L86.5499 379.285C86.4006 379.35 86.2372 379.397 86.0599 379.425C85.8826 379.462 85.7006 379.481 85.5139 379.481C84.9446 379.481 84.5199 379.327 84.2399 379.019C83.9692 378.711 83.8339 378.239 83.8339 377.605V369.121H84.9539Z" fill="#AEB9E1"/>
<path d="M286.92 377.481C286.099 377.481 285.422 377.303 284.89 376.949C284.368 376.594 283.952 376.081 283.644 375.409L285.044 374.681C285.184 375.129 285.394 375.497 285.674 375.787C285.964 376.067 286.388 376.207 286.948 376.207C287.34 376.207 287.672 376.137 287.942 375.997C288.222 375.847 288.437 375.642 288.586 375.381C288.736 375.11 288.81 374.788 288.81 374.415C288.81 374.023 288.74 373.696 288.6 373.435C288.46 373.173 288.26 372.977 287.998 372.847C287.737 372.707 287.41 372.637 287.018 372.637C286.748 372.637 286.496 372.665 286.262 372.721C286.029 372.777 285.819 372.865 285.632 372.987C285.446 373.099 285.282 373.248 285.142 373.435L283.91 373.197L284.47 368.101H289.846V369.389H285.66L285.324 371.993L285.296 372.147H285.324C285.539 371.913 285.814 371.731 286.15 371.601C286.496 371.47 286.902 371.405 287.368 371.405C287.966 371.405 288.479 371.531 288.908 371.783C289.338 372.025 289.674 372.366 289.916 372.805C290.159 373.243 290.28 373.752 290.28 374.331C290.28 374.835 290.196 375.283 290.028 375.675C289.86 376.067 289.622 376.398 289.314 376.669C289.006 376.939 288.647 377.145 288.236 377.285C287.835 377.415 287.396 377.481 286.92 377.481ZM295.447 377.481C294.336 377.481 293.463 377.079 292.829 376.277C292.203 375.465 291.891 374.279 291.891 372.721C291.891 371.162 292.203 369.981 292.829 369.179C293.463 368.367 294.336 367.961 295.447 367.961C296.567 367.961 297.439 368.367 298.065 369.179C298.699 369.981 299.017 371.162 299.017 372.721C299.017 374.279 298.699 375.465 298.065 376.277C297.439 377.079 296.567 377.481 295.447 377.481ZM295.447 376.207C295.895 376.207 296.268 376.081 296.567 375.829C296.875 375.567 297.103 375.18 297.253 374.667C297.411 374.144 297.491 373.495 297.491 372.721C297.491 371.946 297.411 371.302 297.253 370.789C297.103 370.266 296.875 369.879 296.567 369.627C296.268 369.365 295.895 369.235 295.447 369.235C294.999 369.235 294.621 369.365 294.313 369.627C294.014 369.879 293.79 370.266 293.641 370.789C293.491 371.302 293.417 371.946 293.417 372.721C293.417 373.495 293.491 374.144 293.641 374.667C293.79 375.18 294.014 375.567 294.313 375.829C294.621 376.081 294.999 376.207 295.447 376.207ZM302.334 377.341L308.382 368.101H309.67L303.636 377.341H302.334ZM302.698 367.961C303.174 367.961 303.584 368.068 303.93 368.283C304.284 368.497 304.555 368.796 304.742 369.179C304.938 369.561 305.036 370.014 305.036 370.537C305.036 371.05 304.938 371.503 304.742 371.895C304.555 372.277 304.284 372.576 303.93 372.791C303.584 373.005 303.174 373.113 302.698 373.113C302.231 373.113 301.82 373.005 301.466 372.791C301.111 372.576 300.836 372.277 300.64 371.895C300.453 371.503 300.36 371.05 300.36 370.537C300.36 370.014 300.453 369.561 300.64 369.179C300.836 368.796 301.111 368.497 301.466 368.283C301.82 368.068 302.231 367.961 302.698 367.961ZM302.698 369.053C302.464 369.053 302.264 369.113 302.096 369.235C301.928 369.347 301.802 369.515 301.718 369.739C301.634 369.953 301.592 370.219 301.592 370.537C301.592 370.845 301.634 371.111 301.718 371.335C301.802 371.559 301.928 371.727 302.096 371.839C302.264 371.951 302.464 372.007 302.698 372.007C302.94 372.007 303.146 371.951 303.314 371.839C303.482 371.727 303.608 371.559 303.692 371.335C303.776 371.111 303.818 370.845 303.818 370.537C303.818 370.219 303.776 369.953 303.692 369.739C303.608 369.515 303.482 369.347 303.314 369.235C303.146 369.113 302.94 369.053 302.698 369.053ZM309.306 372.329C309.782 372.329 310.192 372.436 310.538 372.651C310.892 372.865 311.163 373.169 311.35 373.561C311.546 373.943 311.644 374.391 311.644 374.905C311.644 375.427 311.546 375.88 311.35 376.263C311.163 376.645 310.892 376.944 310.538 377.159C310.192 377.373 309.782 377.481 309.306 377.481C308.839 377.481 308.428 377.373 308.074 377.159C307.719 376.944 307.444 376.645 307.248 376.263C307.061 375.88 306.968 375.427 306.968 374.905C306.968 374.391 307.061 373.943 307.248 373.561C307.444 373.169 307.719 372.865 308.074 372.651C308.428 372.436 308.839 372.329 309.306 372.329ZM309.306 373.435C309.072 373.435 308.872 373.491 308.704 373.603C308.536 373.715 308.41 373.883 308.326 374.107C308.242 374.321 308.2 374.587 308.2 374.905C308.2 375.213 308.242 375.479 308.326 375.703C308.41 375.927 308.536 376.099 308.704 376.221C308.872 376.333 309.072 376.389 309.306 376.389C309.548 376.389 309.754 376.333 309.922 376.221C310.09 376.099 310.216 375.927 310.3 375.703C310.384 375.479 310.426 375.213 310.426 374.905C310.426 374.597 310.384 374.331 310.3 374.107C310.216 373.883 310.09 373.715 309.922 373.603C309.754 373.491 309.548 373.435 309.306 373.435Z" fill="#FAF3F3"/>
<path d="M30.7422 396.341L171.428 396.341L312.113 396.341" stroke="#0B1739" stroke-width="0.6"/>
<rect x="30.7422" y="415.841" width="7" height="7" rx="3.5" fill="#16484A"/>
<path d="M50.2362 415.101C51.6829 415.101 52.8169 415.502 53.6382 416.305C54.4689 417.098 54.8842 418.237 54.8842 419.721C54.8842 421.205 54.4689 422.348 53.6382 423.151C52.8169 423.944 51.6829 424.341 50.2362 424.341H47.2542V415.101H50.2362ZM50.3482 423.291C51.4029 423.291 52.2242 422.978 52.8122 422.353C53.4095 421.718 53.7082 420.841 53.7082 419.721C53.7082 418.601 53.4095 417.728 52.8122 417.103C52.2242 416.468 51.4029 416.151 50.3482 416.151H48.3742V423.291H50.3482ZM57.6257 415.997C57.3737 415.997 57.1683 415.922 57.0097 415.773C56.8603 415.614 56.7857 415.409 56.7857 415.157C56.7857 414.905 56.8603 414.704 57.0097 414.555C57.1683 414.396 57.3737 414.317 57.6257 414.317C57.8777 414.317 58.0783 414.396 58.2277 414.555C58.3863 414.704 58.4657 414.905 58.4657 415.157C58.4657 415.409 58.3863 415.614 58.2277 415.773C58.0783 415.922 57.8777 415.997 57.6257 415.997ZM58.1857 417.341V424.341H57.0657V417.341H58.1857ZM60.7844 424.341V417.341H61.6944L61.8484 418.489C62.0444 418.059 62.3291 417.737 62.7024 417.523C63.0851 417.308 63.5471 417.201 64.0884 417.201C64.2098 417.201 64.3404 417.21 64.4804 417.229C64.6298 417.247 64.7558 417.285 64.8584 417.341L64.6624 418.363C64.5598 418.325 64.4478 418.297 64.3264 418.279C64.2051 418.26 64.0324 418.251 63.8084 418.251C63.5191 418.251 63.2251 418.335 62.9264 418.503C62.6371 418.671 62.3944 418.927 62.1984 419.273C62.0024 419.609 61.9044 420.038 61.9044 420.561V424.341H60.7844ZM69.2065 424.481C68.5438 424.481 67.9512 424.336 67.4285 424.047C66.9152 423.757 66.5138 423.342 66.2245 422.801C65.9352 422.25 65.7905 421.597 65.7905 420.841C65.7905 420.085 65.9352 419.436 66.2245 418.895C66.5138 418.344 66.9105 417.924 67.4145 417.635C67.9185 417.345 68.4925 417.201 69.1365 417.201C69.7898 417.201 70.3452 417.341 70.8025 417.621C71.2692 417.901 71.6238 418.283 71.8665 418.769C72.1092 419.245 72.2305 419.781 72.2305 420.379C72.2305 420.537 72.2258 420.682 72.2165 420.813C72.2072 420.943 72.1932 421.06 72.1745 421.163H66.5185V420.169H71.6845L71.1105 420.281C71.1105 419.609 70.9238 419.091 70.5505 418.727C70.1865 418.363 69.7058 418.181 69.1085 418.181C68.6512 418.181 68.2545 418.288 67.9185 418.503C67.5918 418.708 67.3352 419.011 67.1485 419.413C66.9712 419.805 66.8825 420.281 66.8825 420.841C66.8825 421.391 66.9758 421.867 67.1625 422.269C67.3492 422.67 67.6105 422.978 67.9465 423.193C68.2918 423.398 68.7025 423.501 69.1785 423.501C69.6918 423.501 70.1072 423.403 70.4245 423.207C70.7512 423.011 71.0125 422.745 71.2085 422.409L72.0905 422.927C71.9132 423.244 71.6845 423.519 71.4045 423.753C71.1338 423.986 70.8118 424.168 70.4385 424.299C70.0745 424.42 69.6638 424.481 69.2065 424.481ZM77.2586 417.201C77.7439 417.201 78.1686 417.275 78.5326 417.425C78.9059 417.574 79.2279 417.789 79.4986 418.069C79.7693 418.349 79.9886 418.68 80.1566 419.063L79.0926 419.567C78.9433 419.119 78.7146 418.778 78.4066 418.545C78.1079 418.302 77.7159 418.181 77.2306 418.181C76.7639 418.181 76.3626 418.288 76.0266 418.503C75.6906 418.708 75.4339 419.011 75.2566 419.413C75.0793 419.805 74.9906 420.281 74.9906 420.841C74.9906 421.391 75.0793 421.867 75.2566 422.269C75.4339 422.67 75.6906 422.978 76.0266 423.193C76.3626 423.398 76.7639 423.501 77.2306 423.501C77.5946 423.501 77.9073 423.445 78.1686 423.333C78.4393 423.221 78.6586 423.057 78.8266 422.843C79.0039 422.628 79.1253 422.367 79.1906 422.059L80.2266 422.423C80.0679 422.852 79.8486 423.221 79.5686 423.529C79.2979 423.837 78.9666 424.075 78.5746 424.243C78.1919 424.401 77.7533 424.481 77.2586 424.481C76.6053 424.481 76.0219 424.336 75.5086 424.047C74.9953 423.757 74.5939 423.342 74.3046 422.801C74.0153 422.25 73.8706 421.597 73.8706 420.841C73.8706 420.085 74.0153 419.436 74.3046 418.895C74.5939 418.344 74.9953 417.924 75.5086 417.635C76.0219 417.345 76.6053 417.201 77.2586 417.201ZM83.8466 415.353V422.409C83.8466 422.754 83.9446 423.011 84.1406 423.179C84.3366 423.347 84.5886 423.431 84.8966 423.431C85.1672 423.431 85.4006 423.384 85.5966 423.291C85.7926 423.197 85.9699 423.071 86.1286 422.913L86.5206 423.851C86.3059 424.047 86.0492 424.201 85.7506 424.313C85.4612 424.425 85.1252 424.481 84.7426 424.481C84.3879 424.481 84.0566 424.42 83.7486 424.299C83.4406 424.168 83.1932 423.967 83.0066 423.697C82.8292 423.417 82.7359 423.053 82.7266 422.605V415.661L83.8466 415.353ZM86.3946 417.341V418.307H81.3266V417.341H86.3946Z" fill="#AEB9E1"/>
<path d="M283.814 422.341V421.249C284.701 420.614 285.443 420.054 286.04 419.569C286.647 419.083 287.132 418.635 287.496 418.225C287.86 417.814 288.121 417.427 288.28 417.063C288.448 416.689 288.532 416.311 288.532 415.929C288.532 415.434 288.378 415.033 288.07 414.725C287.762 414.417 287.333 414.263 286.782 414.263C286.203 414.263 285.741 414.459 285.396 414.851C285.06 415.233 284.869 415.761 284.822 416.433L283.52 415.831C283.585 415.243 283.758 414.734 284.038 414.305C284.318 413.875 284.696 413.544 285.172 413.311C285.657 413.077 286.217 412.961 286.852 412.961C287.375 412.961 287.832 413.035 288.224 413.185C288.625 413.334 288.961 413.544 289.232 413.815C289.503 414.076 289.708 414.384 289.848 414.739C289.997 415.093 290.072 415.471 290.072 415.873C290.072 416.461 289.927 417.03 289.638 417.581C289.349 418.122 288.891 418.677 288.266 419.247C287.641 419.816 286.819 420.427 285.802 421.081V421.109C285.914 421.09 286.068 421.081 286.264 421.081C286.46 421.071 286.656 421.067 286.852 421.067C287.048 421.057 287.207 421.053 287.328 421.053H290.24V422.341H283.814ZM295.447 422.481C294.336 422.481 293.463 422.079 292.829 421.277C292.203 420.465 291.891 419.279 291.891 417.721C291.891 416.162 292.203 414.981 292.829 414.179C293.463 413.367 294.336 412.961 295.447 412.961C296.567 412.961 297.439 413.367 298.065 414.179C298.699 414.981 299.017 416.162 299.017 417.721C299.017 419.279 298.699 420.465 298.065 421.277C297.439 422.079 296.567 422.481 295.447 422.481ZM295.447 421.207C295.895 421.207 296.268 421.081 296.567 420.829C296.875 420.567 297.103 420.18 297.253 419.667C297.411 419.144 297.491 418.495 297.491 417.721C297.491 416.946 297.411 416.302 297.253 415.789C297.103 415.266 296.875 414.879 296.567 414.627C296.268 414.365 295.895 414.235 295.447 414.235C294.999 414.235 294.621 414.365 294.313 414.627C294.014 414.879 293.79 415.266 293.641 415.789C293.491 416.302 293.417 416.946 293.417 417.721C293.417 418.495 293.491 419.144 293.641 419.667C293.79 420.18 294.014 420.567 294.313 420.829C294.621 421.081 294.999 421.207 295.447 421.207ZM302.334 422.341L308.382 413.101H309.67L303.636 422.341H302.334ZM302.698 412.961C303.174 412.961 303.584 413.068 303.93 413.283C304.284 413.497 304.555 413.796 304.742 414.179C304.938 414.561 305.036 415.014 305.036 415.537C305.036 416.05 304.938 416.503 304.742 416.895C304.555 417.277 304.284 417.576 303.93 417.791C303.584 418.005 303.174 418.113 302.698 418.113C302.231 418.113 301.82 418.005 301.466 417.791C301.111 417.576 300.836 417.277 300.64 416.895C300.453 416.503 300.36 416.05 300.36 415.537C300.36 415.014 300.453 414.561 300.64 414.179C300.836 413.796 301.111 413.497 301.466 413.283C301.82 413.068 302.231 412.961 302.698 412.961ZM302.698 414.053C302.464 414.053 302.264 414.113 302.096 414.235C301.928 414.347 301.802 414.515 301.718 414.739C301.634 414.953 301.592 415.219 301.592 415.537C301.592 415.845 301.634 416.111 301.718 416.335C301.802 416.559 301.928 416.727 302.096 416.839C302.264 416.951 302.464 417.007 302.698 417.007C302.94 417.007 303.146 416.951 303.314 416.839C303.482 416.727 303.608 416.559 303.692 416.335C303.776 416.111 303.818 415.845 303.818 415.537C303.818 415.219 303.776 414.953 303.692 414.739C303.608 414.515 303.482 414.347 303.314 414.235C303.146 414.113 302.94 414.053 302.698 414.053ZM309.306 417.329C309.782 417.329 310.192 417.436 310.538 417.651C310.892 417.865 311.163 418.169 311.35 418.561C311.546 418.943 311.644 419.391 311.644 419.905C311.644 420.427 311.546 420.88 311.35 421.263C311.163 421.645 310.892 421.944 310.538 422.159C310.192 422.373 309.782 422.481 309.306 422.481C308.839 422.481 308.428 422.373 308.074 422.159C307.719 421.944 307.444 421.645 307.248 421.263C307.061 420.88 306.968 420.427 306.968 419.905C306.968 419.391 307.061 418.943 307.248 418.561C307.444 418.169 307.719 417.865 308.074 417.651C308.428 417.436 308.839 417.329 309.306 417.329ZM309.306 418.435C309.072 418.435 308.872 418.491 308.704 418.603C308.536 418.715 308.41 418.883 308.326 419.107C308.242 419.321 308.2 419.587 308.2 419.905C308.2 420.213 308.242 420.479 308.326 420.703C308.41 420.927 308.536 421.099 308.704 421.221C308.872 421.333 309.072 421.389 309.306 421.389C309.548 421.389 309.754 421.333 309.922 421.221C310.09 421.099 310.216 420.927 310.3 420.703C310.384 420.479 310.426 420.213 310.426 419.905C310.426 419.597 310.384 419.331 310.3 419.107C310.216 418.883 310.09 418.715 309.922 418.603C309.754 418.491 309.548 418.435 309.306 418.435Z" fill="#FAF3F3"/>
<path opacity="0.2" d="M210.789 273.682C213.108 278.695 210.935 284.69 205.717 286.497C189.219 292.209 171.507 293.502 154.355 290.247C148.929 289.217 145.909 283.601 147.476 278.305C149.042 273.009 154.604 270.052 160.054 270.946C172.5 272.987 185.257 272.056 197.275 268.228C202.538 266.552 208.47 268.67 210.789 273.682Z" fill="#00F6FF"/>
<path d="M145.188 277.595C143.482 282.848 137.814 285.768 132.758 283.545C121.858 278.754 111.876 272.043 103.3 263.707C92.3274 253.042 83.949 240.001 78.8095 225.588C73.67 211.175 71.9065 195.775 73.6549 180.574C75.4033 165.372 80.6169 150.775 88.8943 137.905C97.1716 125.036 108.292 114.237 121.399 106.342C134.506 98.4459 149.25 93.6633 164.497 92.3622C179.743 91.061 195.084 93.276 209.34 98.8366C220.482 103.183 230.729 109.482 239.61 117.413C243.729 121.092 243.422 127.461 239.351 131.192C235.279 134.924 228.989 134.592 224.779 131.017C218.032 125.288 210.362 120.703 202.072 117.469C190.668 113.021 178.394 111.249 166.197 112.29C154 113.331 142.205 117.157 131.719 123.473C121.234 129.79 112.337 138.429 105.715 148.724C99.0935 159.02 94.9227 170.698 93.5239 182.859C92.1252 195.02 93.536 207.34 97.6476 218.87C101.759 230.4 108.462 240.833 117.24 249.365C123.62 255.568 130.974 260.645 138.986 264.409C143.984 266.757 146.895 272.343 145.188 277.595Z" fill="#00F6FF"/>
<path opacity="0.5" d="M241.106 133.164C245.285 129.554 251.646 129.989 254.821 134.508C261.637 144.209 266.69 155.067 269.716 166.585C273.592 181.334 274.043 196.775 271.035 211.726C268.027 226.676 261.639 240.741 252.36 252.844C245.114 262.295 236.256 270.354 226.218 276.663C221.542 279.602 215.508 277.544 213.05 272.598C210.592 267.652 212.654 261.7 217.254 258.645C224.595 253.771 231.099 247.704 236.488 240.675C243.911 230.993 249.022 219.741 251.428 207.781C253.835 195.82 253.474 183.467 250.373 171.668C248.122 163.101 244.47 154.991 239.586 147.657C236.525 143.061 236.926 136.775 241.106 133.164Z" fill="#00F6FF"/>
<g clip-path="url(#clip0_441_1558)">
<path d="M122.718 184.732H113.982V188.596C114.356 188.185 114.878 187.849 115.55 187.588C116.222 187.327 116.95 187.196 117.734 187.196C119.134 187.196 120.292 187.513 121.206 188.148C122.14 188.783 122.821 189.604 123.25 190.612C123.68 191.62 123.894 192.712 123.894 193.888C123.894 196.072 123.278 197.808 122.046 199.096C120.814 200.365 119.078 201 116.838 201C115.345 201 114.048 200.748 112.946 200.244C111.845 199.721 110.996 199.003 110.398 198.088C109.801 197.173 109.474 196.119 109.418 194.924H114.094C114.206 195.503 114.477 195.988 114.906 196.38C115.336 196.753 115.924 196.94 116.67 196.94C117.548 196.94 118.201 196.66 118.63 196.1C119.06 195.54 119.274 194.793 119.274 193.86C119.274 192.945 119.05 192.245 118.602 191.76C118.154 191.275 117.501 191.032 116.642 191.032C116.008 191.032 115.485 191.191 115.074 191.508C114.664 191.807 114.393 192.208 114.262 192.712H109.642V180.532H122.718V184.732ZM132.165 196.576L129.057 204.612H126.005L127.629 196.576H132.165ZM137.936 190.024C136.182 189.091 135.304 187.625 135.304 185.628C135.304 184.62 135.566 183.705 136.088 182.884C136.611 182.044 137.404 181.381 138.468 180.896C139.532 180.392 140.839 180.14 142.388 180.14C143.938 180.14 145.235 180.392 146.28 180.896C147.344 181.381 148.138 182.044 148.66 182.884C149.183 183.705 149.444 184.62 149.444 185.628C149.444 186.636 149.202 187.513 148.716 188.26C148.25 189.007 147.615 189.595 146.812 190.024C147.82 190.509 148.595 191.181 149.136 192.04C149.678 192.88 149.948 193.869 149.948 195.008C149.948 196.333 149.612 197.481 148.94 198.452C148.268 199.404 147.354 200.132 146.196 200.636C145.058 201.14 143.788 201.392 142.388 201.392C140.988 201.392 139.71 201.14 138.552 200.636C137.414 200.132 136.508 199.404 135.836 198.452C135.164 197.481 134.828 196.333 134.828 195.008C134.828 193.851 135.099 192.852 135.64 192.012C136.182 191.153 136.947 190.491 137.936 190.024ZM144.796 186.356C144.796 185.591 144.572 185.003 144.124 184.592C143.695 184.163 143.116 183.948 142.388 183.948C141.66 183.948 141.072 184.163 140.624 184.592C140.195 185.021 139.98 185.619 139.98 186.384C139.98 187.112 140.204 187.691 140.652 188.12C141.1 188.531 141.679 188.736 142.388 188.736C143.098 188.736 143.676 188.521 144.124 188.092C144.572 187.663 144.796 187.084 144.796 186.356ZM142.388 192.096C141.511 192.096 140.802 192.339 140.26 192.824C139.719 193.291 139.448 193.944 139.448 194.784C139.448 195.568 139.71 196.212 140.232 196.716C140.774 197.22 141.492 197.472 142.388 197.472C143.284 197.472 143.984 197.22 144.488 196.716C145.011 196.212 145.272 195.568 145.272 194.784C145.272 193.963 145.002 193.309 144.46 192.824C143.938 192.339 143.247 192.096 142.388 192.096ZM152.565 197.164C153.199 196.66 153.489 196.427 153.433 196.464C155.262 194.952 156.699 193.711 157.745 192.74C158.809 191.769 159.705 190.752 160.433 189.688C161.161 188.624 161.525 187.588 161.525 186.58C161.525 185.815 161.347 185.217 160.993 184.788C160.638 184.359 160.106 184.144 159.397 184.144C158.687 184.144 158.127 184.415 157.717 184.956C157.325 185.479 157.129 186.225 157.129 187.196H152.509C152.546 185.609 152.882 184.284 153.517 183.22C154.17 182.156 155.019 181.372 156.065 180.868C157.129 180.364 158.305 180.112 159.593 180.112C161.814 180.112 163.485 180.681 164.605 181.82C165.743 182.959 166.313 184.443 166.313 186.272C166.313 188.269 165.631 190.127 164.269 191.844C162.906 193.543 161.17 195.204 159.061 196.828H166.621V200.72H152.565V197.164ZM168.841 197.36V193.496L177.689 180.84H183.037V193.216H185.333V197.36H183.037V201H178.249V197.36H168.841ZM178.585 186.104L173.881 193.216H178.585V186.104ZM193.306 196.576L190.198 204.612H187.146L188.77 196.576H193.306ZM195.549 197.164C196.184 196.66 196.473 196.427 196.417 196.464C198.246 194.952 199.684 193.711 200.729 192.74C201.793 191.769 202.689 190.752 203.417 189.688C204.145 188.624 204.509 187.588 204.509 186.58C204.509 185.815 204.332 185.217 203.977 184.788C203.622 184.359 203.09 184.144 202.381 184.144C201.672 184.144 201.112 184.415 200.701 184.956C200.309 185.479 200.113 186.225 200.113 187.196H195.493C195.53 185.609 195.866 184.284 196.501 183.22C197.154 182.156 198.004 181.372 199.049 180.868C200.113 180.364 201.289 180.112 202.577 180.112C204.798 180.112 206.469 180.681 207.589 181.82C208.728 182.959 209.297 184.443 209.297 186.272C209.297 188.269 208.616 190.127 207.253 191.844C205.89 193.543 204.154 195.204 202.045 196.828H209.605V200.72H195.549V197.164ZM211.209 185.012V180.56H218.965V201H213.981V185.012H211.209ZM222.408 186.328C222.483 184.331 223.136 182.791 224.368 181.708C225.6 180.625 227.271 180.084 229.38 180.084C230.78 180.084 231.975 180.327 232.964 180.812C233.972 181.297 234.728 181.96 235.232 182.8C235.755 183.64 236.016 184.583 236.016 185.628C236.016 186.86 235.708 187.868 235.092 188.652C234.476 189.417 233.758 189.94 232.936 190.22V190.332C234 190.687 234.84 191.275 235.456 192.096C236.072 192.917 236.38 193.972 236.38 195.26C236.38 196.417 236.11 197.444 235.568 198.34C235.046 199.217 234.271 199.908 233.244 200.412C232.236 200.916 231.032 201.168 229.632 201.168C227.392 201.168 225.6 200.617 224.256 199.516C222.931 198.415 222.231 196.753 222.156 194.532H226.804C226.823 195.353 227.056 196.007 227.504 196.492C227.952 196.959 228.606 197.192 229.464 197.192C230.192 197.192 230.752 196.987 231.144 196.576C231.555 196.147 231.76 195.587 231.76 194.896C231.76 194 231.471 193.356 230.892 192.964C230.332 192.553 229.427 192.348 228.176 192.348H227.28V188.456H228.176C229.128 188.456 229.894 188.297 230.472 187.98C231.07 187.644 231.368 187.056 231.368 186.216C231.368 185.544 231.182 185.021 230.808 184.648C230.435 184.275 229.922 184.088 229.268 184.088C228.559 184.088 228.027 184.303 227.672 184.732C227.336 185.161 227.14 185.693 227.084 186.328H222.408Z" fill="#E3E8F3"/>
<path d="M153.993 235.816H157.897V237H152.537V225.848H153.993V235.816ZM158.899 232.584C158.899 231.688 159.08 230.904 159.443 230.232C159.806 229.549 160.302 229.021 160.931 228.648C161.571 228.275 162.28 228.088 163.059 228.088C163.827 228.088 164.494 228.253 165.059 228.584C165.624 228.915 166.046 229.331 166.323 229.832V228.232H167.795V237H166.323V235.368C166.035 235.88 165.603 236.307 165.027 236.648C164.462 236.979 163.8 237.144 163.043 237.144C162.264 237.144 161.56 236.952 160.931 236.568C160.302 236.184 159.806 235.645 159.443 234.952C159.08 234.259 158.899 233.469 158.899 232.584ZM166.323 232.6C166.323 231.939 166.19 231.363 165.923 230.872C165.656 230.381 165.294 230.008 164.835 229.752C164.387 229.485 163.891 229.352 163.347 229.352C162.803 229.352 162.307 229.48 161.859 229.736C161.411 229.992 161.054 230.365 160.787 230.856C160.52 231.347 160.387 231.923 160.387 232.584C160.387 233.256 160.52 233.843 160.787 234.344C161.054 234.835 161.411 235.213 161.859 235.48C162.307 235.736 162.803 235.864 163.347 235.864C163.891 235.864 164.387 235.736 164.835 235.48C165.294 235.213 165.656 234.835 165.923 234.344C166.19 233.843 166.323 233.261 166.323 232.6ZM171.711 229.864C172.01 229.341 172.447 228.915 173.023 228.584C173.599 228.253 174.255 228.088 174.991 228.088C175.781 228.088 176.49 228.275 177.119 228.648C177.749 229.021 178.245 229.549 178.607 230.232C178.97 230.904 179.151 231.688 179.151 232.584C179.151 233.469 178.97 234.259 178.607 234.952C178.245 235.645 177.743 236.184 177.103 236.568C176.474 236.952 175.77 237.144 174.991 237.144C174.234 237.144 173.567 236.979 172.991 236.648C172.426 236.317 171.999 235.896 171.711 235.384V237H170.255V225.16H171.711V229.864ZM177.663 232.584C177.663 231.923 177.53 231.347 177.263 230.856C176.997 230.365 176.634 229.992 176.175 229.736C175.727 229.48 175.231 229.352 174.687 229.352C174.154 229.352 173.658 229.485 173.199 229.752C172.751 230.008 172.389 230.387 172.111 230.888C171.845 231.379 171.711 231.949 171.711 232.6C171.711 233.261 171.845 233.843 172.111 234.344C172.389 234.835 172.751 235.213 173.199 235.48C173.658 235.736 174.154 235.864 174.687 235.864C175.231 235.864 175.727 235.736 176.175 235.48C176.634 235.213 176.997 234.835 177.263 234.344C177.53 233.843 177.663 233.256 177.663 232.584ZM189.068 232.28C189.068 232.557 189.052 232.851 189.02 233.16H182.012C182.065 234.024 182.359 234.701 182.892 235.192C183.436 235.672 184.092 235.912 184.86 235.912C185.489 235.912 186.012 235.768 186.428 235.48C186.855 235.181 187.153 234.787 187.324 234.296H188.892C188.657 235.139 188.188 235.827 187.484 236.36C186.78 236.883 185.905 237.144 184.86 237.144C184.028 237.144 183.281 236.957 182.62 236.584C181.969 236.211 181.457 235.683 181.084 235C180.711 234.307 180.524 233.507 180.524 232.6C180.524 231.693 180.705 230.899 181.068 230.216C181.431 229.533 181.937 229.011 182.588 228.648C183.249 228.275 184.007 228.088 184.86 228.088C185.692 228.088 186.428 228.269 187.068 228.632C187.708 228.995 188.199 229.496 188.54 230.136C188.892 230.765 189.068 231.48 189.068 232.28ZM187.564 231.976C187.564 231.421 187.441 230.947 187.196 230.552C186.951 230.147 186.615 229.843 186.188 229.64C185.772 229.427 185.308 229.32 184.796 229.32C184.06 229.32 183.431 229.555 182.908 230.024C182.396 230.493 182.103 231.144 182.028 231.976H187.564ZM192.446 225.16V237H190.99V225.16H192.446Z" fill="#E3E8F3" fill-opacity="0.3"/>
</g>
<defs>
<filter id="filter0_d_441_1558" x="0" y="0" width="343" height="462.681" filterUnits="userSpaceOnUse" color-interpolation-filters="sRGB">
<feFlood flood-opacity="0" result="BackgroundImageFix"/>
<feColorMatrix in="SourceAlpha" type="matrix" values="0 0 0 0 0 0 0 0 0 0 0 0 0 0 0 0 0 0 127 0" result="hardAlpha"/>
<feOffset dx="1" dy="1"/>
<feGaussianBlur stdDeviation="0.5"/>
<feComposite in2="hardAlpha" operator="out"/>
<feColorMatrix type="matrix" values="0 0 0 0 0.06125 0 0 0 0 0.0969792 0 0 0 0 0.204167 0 0 0 0.4 0"/>
<feBlend mode="normal" in2="BackgroundImageFix" result="effect1_dropShadow_441_1558"/>
<feBlend mode="normal" in="SourceGraphic" in2="effect1_dropShadow_441_1558" result="shape"/>
</filter>
<clipPath id="clip0_441_1558">
<rect width="131" height="75" fill="white" transform="translate(107 168)"/>
</clipPath>
</defs>
</svg>
