<svg width="59" height="59" viewBox="0 0 59 59" fill="none" xmlns="http://www.w3.org/2000/svg">
<g clip-path="url(#clip0_268_1646)">
<path fill-rule="evenodd" clip-rule="evenodd" d="M127.521 15.6164L126.964 12.9725H119.228V44.3236H128.166V23.0467C130.281 20.2811 133.849 20.8195 134.985 21.1716V12.9761C133.794 12.5484 129.614 11.763 127.521 15.6127V15.6164ZM109.581 5.20658L100.849 7.06139L100.813 35.7538C100.813 41.0454 104.791 44.9597 110.101 44.9597C113.024 44.9597 115.183 44.4029 116.379 43.7741V36.4913C115.233 36.9486 109.589 38.5895 109.589 33.3201V20.5982H116.379V12.9706H109.589L109.581 5.20658ZM85.3656 22.0695C85.3656 20.672 86.5272 20.1336 88.4041 20.1336C91.5111 20.2008 94.5599 20.9899 97.3094 22.4383V14.0123C94.4743 12.8976 91.4504 12.3416 88.4041 12.3751C81.1693 12.3751 76.3147 16.1658 76.3147 22.4936C76.3147 32.3945 89.9123 30.7868 89.9123 35.0551C89.9123 36.7255 88.4742 37.2417 86.4774 37.2417C83.5163 37.2417 79.6924 36.0175 76.6926 34.3839V42.9205C79.7807 44.2637 83.1099 44.9644 86.4774 44.98C93.9133 44.98 99.0389 41.3072 99.0389 34.867C99.0389 24.1806 85.3638 26.0907 85.3638 22.0658L85.3656 22.0695ZM25.5912 17.5431C25.5912 15.0172 27.6931 14.04 31.0893 14.04C36.7102 14.1614 42.2257 15.5886 47.2 18.2087V2.96089C42.0707 0.945145 36.6001 -0.0597069 31.0893 0.00167503C17.9987 0.00167503 9.21875 6.85858 9.21875 18.3083C9.21875 36.2221 33.8181 33.3127 33.8181 41.0343C33.8181 44.0544 31.2368 44.991 27.6046 44.991C22.2485 44.991 15.3308 42.7748 9.90463 39.8248V55.2718C15.4912 57.7026 21.514 58.971 27.6065 58.9998C41.0603 58.9998 50.3344 52.3531 50.3344 40.7043C50.3344 21.3707 25.5912 24.8241 25.5912 17.5468V17.5431Z" fill="#6772E5"/>
</g>
<defs>
<clipPath id="clip0_268_1646">
<rect width="59" height="59" fill="white"/>
</clipPath>
</defs>
</svg>
