<svg width="63" height="63" viewBox="0 0 63 63" fill="none" xmlns="http://www.w3.org/2000/svg">
<g clip-path="url(#clip0_268_1650)">
<path d="M62.2195 26.0051H43.7378L56.7247 13.0182C55.7255 11.52 54.7264 10.5209 53.7273 9.02167C52.2898 7.98272 50.9521 6.81217 49.7317 5.52517L36.7468 18.513V0.531439C35.1158 0.118587 33.4325 -0.0496091 31.752 0.032361C30.0704 -0.0760539 28.3823 0.0925509 26.7553 0.531439V19.0131L13.2694 5.52714C11.7187 6.41596 10.3602 7.60416 9.27281 9.02266C8.27367 10.5209 6.77545 11.52 5.77631 13.0192L18.7622 26.0051H0.781582L0.282503 30.9998C0.174305 32.6808 0.342908 34.3682 0.781582 35.9945H19.2642L5.77828 49.4805C7.75161 52.452 10.2988 54.9992 13.2704 56.9726L26.2572 43.9857V62.4683C27.8882 62.8812 29.5715 63.0494 31.252 62.9674C32.933 63.0756 34.6203 62.907 36.2467 62.4683V43.9877L49.2326 56.9755C50.783 56.0863 52.1412 54.8978 53.2282 53.479C54.5152 52.2586 55.6857 50.9209 56.7247 49.4834L43.7378 36.4946H62.2195C62.6327 34.8637 62.8012 33.1804 62.7195 31.4999C62.8253 29.6537 62.6562 27.802 62.2195 26.0051ZM39.2422 30.9998C39.1925 33.1987 44.3514 41.8756 43.7378 43.9877C41.6737 44.797 33.961 38.6443 31.7491 38.4929C29.5502 38.4432 20.8743 44.6013 18.7622 43.9877C17.9529 41.9236 24.1046 33.2117 24.256 30.9998C24.3056 28.801 18.1486 20.6251 18.7622 18.513C20.8263 17.7037 29.5372 23.3553 31.7491 23.5068C33.9479 23.5564 41.6257 17.8994 43.7378 18.513C44.3139 20.6332 39.1543 28.8045 39.2422 30.9998Z" fill="#FF4A00"/>
</g>
<defs>
<clipPath id="clip0_268_1650">
<rect width="63" height="63" fill="white"/>
</clipPath>
</defs>
</svg>
